<svg width="192" height="147" viewBox="0 0 192 147" fill="none" xmlns="http://www.w3.org/2000/svg">
<g filter="url(#filter0_d_2259_75747)">
<rect x="8.5" y="6.60742" width="175" height="130" rx="4" fill="white"/>
<rect x="8.375" y="6.48242" width="175.25" height="130.25" rx="4.125" stroke="#6B6B6B" stroke-width="0.25"/>
<rect x="109" y="108" width="61" height="12" rx="2" fill="#FF6C37"/>
<path d="M115.711 113.04V114.961C115.711 115.052 115.81 115.108 115.888 115.061L117.489 114.101C117.564 114.055 117.564 113.946 117.489 113.901L115.888 112.94C115.81 112.893 115.711 112.949 115.711 113.04Z" fill="white"/>
<path fill-rule="evenodd" clip-rule="evenodd" d="M114.457 111.084C113.974 111.084 113.582 111.476 113.582 111.959V116.042C113.582 116.526 113.974 116.917 114.457 116.917H118.54C119.024 116.917 119.415 116.526 119.415 116.042V111.959C119.415 111.476 119.024 111.084 118.54 111.084H114.457ZM114.165 111.959C114.165 111.798 114.296 111.667 114.457 111.667H118.54C118.701 111.667 118.832 111.798 118.832 111.959V116.042C118.832 116.203 118.701 116.334 118.54 116.334H114.457C114.296 116.334 114.165 116.203 114.165 116.042V111.959Z" fill="white"/>
<path d="M123.43 116V111.636H125.067C126.068 111.636 126.605 112.199 126.605 113.032C126.605 113.624 126.335 114.063 125.821 114.27L126.765 116H125.883L125.026 114.402H124.221V116H123.43ZM124.221 113.746H124.95C125.536 113.746 125.8 113.496 125.8 113.032C125.8 112.567 125.536 112.297 124.945 112.297H124.221V113.746ZM129.385 114.624V112.727H130.156V116H129.408V115.418H129.374C129.225 115.785 128.88 116.043 128.39 116.043C127.746 116.043 127.299 115.597 127.299 114.811V112.727H128.07V114.692C128.07 115.107 128.317 115.369 128.688 115.369C129.029 115.369 129.385 115.122 129.385 114.624ZM131.72 114.082V116H130.949V112.727H131.686V113.283H131.725C131.874 112.919 132.21 112.685 132.7 112.685C133.376 112.685 133.823 113.132 133.821 113.916V116H133.05V114.036C133.05 113.599 132.811 113.337 132.413 113.337C132.006 113.337 131.72 113.609 131.72 114.082ZM139.863 113.109H139.066C138.974 112.587 138.559 112.286 138.028 112.286C137.314 112.286 136.812 112.834 136.812 113.818C136.812 114.82 137.319 115.35 138.026 115.35C138.548 115.35 138.966 115.062 139.066 114.551L139.863 114.555C139.741 115.388 139.053 116.06 138.015 116.06C136.865 116.06 136.017 115.227 136.017 113.818C136.017 112.408 136.876 111.577 138.015 111.577C138.983 111.577 139.729 112.139 139.863 113.109ZM141.98 116.064C141.021 116.064 140.412 115.388 140.412 114.376C140.412 113.362 141.021 112.685 141.98 112.685C142.939 112.685 143.548 113.362 143.548 114.376C143.548 115.388 142.939 116.064 141.98 116.064ZM141.984 115.446C142.506 115.446 142.766 114.973 142.766 114.374C142.766 113.776 142.506 113.296 141.984 113.296C141.454 113.296 141.194 113.776 141.194 114.374C141.194 114.973 141.454 115.446 141.984 115.446ZM144.974 111.636V116H144.203V111.636H144.974ZM146.539 111.636V116H145.767V111.636H146.539ZM148.781 116.064C147.794 116.064 147.191 115.41 147.191 114.383C147.191 113.373 147.803 112.685 148.74 112.685C149.546 112.685 150.236 113.19 150.236 114.338V114.575H147.956C147.963 115.135 148.293 115.463 148.791 115.463C149.124 115.463 149.379 115.318 149.484 115.041L150.204 115.122C150.068 115.691 149.544 116.064 148.781 116.064ZM147.958 114.055H149.497C149.492 113.609 149.194 113.286 148.751 113.286C148.291 113.286 147.982 113.637 147.958 114.055ZM152.316 116.064C151.338 116.064 150.748 115.367 150.748 114.376C150.748 113.377 151.353 112.685 152.312 112.685C153.111 112.685 153.665 113.151 153.718 113.861H152.981C152.921 113.545 152.693 113.307 152.322 113.307C151.847 113.307 151.53 113.703 151.53 114.364C151.53 115.033 151.841 115.435 152.322 115.435C152.661 115.435 152.915 115.233 152.981 114.881H153.718C153.663 115.576 153.138 116.064 152.316 116.064ZM155.986 112.727V113.324H155.34V115.016C155.34 115.327 155.496 115.395 155.689 115.395C155.785 115.395 155.873 115.376 155.915 115.365L156.045 115.968C155.962 115.996 155.811 116.038 155.591 116.045C155.012 116.062 154.564 115.759 154.569 115.143V113.324H154.104V112.727H154.569V111.943H155.34V112.727H155.986ZM156.631 116V112.727H157.402V116H156.631ZM157.018 112.263C156.771 112.263 156.571 112.075 156.571 111.845C156.571 111.613 156.771 111.425 157.018 111.425C157.263 111.425 157.464 111.613 157.464 111.845C157.464 112.075 157.263 112.263 157.018 112.263ZM159.623 116.064C158.664 116.064 158.055 115.388 158.055 114.376C158.055 113.362 158.664 112.685 159.623 112.685C160.581 112.685 161.191 113.362 161.191 114.376C161.191 115.388 160.581 116.064 159.623 116.064ZM159.627 115.446C160.149 115.446 160.409 114.973 160.409 114.374C160.409 113.776 160.149 113.296 159.627 113.296C159.096 113.296 158.836 113.776 158.836 114.374C158.836 114.973 159.096 115.446 159.627 115.446ZM162.617 114.082V116H161.846V112.727H162.583V113.283H162.621C162.77 112.919 163.107 112.685 163.597 112.685C164.272 112.685 164.72 113.132 164.718 113.916V116H163.946V114.036C163.946 113.599 163.708 113.337 163.309 113.337C162.902 113.337 162.617 113.609 162.617 114.082Z" fill="white"/>
<path d="M20.038 22.3926V16.938H22.0835C23.3352 16.938 24.0064 17.6412 24.0064 18.6825C24.0064 19.4229 23.6681 19.9716 23.0263 20.2299L24.2061 22.3926H23.1035L22.0328 20.3951H21.0261V22.3926H20.038ZM21.0261 19.5748H21.937C22.6694 19.5748 22.9996 19.2631 22.9996 18.6825C22.9996 18.1019 22.6694 17.7637 21.9316 17.7637H21.0261V19.5748ZM27.4807 20.6721V18.3017H28.4449V22.3926H27.51V21.6655H27.4674C27.281 22.1236 26.8495 22.4458 26.2369 22.4458C25.4326 22.4458 24.8733 21.8892 24.8733 20.9064V18.3017H25.8374V20.7573C25.8374 21.2766 26.1464 21.6042 26.6098 21.6042C27.036 21.6042 27.4807 21.2953 27.4807 20.6721ZM30.4004 19.9956V22.3926H29.4363V18.3017H30.3578V18.9968H30.4058C30.5922 18.5414 31.013 18.2484 31.6256 18.2484C32.4699 18.2484 33.0292 18.8077 33.0265 19.7878V22.3926H32.0624V19.937C32.0624 19.391 31.7641 19.0634 31.266 19.0634C30.7573 19.0634 30.4004 19.4043 30.4004 19.9956ZM38.8739 18.4375C38.8233 17.9741 38.4344 17.6998 37.8458 17.6998C37.2279 17.6998 36.8604 18.0007 36.8577 18.4109C36.8524 18.8663 37.3371 19.0554 37.7846 19.1619L38.2959 19.2898C39.1163 19.4842 39.8966 19.9157 39.8993 20.8612C39.8966 21.8226 39.1376 22.4751 37.8299 22.4751C36.5594 22.4751 35.7524 21.8652 35.7125 20.7813H36.6846C36.7246 21.3539 37.204 21.6309 37.8219 21.6309C38.4664 21.6309 38.9085 21.3192 38.9112 20.8532C38.9085 20.4297 38.5197 20.2459 37.9311 20.0968L37.3105 19.937C36.413 19.7053 35.8563 19.2551 35.8563 18.4721C35.8536 17.508 36.7139 16.8635 37.8592 16.8635C39.0204 16.8635 39.8061 17.516 39.8247 18.4375H38.8739ZM42.5486 22.4725C41.3155 22.4725 40.5618 21.6548 40.5618 20.3711C40.5618 19.1087 41.3262 18.2484 42.498 18.2484C43.5048 18.2484 44.3677 18.8796 44.3677 20.3152V20.6108H41.5179C41.5259 21.3113 41.9387 21.7214 42.562 21.7214C42.9774 21.7214 43.2971 21.5403 43.4276 21.1941L44.3278 21.2953C44.1573 22.0064 43.5021 22.4725 42.5486 22.4725ZM41.5206 19.9609H43.4435C43.4382 19.4043 43.0653 18.9995 42.5114 18.9995C41.9361 18.9995 41.5499 19.4389 41.5206 19.9609ZM48.8774 23.9267H47.9133V21.748H47.8734C47.7215 22.0463 47.4046 22.4645 46.7015 22.4645C45.7373 22.4645 45.0156 21.7001 45.0156 20.3525C45.0156 18.9888 45.7587 18.2484 46.7041 18.2484C47.4259 18.2484 47.7269 18.6825 47.8734 18.9782H47.9293V18.3017H48.8774V23.9267ZM47.9319 20.3471C47.9319 19.5534 47.591 19.0394 46.9705 19.0394C46.3286 19.0394 45.9984 19.5854 45.9984 20.3471C45.9984 21.1142 46.3339 21.6735 46.9705 21.6735C47.5857 21.6735 47.9319 21.1408 47.9319 20.3471ZM52.4783 20.6721V18.3017H53.4424V22.3926H52.5076V21.6655H52.465C52.2785 22.1236 51.8471 22.4458 51.2345 22.4458C50.4302 22.4458 49.8709 21.8892 49.8709 20.9064V18.3017H50.835V20.7573C50.835 21.2766 51.144 21.6042 51.6074 21.6042C52.0335 21.6042 52.4783 21.2953 52.4783 20.6721ZM56.2449 22.4725C55.0118 22.4725 54.2581 21.6548 54.2581 20.3711C54.2581 19.1087 55.0225 18.2484 56.1943 18.2484C57.2011 18.2484 58.064 18.8796 58.064 20.3152V20.6108H55.2142C55.2222 21.3113 55.635 21.7214 56.2583 21.7214C56.6737 21.7214 56.9933 21.5403 57.1238 21.1941L58.0241 21.2953C57.8536 22.0064 57.1984 22.4725 56.2449 22.4725ZM55.2169 19.9609H57.1398C57.1345 19.4043 56.7616 18.9995 56.2076 18.9995C55.6324 18.9995 55.2462 19.4389 55.2169 19.9609ZM59.8438 19.9956V22.3926H58.8797V18.3017H59.8012V18.9968H59.8491C60.0356 18.5414 60.4564 18.2484 61.0689 18.2484C61.9132 18.2484 62.4725 18.8077 62.4699 19.7878V22.3926H61.5057V19.937C61.5057 19.391 61.2074 19.0634 60.7094 19.0634C60.2007 19.0634 59.8438 19.4043 59.8438 19.9956ZM65.2344 22.4725C64.0119 22.4725 63.2742 21.6016 63.2742 20.3631C63.2742 19.114 64.0306 18.2484 65.2291 18.2484C66.2278 18.2484 66.9203 18.8317 66.9869 19.7186H66.0654C65.9908 19.3244 65.7058 19.0261 65.2424 19.0261C64.6485 19.0261 64.2516 19.5215 64.2516 20.3471C64.2516 21.1834 64.6405 21.6868 65.2424 21.6868C65.6659 21.6868 65.9828 21.4338 66.0654 20.9943H66.9869C66.9177 21.8626 66.2625 22.4725 65.2344 22.4725ZM69.5897 22.4725C68.3565 22.4725 67.6028 21.6548 67.6028 20.3711C67.6028 19.1087 68.3672 18.2484 69.5391 18.2484C70.5458 18.2484 71.4087 18.8796 71.4087 20.3152V20.6108H68.5589C68.5669 21.3113 68.9798 21.7214 69.603 21.7214C70.0185 21.7214 70.3381 21.5403 70.4686 21.1941L71.3688 21.2953C71.1983 22.0064 70.5431 22.4725 69.5897 22.4725ZM68.5616 19.9609H70.4845C70.4792 19.4043 70.1064 18.9995 69.5524 18.9995C68.9771 18.9995 68.5909 19.4389 68.5616 19.9609Z" fill="#6B6B6B"/>
<g filter="url(#filter1_d_2259_75747)">
<g filter="url(#filter2_d_2259_75747)">
<path fill-rule="evenodd" clip-rule="evenodd" d="M159.999 127.321C160.137 127.439 160.232 127.524 160.526 127.789C160.813 128.049 160.953 128.171 161.08 128.274C161.133 128.317 161.178 128.43 161.196 128.599C161.211 128.738 161.206 128.893 161.188 129.042C161.182 129.094 161.176 129.131 161.172 129.149C161.134 129.348 161.293 129.532 161.507 129.534C161.698 129.536 161.846 129.539 162.237 129.545C162.335 129.547 162.335 129.547 162.433 129.548C163.496 129.566 164.038 129.561 164.428 129.515C164.844 129.465 165.273 128.987 165.644 128.387C165.958 128.918 166.394 129.436 166.834 129.503C166.974 129.525 167.143 129.531 167.339 129.527C167.485 129.524 167.639 129.515 167.795 129.501C167.913 129.491 168.007 129.481 168.063 129.474C168.27 129.449 168.405 129.255 168.35 129.064C168.338 129.023 168.319 128.947 168.299 128.851C168.277 128.741 168.261 128.633 168.253 128.534C168.249 128.472 168.248 128.415 168.251 128.366C168.256 128.281 168.258 128.233 168.26 128.123C168.261 128.082 168.261 128.082 168.262 128.046C168.267 127.929 168.284 127.817 168.337 127.574C168.36 127.469 168.472 127.267 168.648 127.017C168.701 126.942 168.758 126.864 168.82 126.784C168.936 126.632 169.062 126.478 169.187 126.331C169.262 126.243 169.32 126.177 169.353 126.141C169.624 125.771 169.913 125.166 170.02 124.813C170.122 124.473 170.203 123.846 170.253 123.231C170.281 122.882 170.291 122.6 170.291 122.159C170.291 122.081 170.291 122.081 170.291 122.018C170.292 121.913 170.292 121.873 170.291 121.824C170.29 121.69 170.286 121.558 170.273 121.22C170.243 120.511 169.835 120.053 169.233 119.965C168.721 119.89 168.098 120.294 168.098 120.294C168.098 120.294 167.959 119.839 167.865 119.698C167.713 119.472 167.321 119.184 167.022 119.128C166.713 119.071 166.348 119.078 166.012 119.134C165.719 119.184 165.426 119.434 165.257 119.703C165.136 119.895 165.249 119.692 165.128 119.494C164.961 119.22 164.57 118.975 164.198 118.903C163.883 118.841 163.522 118.865 163.193 118.958C162.769 119.078 162.701 119.385 162.684 119.298C162.628 119.003 162.623 119.022 162.587 118.812C162.457 118.032 162.311 117.493 162.089 117.022C162.102 117.049 162.008 116.846 161.974 116.776C161.915 116.655 161.856 116.545 161.791 116.44C161.59 116.114 161.361 115.87 161.073 115.732C160.574 115.491 159.825 115.609 159.469 116.003C159.117 116.394 159.058 117.049 159.147 117.859C159.181 118.174 159.3 118.748 159.407 119.173C159.446 119.32 159.479 119.454 159.54 119.703C159.551 119.745 159.551 119.745 159.561 119.787C159.609 119.975 159.65 120.129 159.7 120.299C159.695 120.281 159.789 120.599 159.809 120.669C159.815 120.692 159.815 120.692 159.822 120.716C159.859 120.85 159.896 120.994 159.953 121.235C159.984 121.368 160.015 121.509 160.045 121.659C160.126 122.069 160.126 121.983 160.048 121.896C159.994 121.836 159.943 121.781 159.894 121.731C159.803 121.637 159.719 121.559 159.639 121.497C159.058 121.045 158.702 120.846 158.213 120.802C157.411 120.729 156.65 121.267 156.536 121.994C156.465 122.44 156.488 122.645 156.705 123.038C156.824 123.251 157.026 123.508 157.402 123.951C157.426 123.978 157.426 123.978 157.449 124.005C157.911 124.546 157.961 124.606 158.071 124.758C158.368 125.168 159.091 126.345 159.223 126.503L159.999 127.321Z" fill="#212121"/>
<path fill-rule="evenodd" clip-rule="evenodd" d="M157.983 123.592C157.96 123.566 157.96 123.566 157.937 123.539C157.592 123.133 157.402 122.892 157.313 122.732C157.173 122.478 157.166 122.409 157.216 122.09C157.275 121.713 157.703 121.41 158.149 121.451C158.457 121.479 158.726 121.63 159.205 122.002C159.257 122.043 159.319 122.1 159.391 122.174C159.433 122.217 159.478 122.265 159.526 122.319C159.599 122.4 159.844 122.686 159.808 122.644C159.861 122.705 159.9 122.752 159.943 122.81C160.029 122.927 160.078 122.992 160.143 123.075C160.113 123.036 160.34 123.335 160.388 123.379C160.643 123.61 161.013 123.415 160.99 123.107C160.986 123.055 160.973 122.999 160.947 122.902C160.841 122.189 160.805 121.96 160.721 121.537C160.689 121.38 160.657 121.232 160.624 121.091C160.565 120.842 160.527 120.691 160.487 120.548C160.48 120.522 160.48 120.522 160.473 120.497C160.452 120.423 160.356 120.101 160.362 120.123C160.315 119.962 160.276 119.815 160.23 119.634C160.22 119.593 160.22 119.593 160.21 119.551C160.149 119.304 160.114 119.167 160.076 119.017C159.975 118.62 159.861 118.07 159.831 117.791C159.762 117.161 159.81 116.629 159.992 116.427C160.135 116.269 160.538 116.205 160.764 116.314C160.912 116.385 161.059 116.542 161.199 116.768C161.251 116.854 161.301 116.946 161.352 117.05C161.382 117.113 161.473 117.31 161.463 117.288C161.656 117.698 161.788 118.186 161.91 118.914C161.946 119.13 161.991 119.374 162.048 119.673C162.065 119.762 162.065 119.762 162.082 119.85C162.358 121.274 162.338 121.166 162.342 121.28C162.356 121.694 163 121.704 163.028 121.29C163.037 121.159 163.034 121.042 163.018 120.705C163.016 120.658 163.016 120.658 163.013 120.61C162.999 120.3 163 120.122 163.02 120.021C163.055 119.836 163.229 119.629 163.39 119.583C163.616 119.519 163.863 119.503 164.061 119.542C164.251 119.579 164.472 119.718 164.535 119.821C164.612 119.947 164.678 120.138 164.728 120.375C164.768 120.566 164.796 120.771 164.816 120.99C164.822 121.058 164.826 121.11 164.832 121.197C164.835 121.234 164.835 121.234 164.837 121.264C164.839 121.279 164.839 121.279 164.842 121.303C164.845 121.32 164.845 121.32 164.858 121.362C164.865 121.482 164.865 121.482 165.372 121.526C165.523 121.352 165.523 121.352 165.519 121.322C165.544 121.219 165.559 121.104 165.581 120.888C165.595 120.748 165.602 120.679 165.61 120.607C165.644 120.311 165.686 120.123 165.739 120.04C165.803 119.937 166.031 119.794 166.134 119.776C166.391 119.733 166.673 119.728 166.891 119.768C166.989 119.787 167.23 119.964 167.287 120.048C167.404 120.224 167.518 120.79 167.582 121.351C167.572 121.388 167.572 121.388 167.729 121.602C168.27 121.543 168.27 121.543 168.255 121.45C168.269 121.417 168.28 121.379 168.296 121.319C168.335 121.18 168.361 121.1 168.399 121.009C168.425 120.946 168.453 120.893 168.482 120.85C168.592 120.685 168.878 120.573 169.129 120.609C169.399 120.649 169.57 120.842 169.587 121.244C169.6 121.576 169.604 121.703 169.605 121.828C169.606 121.874 169.606 121.911 169.605 122.015C169.605 122.08 169.605 122.08 169.605 122.158C169.605 122.584 169.596 122.849 169.569 123.181C169.523 123.749 169.445 124.35 169.36 124.632C169.273 124.92 169.015 125.46 168.811 125.741C168.796 125.755 168.734 125.825 168.654 125.919C168.522 126.074 168.389 126.237 168.265 126.399C168.199 126.486 168.136 126.57 168.079 126.652C167.855 126.969 167.712 127.228 167.666 127.44C167.605 127.715 167.583 127.862 167.577 128.02C167.575 128.065 167.575 128.065 167.574 128.108C167.572 128.211 167.57 128.253 167.566 128.328C167.561 128.407 167.562 128.491 167.569 128.58C167.579 128.707 167.569 128.881 167.569 128.881C167.569 128.881 167.453 128.87 167.324 128.873C167.166 128.876 167.034 128.871 166.944 128.858C166.812 128.838 166.459 128.417 166.277 128.089C166.001 127.587 165.329 127.611 165.053 128.054C164.805 128.456 164.449 128.853 164.343 128.866C164 128.907 163.469 128.911 162.446 128.895C162.348 128.893 162.348 128.893 162.25 128.891C161.857 128.885 161.872 128.948 161.88 128.881C161.903 128.689 161.901 128.725 161.88 128.533C161.846 128.211 161.742 127.949 161.524 127.775C161.412 127.684 161.277 127.565 161.007 127.321C160.698 127.042 160.601 126.956 160.482 126.856L159.748 126.08C159.667 125.982 158.96 124.831 158.637 124.386C158.512 124.213 158.465 124.157 157.983 123.592ZM166.692 123.595V126.608C166.692 127.043 167.379 127.043 167.379 126.608V123.595C167.379 123.16 166.692 123.16 166.692 123.595ZM164.832 123.596L164.846 126.62C164.848 127.056 165.535 127.053 165.533 126.617L165.519 123.593C165.516 123.157 164.829 123.16 164.832 123.596ZM163.723 126.602L163.704 123.619C163.701 123.183 163.014 123.187 163.017 123.623L163.036 126.606C163.039 127.042 163.726 127.038 163.723 126.602Z" fill="white"/>
</g>
</g>
<rect width="113" height="71.5646" transform="translate(16 29)" fill="white"/>
<path d="M26.3179 36.1088V39.666H25.7794V36.6473H25.7586L24.9075 37.2031V36.6889L25.7951 36.1088H26.3179Z" fill="#A6A6A6"/>
<g clip-path="url(#clip0_2259_75747)">
<path fill-rule="evenodd" clip-rule="evenodd" d="M39.2345 33.666C38.5592 33.666 38.0117 34.2135 38.0117 34.8888V41.0027C38.0117 41.6781 38.5592 42.2255 39.2345 42.2255H45.3485C46.0238 42.2255 46.5712 41.6781 46.5712 41.0027V34.8888C46.5712 34.2135 46.0238 33.666 45.3485 33.666H39.2345ZM44.3047 35.985L41.6801 38.6097L40.2782 37.2078L39.4136 38.0724L41.6801 40.3389L45.1693 36.8497L44.3047 35.985Z" fill="#0265D2"/>
</g>
<path d="M56.7587 37.2326C56.6249 36.8105 56.3053 36.55 55.8329 36.55C55.2302 36.55 54.7699 37.0242 54.7699 37.8857C54.7699 38.7507 55.2267 39.2248 55.8537 39.2248C56.4234 39.2248 56.8021 38.8618 56.8142 38.2886H55.9354V37.8457H57.3336V38.2504C57.3336 39.1484 56.717 39.7146 55.8537 39.7146C54.8897 39.7146 54.2367 39.0147 54.2367 37.8892C54.2367 36.7532 54.9088 36.0602 55.8294 36.0602C56.5971 36.0602 57.1894 36.5396 57.3093 37.2326H56.7587ZM57.9537 39.666V36.1088H60.1839V36.5708H58.4905V37.6547H60.0676V38.1149H58.4905V39.204H60.2048V39.666H57.9537ZM60.6643 36.5708V36.1088H63.4173V36.5708H62.3074V39.666H61.7724V36.5708H60.6643Z" fill="#007F31"/>
<path d="M75.321 36.7769C75.0943 36.0761 74.5707 35.641 73.7995 35.641C72.8511 35.641 72.0903 36.3914 72.0903 37.7774C72.0903 39.1635 72.8511 39.9138 73.8411 39.9138C74.7452 39.9138 75.3757 39.3094 75.3939 38.3506H73.987V37.7774H76.0192V38.3506C76.0192 39.6715 75.1126 40.5183 73.8411 40.5183C72.4238 40.5183 71.465 39.4657 71.465 37.7774C71.465 36.0891 72.4316 35.0366 73.7995 35.0366C74.925 35.0366 75.79 35.7452 75.988 36.7769H75.321ZM78.7204 40.5287C77.5636 40.5287 76.8549 39.7054 76.8549 38.4757C76.8549 37.2459 77.574 36.3914 78.6578 36.3914C79.4916 36.3914 80.3774 36.902 80.3774 38.3923V38.6528H77.4724C77.501 39.51 77.9987 39.9763 78.7204 39.9763C79.2024 39.9763 79.5645 39.7679 79.7208 39.3511L80.3148 39.5178C80.1273 40.1222 79.5332 40.5287 78.7204 40.5287ZM77.4724 38.1213H79.7521C79.7521 37.4439 79.3248 36.9437 78.6578 36.9437C77.9544 36.9437 77.5141 37.4986 77.4724 38.1213ZM83.0531 36.4435V36.9645H82.1985V39.2989C82.1985 39.82 82.4591 39.9034 82.73 39.9034C82.8655 39.9034 82.9489 39.8826 83.001 39.8721L83.126 40.4245C83.0427 40.4557 82.8968 40.4974 82.6675 40.4974C82.1464 40.4974 81.5837 40.1639 81.5837 39.4657V36.9645H80.9792V36.4435H81.5837V35.4847H82.1985V36.4435H83.0531ZM87.094 40.4453L85.635 35.1095H86.2916L87.4067 39.4553H87.4588L88.5947 35.1095H89.3242L90.4602 39.4553H90.5123L91.6274 35.1095H92.2839L90.8249 40.4453H90.1579L88.9803 36.1933H88.9386L87.761 40.4453H87.094ZM93.0056 40.4453V36.4435H93.6205V40.4453H93.0056ZM93.3183 35.7765C93.0786 35.7765 92.8806 35.5889 92.8806 35.3596C92.8806 35.1304 93.0786 34.9428 93.3183 34.9428C93.558 34.9428 93.756 35.1304 93.756 35.3596C93.756 35.5889 93.558 35.7765 93.3183 35.7765ZM96.2578 40.5287C95.2573 40.5287 94.5591 39.7262 94.5591 38.4548C94.5591 37.1938 95.2573 36.3914 96.2682 36.3914C97.0498 36.3914 97.2895 36.8707 97.425 37.0792H97.4771V35.1095H98.092V40.4453H97.4979V39.8304H97.425C97.2895 40.0493 97.029 40.5287 96.2578 40.5287ZM96.3412 39.9763C97.0811 39.9763 97.4875 39.3511 97.4875 38.4444C97.4875 37.5481 97.0915 36.9437 96.3412 36.9437C95.5595 36.9437 95.1739 37.6002 95.1739 38.4444C95.1739 39.2989 95.57 39.9763 96.3412 39.9763ZM100.919 42.0294C100.025 42.0294 99.5327 41.6464 99.2826 41.2269L99.7724 40.883C99.9366 41.1045 100.192 41.4875 100.919 41.4875C101.565 41.4875 102.034 41.1852 102.034 40.5183V39.7054H101.982C101.846 39.9242 101.596 40.3828 100.815 40.3828C99.8454 40.3828 99.1159 39.6741 99.1159 38.4235C99.1159 37.1938 99.8141 36.3914 100.825 36.3914C101.607 36.3914 101.857 36.8707 101.992 37.0792H102.055V36.4435H102.649V40.5599C102.649 41.5917 101.878 42.0294 100.919 42.0294ZM100.898 39.8304C101.638 39.8304 102.044 39.2989 102.044 38.4131C102.044 37.5481 101.648 36.9437 100.898 36.9437C100.116 36.9437 99.7307 37.6002 99.7307 38.4131C99.7307 39.2468 100.127 39.8304 100.898 39.8304ZM105.452 40.5287C104.295 40.5287 103.587 39.7054 103.587 38.4757C103.587 37.2459 104.306 36.3914 105.39 36.3914C106.223 36.3914 107.109 36.902 107.109 38.3923V38.6528H104.204C104.233 39.51 104.73 39.9763 105.452 39.9763C105.934 39.9763 106.296 39.7679 106.453 39.3511L107.047 39.5178C106.859 40.1222 106.265 40.5287 105.452 40.5287ZM104.204 38.1213H106.484C106.484 37.4439 106.057 36.9437 105.39 36.9437C104.686 36.9437 104.246 37.4986 104.204 38.1213ZM109.785 36.4435V36.9645H108.93V39.2989C108.93 39.82 109.191 39.9034 109.462 39.9034C109.597 39.9034 109.681 39.8826 109.733 39.8721L109.858 40.4245C109.774 40.4557 109.629 40.4974 109.399 40.4974C108.878 40.4974 108.315 40.1639 108.315 39.4657V36.9645H107.711V36.4435H108.315V35.4847H108.93V36.4435H109.785Z" fill="#212121"/>
<path d="M24.6244 57.5566V57.1676L25.8281 55.9205C26.2102 55.5158 26.3978 55.29 26.3978 54.9756C26.3978 54.6213 26.1233 54.3989 25.7621 54.3989C25.3782 54.3989 25.1316 54.649 25.1333 55.0312H24.6209C24.6209 54.3816 25.1073 53.9508 25.7725 53.9508C26.4429 53.9508 26.9084 54.3885 26.9084 54.96C26.9084 55.3577 26.7226 55.6721 26.0712 56.3304L25.3643 57.0703V57.0964H26.9658V57.5566H24.6244Z" fill="#A6A6A6"/>
<g clip-path="url(#clip1_2259_75747)">
<path fill-rule="evenodd" clip-rule="evenodd" d="M39.2345 51.5566C38.5592 51.5566 38.0117 52.1041 38.0117 52.7794V58.8934C38.0117 59.5687 38.5592 60.1162 39.2345 60.1162H45.3485C46.0238 60.1162 46.5712 59.5687 46.5712 58.8934V52.7794C46.5712 52.1041 46.0238 51.5566 45.3485 51.5566H39.2345ZM44.3047 53.8756L41.6801 56.5003L40.2782 55.0984L39.4136 55.9631L41.6801 58.2296L45.1693 54.7403L44.3047 53.8756Z" fill="#0265D2"/>
</g>
<path d="M54.2892 57.5566V53.9994H55.5571C56.3839 53.9994 56.7886 54.4962 56.7886 55.151C56.7886 55.8076 56.3804 56.3061 55.5554 56.3061H54.8259V57.5566H54.2892ZM54.8259 55.851H55.5068C56.0313 55.851 56.2484 55.554 56.2484 55.151C56.2484 54.748 56.0313 54.4597 55.4998 54.4597H54.8259V55.851ZM59.6442 53.9994H60.1826V56.3391C60.1826 57.0859 59.6216 57.6157 58.7688 57.6157C57.916 57.6157 57.3567 57.0859 57.3567 56.3391V53.9994H57.8934V56.2956C57.8934 56.7785 58.2286 57.1259 58.7688 57.1259C59.3107 57.1259 59.6442 56.7785 59.6442 56.2956V53.9994ZM60.7264 54.4615V53.9994H63.4794V54.4615H62.3695V57.5566H61.8345V54.4615H60.7264Z" fill="#0053B8"/>
<path d="M71.6735 58.3359V53.0001H73.4764C74.7296 53.0001 75.2897 53.7453 75.2897 54.6884C75.2897 55.6316 74.7296 56.3871 73.4868 56.3871H72.3196V58.3359H71.6735ZM72.3196 55.8139H73.466C74.3231 55.8139 74.654 55.3293 74.654 54.6884C74.654 54.0475 74.3231 53.5733 73.4556 53.5733H72.3196V55.8139ZM78.7692 56.6998V54.3341H79.3841V58.3359H78.7692V57.6585H78.7275C78.5399 58.065 78.1439 58.388 77.5395 58.388C76.7891 58.388 76.2472 57.8982 76.2472 56.8769V54.3341H76.8621V56.8352C76.8621 57.4188 77.2268 57.794 77.7375 57.794C78.196 57.794 78.7692 57.4501 78.7692 56.6998ZM82.2506 54.3341V54.8552H81.3961V57.1896C81.3961 57.7106 81.6566 57.794 81.9276 57.794C82.0631 57.794 82.1464 57.7732 82.1985 57.7628L82.3236 58.3151C82.2402 58.3464 82.0943 58.388 81.865 58.388C81.344 58.388 80.7812 58.0546 80.7812 57.3563V54.8552H80.1768V54.3341H80.7812V53.3753H81.3961V54.3341H82.2506ZM86.2916 58.3359L84.8326 53.0001H85.4891L86.6042 57.3459H86.6563L87.7923 53.0001H88.5218L89.6577 57.3459H89.7098L90.8249 53.0001H91.4815L90.0225 58.3359H89.3555L88.1779 54.084H88.1362L86.9586 58.3359H86.2916ZM92.2032 58.3359V54.3341H92.818V58.3359H92.2032ZM92.5158 53.6671C92.2761 53.6671 92.0781 53.4795 92.0781 53.2502C92.0781 53.021 92.2761 52.8334 92.5158 52.8334C92.7555 52.8334 92.9535 53.021 92.9535 53.2502C92.9535 53.4795 92.7555 53.6671 92.5158 53.6671ZM95.4553 58.4193C94.4549 58.4193 93.7566 57.6169 93.7566 56.3454C93.7566 55.0844 94.4549 54.282 95.4657 54.282C96.2474 54.282 96.4871 54.7614 96.6225 54.9698H96.6746V53.0001H97.2895V58.3359H96.6955V57.7211H96.6225C96.4871 57.9399 96.2265 58.4193 95.4553 58.4193ZM95.5387 57.867C96.2786 57.867 96.6851 57.2417 96.6851 56.335C96.6851 55.4388 96.289 54.8343 95.5387 54.8343C94.7571 54.8343 94.3715 55.4909 94.3715 56.335C94.3715 57.1896 94.7675 57.867 95.5387 57.867ZM100.116 59.92C99.2227 59.92 98.7303 59.537 98.4802 59.1175L98.97 58.7736C99.1341 58.9951 99.3894 59.3781 100.116 59.3781C100.762 59.3781 101.231 59.0759 101.231 58.4089V57.596H101.179C101.044 57.8149 100.794 58.2734 100.012 58.2734C99.0429 58.2734 98.3134 57.5647 98.3134 56.3142C98.3134 55.0844 99.0117 54.282 100.023 54.282C100.804 54.282 101.054 54.7614 101.19 54.9698H101.252V54.3341H101.846V58.4506C101.846 59.4823 101.075 59.92 100.116 59.92ZM100.095 57.7211C100.835 57.7211 101.242 57.1896 101.242 56.3037C101.242 55.4388 100.846 54.8343 100.095 54.8343C99.3139 54.8343 98.9283 55.4909 98.9283 56.3037C98.9283 57.1375 99.3243 57.7211 100.095 57.7211ZM104.65 58.4193C103.493 58.4193 102.784 57.596 102.784 56.3663C102.784 55.1365 103.503 54.282 104.587 54.282C105.421 54.282 106.307 54.7926 106.307 56.2829V56.5434H103.402C103.43 57.4006 103.928 57.867 104.65 57.867C105.132 57.867 105.494 57.6585 105.65 57.2417L106.244 57.4084C106.057 58.0129 105.463 58.4193 104.65 58.4193ZM103.402 56.0119H105.681C105.681 55.3345 105.254 54.8343 104.587 54.8343C103.884 54.8343 103.443 55.3893 103.402 56.0119ZM108.982 54.3341V54.8552H108.128V57.1896C108.128 57.7106 108.388 57.794 108.659 57.794C108.795 57.794 108.878 57.7732 108.93 57.7628L109.055 58.3151C108.972 58.3464 108.826 58.388 108.597 58.388C108.076 58.388 107.513 58.0546 107.513 57.3563V54.8552H106.909V54.3341H107.513V53.3753H108.128V54.3341H108.982Z" fill="#212121"/>
<path d="M25.7864 75.4979C25.0673 75.4979 24.5532 75.1018 24.5306 74.5217H25.076C25.0968 74.8378 25.3973 75.0358 25.7829 75.0358C26.2015 75.0358 26.502 74.8013 26.502 74.4557C26.502 74.0979 26.2171 73.8478 25.7239 73.8478H25.4234V73.4101H25.7239C26.1181 73.4101 26.3943 73.1843 26.3926 72.8404C26.3943 72.5121 26.1563 72.2915 25.7933 72.2915C25.4442 72.2915 25.1368 72.4895 25.1246 72.8161H24.6053C24.6227 72.2377 25.1472 71.8434 25.8003 71.8434C26.4846 71.8434 26.9136 72.2898 26.9119 72.8126C26.9136 73.2121 26.6722 73.5039 26.3005 73.5994V73.6272C26.773 73.7001 27.0456 74.0232 27.0439 74.4731C27.0456 75.0636 26.5124 75.4979 25.7864 75.4979Z" fill="#A6A6A6"/>
<g clip-path="url(#clip2_2259_75747)">
<path fill-rule="evenodd" clip-rule="evenodd" d="M39.2345 69.4492C38.5592 69.4492 38.0117 69.9967 38.0117 70.672V76.786C38.0117 77.4613 38.5592 78.0087 39.2345 78.0087H45.3485C46.0238 78.0087 46.5712 77.4613 46.5712 76.786V70.672C46.5712 69.9967 46.0238 69.4492 45.3485 69.4492H39.2345ZM44.3047 71.7682L41.6801 74.3929L40.2782 72.991L39.4136 73.8556L41.6801 76.1222L45.1693 72.6329L44.3047 71.7682Z" fill="#0265D2"/>
</g>
<path d="M52.6695 75.4492V71.892H53.9374C54.7642 71.892 55.1689 72.3888 55.1689 73.0436C55.1689 73.7001 54.7607 74.1986 53.9357 74.1986H53.2062V75.4492H52.6695ZM53.2062 73.7436H53.8871C54.4116 73.7436 54.6287 73.4466 54.6287 73.0436C54.6287 72.6406 54.4116 72.3523 53.8801 72.3523H53.2062V73.7436ZM58.8269 73.6706C58.8269 74.8083 58.1461 75.4979 57.2255 75.4979C56.3015 75.4979 55.6223 74.8066 55.6223 73.6706C55.6223 72.5329 56.3015 71.8434 57.2255 71.8434C58.1461 71.8434 58.8269 72.5329 58.8269 73.6706ZM58.2954 73.6706C58.2954 72.8039 57.8369 72.3332 57.2255 72.3332C56.6124 72.3332 56.1556 72.8039 56.1556 73.6706C56.1556 74.5373 56.6124 75.008 57.2255 75.008C57.8369 75.008 58.2954 74.5373 58.2954 73.6706ZM61.3751 72.8265C61.3369 72.4982 61.0468 72.3071 60.6386 72.3071C60.2009 72.3071 59.9248 72.5312 59.9248 72.8334C59.923 73.1739 60.293 73.3041 60.5709 73.3753L60.9183 73.4657C61.3699 73.5768 61.9413 73.8252 61.9413 74.4661C61.9413 75.0688 61.4602 75.5083 60.6247 75.5083C59.8275 75.5083 59.329 75.1105 59.2943 74.4661H59.8327C59.864 74.8535 60.2079 75.0376 60.6213 75.0376C61.0781 75.0376 61.4098 74.8083 61.4098 74.4609C61.4098 74.1448 61.1163 74.0197 60.7359 73.919L60.3156 73.8044C59.7441 73.6498 59.3898 73.3597 59.3898 72.8647C59.3898 72.2516 59.9369 71.8434 60.6508 71.8434C61.3733 71.8434 61.877 72.2568 61.8927 72.8265H61.3751ZM62.3461 72.354V71.892H65.0991V72.354H63.9892V75.4492H63.4543V72.354H62.3461Z" fill="#AD7A03"/>
<path d="M71.6735 76.2285V70.8927H73.4764C74.7296 70.8927 75.2897 71.6378 75.2897 72.581C75.2897 73.5241 74.7296 74.2797 73.4868 74.2797H72.3196V76.2285H71.6735ZM72.3196 73.7065H73.466C74.3231 73.7065 74.654 73.2219 74.654 72.581C74.654 71.9401 74.3231 71.4659 73.4556 71.4659H72.3196V73.7065ZM77.83 76.3119C76.7461 76.3119 76.0166 75.4886 76.0166 74.2484C76.0166 72.9979 76.7461 72.1746 77.83 72.1746C78.9138 72.1746 79.6433 72.9979 79.6433 74.2484C79.6433 75.4886 78.9138 76.3119 77.83 76.3119ZM77.83 75.7595C78.6533 75.7595 79.0284 75.0509 79.0284 74.2484C79.0284 73.446 78.6533 72.7269 77.83 72.7269C77.0067 72.7269 76.6315 73.446 76.6315 74.2484C76.6315 75.0509 77.0067 75.7595 77.83 75.7595ZM83.4165 73.1229L82.8642 73.2792C82.7574 73.0031 82.5359 72.7061 81.9992 72.7061C81.5094 72.7061 81.1447 72.9562 81.1447 73.3001C81.1447 73.6075 81.3583 73.7664 81.8325 73.8837L82.4265 74.0296C83.1404 74.2041 83.4895 74.5559 83.4895 75.1134C83.4895 75.8038 82.8564 76.3119 81.9263 76.3119C81.1082 76.3119 80.548 75.9497 80.4047 75.2697L80.9883 75.1238C81.0978 75.5537 81.413 75.77 81.9159 75.77C82.489 75.77 82.8538 75.4886 82.8538 75.1447C82.8538 74.8685 82.6636 74.6757 82.2598 74.5819L81.5928 74.4256C80.8581 74.2536 80.5298 73.8837 80.5298 73.3313C80.5298 72.6539 81.1551 72.1746 81.9992 72.1746C82.7913 72.1746 83.2237 72.5549 83.4165 73.1229ZM86.1554 72.2267V72.7477H85.3009V75.0822C85.3009 75.6032 85.5614 75.6866 85.8324 75.6866C85.9679 75.6866 86.0512 75.6658 86.1033 75.6553L86.2284 76.2077C86.145 76.2389 85.9991 76.2806 85.7698 76.2806C85.2488 76.2806 84.686 75.9471 84.686 75.2489V72.7477H84.0816V72.2267H84.686V71.2679H85.3009V72.2267H86.1554ZM90.1964 76.2285L88.7374 70.8927H89.3939L90.509 75.2385H90.5611L91.6971 70.8927H92.4266L93.5625 75.2385H93.6146L94.7297 70.8927H95.3863L93.9273 76.2285H93.2603L92.0827 71.9765H92.041L90.8634 76.2285H90.1964ZM96.108 76.2285V72.2267H96.7228V76.2285H96.108ZM96.4206 71.5597C96.1809 71.5597 95.9829 71.3721 95.9829 71.1428C95.9829 70.9136 96.1809 70.726 96.4206 70.726C96.6603 70.726 96.8583 70.9136 96.8583 71.1428C96.8583 71.3721 96.6603 71.5597 96.4206 71.5597ZM99.3601 76.3119C98.3597 76.3119 97.6614 75.5094 97.6614 74.238C97.6614 72.977 98.3597 72.1746 99.3705 72.1746C100.152 72.1746 100.392 72.6539 100.527 72.8624H100.579V70.8927H101.194V76.2285H100.6V75.6136H100.527C100.392 75.8325 100.131 76.3119 99.3601 76.3119ZM99.4435 75.7595C100.183 75.7595 100.59 75.1343 100.59 74.2276C100.59 73.3313 100.194 72.7269 99.4435 72.7269C98.6619 72.7269 98.2763 73.3834 98.2763 74.2276C98.2763 75.0822 98.6723 75.7595 99.4435 75.7595ZM104.021 77.8126C103.127 77.8126 102.635 77.4296 102.385 77.0101L102.875 76.6662C103.039 76.8877 103.294 77.2707 104.021 77.2707C104.667 77.2707 105.136 76.9684 105.136 76.3015V75.4886H105.084C104.949 75.7074 104.699 76.166 103.917 76.166C102.948 76.166 102.218 75.4573 102.218 74.2067C102.218 72.977 102.916 72.1746 103.927 72.1746C104.709 72.1746 104.959 72.6539 105.095 72.8624H105.157V72.2267H105.751V76.3432C105.751 77.3749 104.98 77.8126 104.021 77.8126ZM104 75.6136C104.74 75.6136 105.147 75.0822 105.147 74.1963C105.147 73.3313 104.751 72.7269 104 72.7269C103.219 72.7269 102.833 73.3834 102.833 74.1963C102.833 75.03 103.229 75.6136 104 75.6136ZM108.554 76.3119C107.398 76.3119 106.689 75.4886 106.689 74.2589C106.689 73.0291 107.408 72.1746 108.492 72.1746C109.326 72.1746 110.212 72.6852 110.212 74.1755V74.436H107.307C107.335 75.2932 107.833 75.7595 108.554 75.7595C109.036 75.7595 109.399 75.5511 109.555 75.1343L110.149 75.301C109.961 75.9054 109.367 76.3119 108.554 76.3119ZM107.307 73.9045H109.586C109.586 73.2271 109.159 72.7269 108.492 72.7269C107.789 72.7269 107.348 73.2818 107.307 73.9045ZM112.887 72.2267V72.7477H112.033V75.0822C112.033 75.6032 112.293 75.6866 112.564 75.6866C112.7 75.6866 112.783 75.6658 112.835 75.6553L112.96 76.2077C112.877 76.2389 112.731 76.2806 112.502 76.2806C111.981 76.2806 111.418 75.9471 111.418 75.2489V72.7477H110.813V72.2267H111.418V71.2679H112.033V72.2267H112.887Z" fill="#212121"/>
<path d="M24.4494 92.6451V92.2108L25.9866 89.7826H26.6483V92.19H27.119V92.6451H26.6483V93.3398H26.1359V92.6451H24.4494ZM26.1394 92.19V90.4218H26.1116L25.0122 92.1622V92.19H26.1394Z" fill="#A6A6A6"/>
<g clip-path="url(#clip3_2259_75747)">
<path fill-rule="evenodd" clip-rule="evenodd" d="M39.2345 87.3398C38.5592 87.3398 38.0117 87.8873 38.0117 88.5626V94.6766C38.0117 95.3519 38.5592 95.8994 39.2345 95.8994H45.3485C46.0238 95.8994 46.5712 95.3519 46.5712 94.6766V88.5626C46.5712 87.8873 46.0238 87.3398 45.3485 87.3398H39.2345ZM44.3047 89.6588L41.6801 92.2835L40.2782 90.8816L39.4136 91.7463L41.6801 94.0128L45.1693 90.5235L44.3047 89.6588Z" fill="#0265D2"/>
</g>
<path d="M55.7823 93.3398H54.6307V89.7826H55.8188C56.8661 89.7826 57.4932 90.4496 57.4932 91.556C57.4932 92.6677 56.8661 93.3398 55.7823 93.3398ZM55.1674 92.8709H55.7528C56.5639 92.8709 56.9651 92.3984 56.9651 91.556C56.9651 90.7171 56.5639 90.2516 55.7858 90.2516H55.1674V92.8709ZM58.0994 93.3398V89.7826H60.3296V90.2447H58.6361V91.3285H60.2133V91.7888H58.6361V92.8778H60.3505V93.3398H58.0994ZM60.9854 93.3398V89.7826H61.5221V92.8778H63.134V93.3398H60.9854Z" fill="#8E1A10"/>
<path d="M73.3201 94.1191H71.6735V88.7833H73.393C74.9458 88.7833 75.8629 89.7838 75.8629 91.4408C75.8629 93.1083 74.9458 94.1191 73.3201 94.1191ZM72.3196 93.546H73.2784C74.6019 93.546 75.2376 92.7435 75.2376 91.4408C75.2376 90.1486 74.6019 89.3565 73.3513 89.3565H72.3196V93.546ZM78.5412 94.2025C77.3845 94.2025 76.6758 93.3792 76.6758 92.1495C76.6758 90.9197 77.3949 90.0652 78.4787 90.0652C79.3124 90.0652 80.1983 90.5758 80.1983 92.0661V92.3266H77.2933C77.3219 93.1838 77.8196 93.6502 78.5412 93.6502C79.0232 93.6502 79.3854 93.4417 79.5417 93.0249L80.1357 93.1916C79.9481 93.7961 79.3541 94.2025 78.5412 94.2025ZM77.2933 91.7951H79.573C79.573 91.1178 79.1457 90.6175 78.4787 90.6175C77.7753 90.6175 77.335 91.1725 77.2933 91.7951ZM81.7485 88.7833V94.1191H81.1336V88.7833H81.7485ZM84.5525 94.2025C83.3957 94.2025 82.687 93.3792 82.687 92.1495C82.687 90.9197 83.4061 90.0652 84.49 90.0652C85.3237 90.0652 86.2095 90.5758 86.2095 92.0661V92.3266H83.3045C83.3332 93.1838 83.8308 93.6502 84.5525 93.6502C85.0345 93.6502 85.3966 93.4417 85.553 93.0249L86.147 93.1916C85.9594 93.7961 85.3654 94.2025 84.5525 94.2025ZM83.3045 91.7951H85.5842C85.5842 91.1178 85.1569 90.6175 84.49 90.6175C83.7865 90.6175 83.3462 91.1725 83.3045 91.7951ZM88.8852 90.1173V90.6384H88.0307V92.9728C88.0307 93.4939 88.2912 93.5772 88.5622 93.5772C88.6976 93.5772 88.781 93.5564 88.8331 93.546L88.9582 94.0983C88.8748 94.1296 88.7289 94.1712 88.4996 94.1712C87.9786 94.1712 87.4158 93.8378 87.4158 93.1395V90.6384H86.8113V90.1173H87.4158V89.1585H88.0307V90.1173H88.8852ZM91.445 94.2025C90.2882 94.2025 89.5796 93.3792 89.5796 92.1495C89.5796 90.9197 90.2986 90.0652 91.3825 90.0652C92.2162 90.0652 93.102 90.5758 93.102 92.0661V92.3266H90.197C90.2257 93.1838 90.7233 93.6502 91.445 93.6502C91.927 93.6502 92.2891 93.4417 92.4455 93.0249L93.0395 93.1916C92.8519 93.7961 92.2579 94.2025 91.445 94.2025ZM90.197 91.7951H92.4767C92.4767 91.1178 92.0494 90.6175 91.3825 90.6175C90.679 90.6175 90.2387 91.1725 90.197 91.7951ZM97.1534 94.1191L95.6944 88.7833H96.3509L97.466 93.1291H97.5181L98.6541 88.7833H99.3836L100.52 93.1291H100.572L101.687 88.7833H102.343L100.884 94.1191H100.217L99.0397 89.8672H98.998L97.8204 94.1191H97.1534ZM103.065 94.1191V90.1173H103.68V94.1191H103.065ZM103.378 89.4503C103.138 89.4503 102.94 89.2627 102.94 89.0335C102.94 88.8042 103.138 88.6166 103.378 88.6166C103.617 88.6166 103.815 88.8042 103.815 89.0335C103.815 89.2627 103.617 89.4503 103.378 89.4503ZM106.317 94.2025C105.317 94.2025 104.618 93.4001 104.618 92.1286C104.618 90.8676 105.317 90.0652 106.328 90.0652C107.109 90.0652 107.349 90.5446 107.484 90.753H107.536V88.7833H108.151V94.1191H107.557V93.5043H107.484C107.349 93.7231 107.088 94.2025 106.317 94.2025ZM106.4 93.6502C107.14 93.6502 107.547 93.0249 107.547 92.1182C107.547 91.222 107.151 90.6175 106.4 90.6175C105.619 90.6175 105.233 91.2741 105.233 92.1182C105.233 92.9728 105.629 93.6502 106.4 93.6502ZM110.978 95.7032C110.084 95.7032 109.592 95.3202 109.342 94.9008L109.832 94.5568C109.996 94.7783 110.251 95.1613 110.978 95.1613C111.624 95.1613 112.093 94.8591 112.093 94.1921V93.3792H112.041C111.906 93.5981 111.656 94.0566 110.874 94.0566C109.905 94.0566 109.175 93.348 109.175 92.0974C109.175 90.8676 109.873 90.0652 110.884 90.0652C111.666 90.0652 111.916 90.5446 112.052 90.753H112.114V90.1173H112.708V94.2338C112.708 95.2655 111.937 95.7032 110.978 95.7032ZM110.957 93.5043C111.697 93.5043 112.104 92.9728 112.104 92.0869C112.104 91.222 111.708 90.6175 110.957 90.6175C110.176 90.6175 109.79 91.2741 109.79 92.0869C109.79 92.9207 110.186 93.5043 110.957 93.5043ZM115.511 94.2025C114.355 94.2025 113.646 93.3792 113.646 92.1495C113.646 90.9197 114.365 90.0652 115.449 90.0652C116.283 90.0652 117.169 90.5758 117.169 92.0661V92.3266H114.264C114.292 93.1838 114.79 93.6502 115.511 93.6502C115.993 93.6502 116.356 93.4417 116.512 93.0249L117.106 93.1916C116.918 93.7961 116.324 94.2025 115.511 94.2025ZM114.264 91.7951H116.543C116.543 91.1178 116.116 90.6175 115.449 90.6175C114.746 90.6175 114.305 91.1725 114.264 91.7951ZM119.844 90.1173V90.6384H118.99V92.9728C118.99 93.4939 119.25 93.5772 119.521 93.5772C119.657 93.5772 119.74 93.5564 119.792 93.546L119.917 94.0983C119.834 94.1296 119.688 94.1712 119.459 94.1712C118.938 94.1712 118.375 93.8378 118.375 93.1395V90.6384H117.77V90.1173H118.375V89.1585H118.99V90.1173H119.844Z" fill="#212121"/>
</g>
<defs>
<filter id="filter0_d_2259_75747" x="0.25" y="0.357422" width="191.5" height="146.5" filterUnits="userSpaceOnUse" color-interpolation-filters="sRGB">
<feFlood flood-opacity="0" result="BackgroundImageFix"/>
<feColorMatrix in="SourceAlpha" type="matrix" values="0 0 0 0 0 0 0 0 0 0 0 0 0 0 0 0 0 0 127 0" result="hardAlpha"/>
<feOffset dy="2"/>
<feGaussianBlur stdDeviation="4"/>
<feColorMatrix type="matrix" values="0 0 0 0 0 0 0 0 0 0 0 0 0 0 0 0 0 0 0.2 0"/>
<feBlend mode="normal" in2="BackgroundImageFix" result="effect1_dropShadow_2259_75747"/>
<feBlend mode="normal" in="SourceGraphic" in2="effect1_dropShadow_2259_75747" result="shape"/>
</filter>
<filter id="filter1_d_2259_75747" x="151.544" y="111.891" width="23.7044" height="23.8626" filterUnits="userSpaceOnUse" color-interpolation-filters="sRGB">
<feFlood flood-opacity="0" result="BackgroundImageFix"/>
<feColorMatrix in="SourceAlpha" type="matrix" values="0 0 0 0 0 0 0 0 0 0 0 0 0 0 0 0 0 0 127 0" result="hardAlpha"/>
<feOffset dy="1.23893"/>
<feGaussianBlur stdDeviation="2.47786"/>
<feColorMatrix type="matrix" values="0 0 0 0 1 0 0 0 0 0.423529 0 0 0 0 0.215686 0 0 0 1 0"/>
<feBlend mode="normal" in2="BackgroundImageFix" result="effect1_dropShadow_2259_75747"/>
<feBlend mode="normal" in="SourceGraphic" in2="effect1_dropShadow_2259_75747" result="shape"/>
</filter>
<filter id="filter2_d_2259_75747" x="155.261" y="114.988" width="16.2708" height="16.429" filterUnits="userSpaceOnUse" color-interpolation-filters="sRGB">
<feFlood flood-opacity="0" result="BackgroundImageFix"/>
<feColorMatrix in="SourceAlpha" type="matrix" values="0 0 0 0 0 0 0 0 0 0 0 0 0 0 0 0 0 0 127 0" result="hardAlpha"/>
<feOffset dy="0.619465"/>
<feGaussianBlur stdDeviation="0.619465"/>
<feColorMatrix type="matrix" values="0 0 0 0 0 0 0 0 0 0 0 0 0 0 0 0 0 0 0.298656 0"/>
<feBlend mode="normal" in2="BackgroundImageFix" result="effect1_dropShadow_2259_75747"/>
<feBlend mode="normal" in="SourceGraphic" in2="effect1_dropShadow_2259_75747" result="shape"/>
</filter>
<clipPath id="clip0_2259_75747">
<rect width="8.55952" height="8.55952" fill="white" transform="translate(38.0117 33.666)"/>
</clipPath>
<clipPath id="clip1_2259_75747">
<rect width="8.55952" height="8.55952" fill="white" transform="translate(38.0117 51.5566)"/>
</clipPath>
<clipPath id="clip2_2259_75747">
<rect width="8.55952" height="8.55952" fill="white" transform="translate(38.0117 69.4492)"/>
</clipPath>
<clipPath id="clip3_2259_75747">
<rect width="8.55952" height="8.55952" fill="white" transform="translate(38.0117 87.3398)"/>
</clipPath>
</defs>
</svg>
