<svg width="192" height="147" viewBox="0 0 192 147" fill="none" xmlns="http://www.w3.org/2000/svg">
<g filter="url(#filter0_d_2259_75692)">
<g clip-path="url(#clip0_2259_75692)">
<rect x="8.5" y="6.60742" width="175" height="130" rx="4" fill="white"/>
<g clip-path="url(#clip1_2259_75692)">
<rect width="175" height="138" transform="translate(9 7)" fill="white"/>
<g filter="url(#filter1_i_2259_75692)">
<rect width="175" height="25" transform="translate(9 7)" fill="#F9F9F9"/>
<g clip-path="url(#clip2_2259_75692)">
<path fill-rule="evenodd" clip-rule="evenodd" d="M21.8611 15.75C20.956 15.75 20.2222 16.4838 20.2222 17.3889C20.2222 18.294 20.956 19.0278 21.8611 19.0278C22.7663 19.0278 23.5 18.294 23.5 17.3889C23.5 16.4838 22.7663 15.75 21.8611 15.75ZM21.0556 17.3889C21.0556 16.944 21.4162 16.5833 21.8611 16.5833C22.306 16.5833 22.6667 16.944 22.6667 17.3889C22.6667 17.8338 22.306 18.1944 21.8611 18.1944C21.4162 18.1944 21.0556 17.8338 21.0556 17.3889Z" fill="#6B6B6B"/>
<path d="M19.8333 22.4925C19.8333 21.7727 20.0777 21.2901 20.4244 20.9828C20.7791 20.6684 21.2839 20.5 21.8611 20.5C22.1426 20.5 22.4087 20.5403 22.6483 20.6187L22.9073 19.8266C22.5755 19.7181 22.221 19.6667 21.8611 19.6667C21.1294 19.6667 20.412 19.8802 19.8717 20.3591C19.3234 20.8451 19 21.567 19 22.4925V23.1389H19.8333V22.4925Z" fill="#6B6B6B"/>
<path fill-rule="evenodd" clip-rule="evenodd" d="M24.5 17.3889C24.5 16.4838 25.2338 15.75 26.1389 15.75C27.044 15.75 27.7778 16.4838 27.7778 17.3889C27.7778 18.294 27.044 19.0278 26.1389 19.0278C25.2338 19.0278 24.5 18.294 24.5 17.3889ZM26.1389 16.5833C25.694 16.5833 25.3333 16.944 25.3333 17.3889C25.3333 17.8338 25.694 18.1944 26.1389 18.1944C26.5838 18.1944 26.9444 17.8338 26.9444 17.3889C26.9444 16.944 26.5838 16.5833 26.1389 16.5833Z" fill="#6B6B6B"/>
<path d="M24.1111 22.4925C24.1111 21.7727 24.3555 21.2901 24.7022 20.9828C25.0569 20.6684 25.5617 20.5 26.1389 20.5C26.7161 20.5 27.2209 20.6684 27.5756 20.9828C27.9223 21.2901 28.1667 21.7727 28.1667 22.4925V23.1389H29V22.4925C29 21.567 28.6766 20.8451 28.1283 20.3591C27.588 19.8802 26.8706 19.6667 26.1389 19.6667C25.4072 19.6667 24.6897 19.8802 24.1494 20.3591C23.6012 20.8451 23.2778 21.567 23.2778 22.4925V23.1389H24.1111V22.4925Z" fill="#6B6B6B"/>
</g>
<path d="M31.7983 17.8738V17.0455H36.1502V17.8738H34.4643V22.5H33.4842V17.8738H31.7983ZM38.1644 22.5799C36.9312 22.5799 36.1775 21.7623 36.1775 20.4785C36.1775 19.2161 36.9419 18.3558 38.1138 18.3558C39.1205 18.3558 39.9834 18.987 39.9834 20.4226V20.7182H37.1337C37.1416 21.4187 37.5545 21.8288 38.1777 21.8288C38.5932 21.8288 38.9128 21.6477 39.0433 21.3015L39.9435 21.4027C39.773 22.1138 39.1179 22.5799 38.1644 22.5799ZM37.1363 20.0684H39.0593C39.0539 19.5117 38.6811 19.1069 38.1271 19.1069C37.5518 19.1069 37.1656 19.5463 37.1363 20.0684ZM41.9763 22.5826C41.1959 22.5826 40.6073 22.1564 40.6073 21.3521C40.6073 20.4306 41.3664 20.1935 42.1601 20.1083C42.8818 20.0311 43.1721 20.0178 43.1721 19.7408V19.7248C43.1721 19.3226 42.9271 19.0936 42.4797 19.0936C42.0083 19.0936 41.7366 19.3333 41.6407 19.6129L40.7405 19.4851C40.9536 18.7393 41.6141 18.3558 42.4743 18.3558C43.2547 18.3558 44.1363 18.6808 44.1363 19.7621V22.5H43.2094V21.938H43.1775C43.0017 22.2816 42.6182 22.5826 41.9763 22.5826ZM42.2267 21.8741C42.8073 21.8741 43.1748 21.4879 43.1748 21.0325V20.5504C43.0496 20.6516 42.5436 20.7156 42.2906 20.7502C41.8591 20.8114 41.5368 20.9659 41.5368 21.3361C41.5368 21.6903 41.8245 21.8741 42.2267 21.8741ZM45.1057 22.5V18.4091H46.0273V19.1042H46.0752C46.2456 18.6381 46.6558 18.3558 47.2045 18.3558C47.7558 18.3558 48.1526 18.6408 48.3097 19.1042H48.3524C48.5335 18.6488 48.9862 18.3558 49.5802 18.3558C50.3312 18.3558 50.8586 18.8406 50.8586 19.7541V22.5H49.8918V19.9032C49.8918 19.3972 49.5828 19.1681 49.194 19.1681C48.7279 19.1681 48.4536 19.4877 48.4536 19.9485V22.5H47.5081V19.8633C47.5081 19.4425 47.2284 19.1681 46.8209 19.1681C46.4054 19.1681 46.0699 19.5091 46.0699 20.0124V22.5H45.1057ZM54.8876 22.5L53.3481 17.0455H54.4108L55.3936 21.0538H55.4442L56.4936 17.0455H57.4604L58.5124 21.0565H58.5603L59.5431 17.0455H60.6058L59.0664 22.5H58.0916L56.9996 18.6728H56.957L55.8623 22.5H54.8876ZM62.6153 22.5799C61.4168 22.5799 60.655 21.7356 60.655 20.4705C60.655 19.2028 61.4168 18.3558 62.6153 18.3558C63.8138 18.3558 64.5755 19.2028 64.5755 20.4705C64.5755 21.7356 63.8138 22.5799 62.6153 22.5799ZM62.6206 21.8075C63.2731 21.8075 63.5981 21.2163 63.5981 20.4679C63.5981 19.7195 63.2731 19.1202 62.6206 19.1202C61.9574 19.1202 61.6325 19.7195 61.6325 20.4679C61.6325 21.2163 61.9574 21.8075 62.6206 21.8075ZM65.3938 22.5V18.4091H66.3287V19.0909H66.3713C66.5204 18.6168 66.9119 18.3505 67.3807 18.3505C67.4872 18.3505 67.639 18.3612 67.7269 18.3771V19.264C67.6443 19.2374 67.4419 19.2081 67.2795 19.2081C66.7495 19.2081 66.358 19.5756 66.358 20.095V22.5H65.3938ZM68.3674 22.5V17.0455H69.3316V20.0524H69.3982L70.8683 18.4091H71.9949L70.4102 20.1749L72.0882 22.5H70.9349L69.6831 20.7502L69.3316 21.1257V22.5H68.3674ZM75.8708 19.4904L74.9919 19.5863C74.9173 19.3173 74.6829 19.0749 74.2381 19.0749C73.836 19.0749 73.5297 19.2667 73.5324 19.5437C73.5297 19.7807 73.6948 19.9245 74.1103 20.0178L74.8081 20.1669C75.5805 20.3347 75.956 20.6916 75.9587 21.2749C75.956 22.0499 75.2342 22.5799 74.2115 22.5799C73.2074 22.5799 72.5762 22.1351 72.4564 21.3841L73.3965 21.2935C73.4791 21.661 73.7667 21.8528 74.2088 21.8528C74.6669 21.8528 74.9706 21.6424 74.9706 21.3627C74.9706 21.131 74.7948 20.9792 74.4193 20.8967L73.7215 20.7502C72.9358 20.5877 72.5682 20.1935 72.5709 19.5969C72.5682 18.8406 73.2394 18.3558 74.2248 18.3558C75.1836 18.3558 75.7376 18.7979 75.8708 19.4904ZM76.7537 24.0341V18.4091H77.7018V19.0856H77.7578C77.9042 18.79 78.2052 18.3558 78.927 18.3558C79.8725 18.3558 80.6155 19.0962 80.6155 20.4599C80.6155 21.8075 79.8938 22.5719 78.9296 22.5719C78.2265 22.5719 77.9096 22.1538 77.7578 21.8555H77.7178V24.0341H76.7537ZM77.6992 20.4545C77.6992 21.2482 78.0454 21.7809 78.6606 21.7809C79.2972 21.7809 79.6328 21.2216 79.6328 20.4545C79.6328 19.6928 79.3025 19.1468 78.6606 19.1468C78.0401 19.1468 77.6992 19.6609 77.6992 20.4545ZM82.6184 22.5826C81.838 22.5826 81.2494 22.1564 81.2494 21.3521C81.2494 20.4306 82.0085 20.1935 82.8021 20.1083C83.5239 20.0311 83.8142 20.0178 83.8142 19.7408V19.7248C83.8142 19.3226 83.5692 19.0936 83.1218 19.0936C82.6503 19.0936 82.3787 19.3333 82.2828 19.6129L81.3826 19.4851C81.5957 18.7393 82.2562 18.3558 83.1164 18.3558C83.8968 18.3558 84.7784 18.6808 84.7784 19.7621V22.5H83.8515V21.938H83.8195C83.6438 22.2816 83.2602 22.5826 82.6184 22.5826ZM82.8687 21.8741C83.4493 21.8741 83.8169 21.4879 83.8169 21.0325V20.5504C83.6917 20.6516 83.1857 20.7156 82.9327 20.7502C82.5012 20.8114 82.1789 20.9659 82.1789 21.3361C82.1789 21.6903 82.4666 21.8741 82.8687 21.8741ZM87.5323 22.5799C86.3098 22.5799 85.572 21.709 85.572 20.4705C85.572 19.2214 86.3284 18.3558 87.5269 18.3558C88.5257 18.3558 89.2182 18.9391 89.2847 19.826H88.3632C88.2887 19.4318 88.0037 19.1335 87.5403 19.1335C86.9463 19.1335 86.5495 19.6289 86.5495 20.4545C86.5495 21.2908 86.9383 21.7942 87.5403 21.7942C87.9637 21.7942 88.2807 21.5412 88.3632 21.1017H89.2847C89.2155 21.97 88.5603 22.5799 87.5323 22.5799ZM91.8875 22.5799C90.6544 22.5799 89.9006 21.7623 89.9006 20.4785C89.9006 19.2161 90.665 18.3558 91.8369 18.3558C92.8437 18.3558 93.7066 18.987 93.7066 20.4226V20.7182H90.8568C90.8648 21.4187 91.2776 21.8288 91.9008 21.8288C92.3163 21.8288 92.6359 21.6477 92.7664 21.3015L93.6666 21.4027C93.4962 22.1138 92.841 22.5799 91.8875 22.5799ZM90.8595 20.0684H92.7824C92.7771 19.5117 92.4042 19.1069 91.8502 19.1069C91.2749 19.1069 90.8888 19.5463 90.8595 20.0684Z" fill="#6B6B6B"/>
<rect x="145" y="12" width="34" height="15.5" rx="2.5" fill="#F2F2F2"/>
<path d="M151.321 16.2955V21.75H150.661V16.2955H151.321ZM152.56 21.75V17.6591H153.167V18.2983H153.221C153.391 17.8615 153.785 17.6058 154.318 17.6058C154.856 17.6058 155.213 17.8615 155.415 18.2983H155.458C155.668 17.8748 156.097 17.6058 156.683 17.6058C157.413 17.6058 157.929 18.0506 157.929 19.0121V21.75H157.301V19.0121C157.301 18.4075 156.917 18.1705 156.47 18.1705C155.895 18.1705 155.564 18.5593 155.564 19.0866V21.75H154.925V18.9482C154.925 18.4821 154.592 18.1705 154.116 18.1705C153.625 18.1705 153.189 18.5939 153.189 19.1932V21.75H152.56ZM159.079 23.2841V17.6591H159.686V18.3089H159.761C159.899 18.0959 160.144 17.6058 160.943 17.6058C161.976 17.6058 162.69 18.4261 162.69 19.7152C162.69 21.0149 161.976 21.8352 160.954 21.8352C160.165 21.8352 159.899 21.3452 159.761 21.1214H159.707V23.2841H159.079ZM159.697 19.7045C159.697 20.6314 160.112 21.2706 160.868 21.2706C161.657 21.2706 162.062 20.5781 162.062 19.7045C162.062 18.8416 161.667 18.1705 160.868 18.1705C160.101 18.1705 159.697 18.7884 159.697 19.7045ZM165.311 21.8352C164.203 21.8352 163.457 20.9936 163.457 19.7259C163.457 18.4474 164.203 17.6058 165.311 17.6058C166.419 17.6058 167.165 18.4474 167.165 19.7259C167.165 20.9936 166.419 21.8352 165.311 21.8352ZM165.311 21.2706C166.153 21.2706 166.536 20.5462 166.536 19.7259C166.536 18.9055 166.153 18.1705 165.311 18.1705C164.469 18.1705 164.086 18.9055 164.086 19.7259C164.086 20.5462 164.469 21.2706 165.311 21.2706ZM168.124 21.75V17.6591H168.731V18.277H168.774C168.923 17.8722 169.349 17.5952 169.839 17.5952C169.933 17.5952 170.098 17.6005 170.17 17.6058V18.245C170.127 18.2344 169.954 18.2024 169.786 18.2024C169.189 18.2024 168.753 18.6072 168.753 19.1612V21.75H168.124ZM172.95 17.6591V18.1918H172.077V20.5781C172.077 21.1108 172.343 21.196 172.62 21.196C172.758 21.196 172.844 21.1747 172.897 21.1641L173.025 21.7287C172.939 21.7607 172.79 21.8033 172.556 21.8033C172.023 21.8033 171.448 21.4624 171.448 20.7486V18.1918H170.83V17.6591H171.448V16.679H172.077V17.6591H172.95Z" fill="#6B6B6B"/>
<rect x="115.75" y="12" width="27" height="15.5" rx="2.5" fill="#F2F2F2"/>
<path d="M125.736 16.2955V21.75H125.097L122.124 17.4673H122.071V21.75H121.411V16.2955H122.05L125.033 20.5888H125.086V16.2955H125.736ZM128.687 21.8352C127.505 21.8352 126.78 20.9936 126.78 19.7365C126.78 18.4794 127.516 17.6058 128.624 17.6058C129.476 17.6058 130.381 18.1278 130.381 19.6513V19.9176H127.412C127.441 20.7939 127.95 21.2706 128.687 21.2706C129.18 21.2706 129.55 21.0575 129.71 20.6314L130.317 20.8018C130.126 21.4197 129.518 21.8352 128.687 21.8352ZM127.412 19.3743H129.742C129.742 18.6818 129.305 18.1705 128.624 18.1705C127.904 18.1705 127.454 18.7377 127.412 19.3743ZM132.264 21.75L131.018 17.6591H131.678L132.563 20.7912H132.605L133.479 17.6591H134.15L135.013 20.7805H135.056L135.94 17.6591H136.6L135.354 21.75H134.736L133.841 18.6072H133.777L132.882 21.75H132.264Z" fill="#6B6B6B"/>
</g>
<rect width="125" height="25" transform="translate(59 32)" fill="white"/>
<rect x="64" y="37" width="15" height="15" rx="2.5" fill="#FFF1EB"/>
<path d="M71.8125 44.1875V40.75H71.1875V44.1875H67.75V44.8125H71.1875V48.25H71.8125V44.8125H75.25V44.1875H71.8125Z" fill="#6B6B6B"/>
<rect x="81.8125" y="37.3125" width="96.875" height="14.375" rx="0.9375" fill="white"/>
<rect x="81.8125" y="37.3125" width="96.875" height="14.375" rx="0.9375" stroke="#EDEDED" stroke-width="0.625"/>
<path d="M93.375 40.75H84.625V41.375H93.375V40.75Z" fill="#6B6B6B"/>
<path d="M92.2812 42.9375H85.7187V43.5625H92.2812V42.9375Z" fill="#6B6B6B"/>
<path d="M86.8125 45.4375H91.1875V46.0625H86.8125V45.4375Z" fill="#6B6B6B"/>
<path d="M90.0937 47.625H87.9062V48.25H90.0937V47.625Z" fill="#6B6B6B"/>
<rect width="125" height="17.5" transform="translate(59 57)" fill="white"/>
<path d="M85.8892 64.75C85.6575 64.0336 85.1222 63.5888 84.3338 63.5888C83.3643 63.5888 82.5866 64.3558 82.5866 65.7727C82.5866 67.1896 83.3643 67.9567 84.3764 67.9567C85.3006 67.9567 85.9451 67.3388 85.9638 66.3587H84.5256V65.7727H86.603V66.3587C86.603 67.709 85.6761 68.5746 84.3764 68.5746C82.9276 68.5746 81.9474 67.4986 81.9474 65.7727C81.9474 64.0469 82.9355 62.9709 84.3338 62.9709C85.4844 62.9709 86.3686 63.6953 86.571 64.75H85.8892ZM88.2776 63.0455V68.5H87.649V63.0455H88.2776ZM91.0907 68.5852C89.9828 68.5852 89.237 67.7436 89.237 66.4759C89.237 65.1974 89.9828 64.3558 91.0907 64.3558C92.1987 64.3558 92.9444 65.1974 92.9444 66.4759C92.9444 67.7436 92.1987 68.5852 91.0907 68.5852ZM91.0907 68.0206C91.9323 68.0206 92.3159 67.2962 92.3159 66.4759C92.3159 65.6555 91.9323 64.9205 91.0907 64.9205C90.2491 64.9205 89.8656 65.6555 89.8656 66.4759C89.8656 67.2962 90.2491 68.0206 91.0907 68.0206ZM93.9891 68.5V63.0455H94.6177V65.0589H94.6709C94.8094 64.8459 95.0545 64.3558 95.8535 64.3558C96.8869 64.3558 97.6006 65.1761 97.6006 66.4652C97.6006 67.7649 96.8869 68.5852 95.8641 68.5852C95.0758 68.5852 94.8094 68.0952 94.6709 67.8714H94.5964V68.5H93.9891ZM94.607 66.4545C94.607 67.3814 95.0225 68.0206 95.7789 68.0206C96.5672 68.0206 96.9721 67.3281 96.9721 66.4545C96.9721 65.5916 96.5779 64.9205 95.7789 64.9205C95.0119 64.9205 94.607 65.5384 94.607 66.4545ZM99.7659 68.5959C98.9882 68.5959 98.3703 68.1378 98.3703 67.3388C98.3703 66.4013 99.1986 66.2335 99.9577 66.1349C100.703 66.0391 101.012 66.0657 101.012 65.7621V65.7408C101.012 65.2161 100.727 64.9098 100.149 64.9098C99.5502 64.9098 99.2226 65.2294 99.0841 65.5277L98.4875 65.3146C98.8071 64.5689 99.5103 64.3558 100.128 64.3558C100.65 64.3558 101.641 64.505 101.641 65.8047V68.5H101.012V67.946H100.98C100.853 68.2124 100.48 68.5959 99.7659 68.5959ZM99.8618 68.0313C100.608 68.0313 101.012 67.5305 101.012 67.0192V66.4439C100.906 66.5717 100.192 66.6463 99.9257 66.6783C99.4357 66.7422 98.9989 66.8913 98.9989 67.3707C98.9989 67.8075 99.3611 68.0313 99.8618 68.0313ZM103.417 63.0455V68.5H102.788V63.0455H103.417Z" fill="#212121"/>
<rect width="125" height="17.5" transform="translate(59 84.5)" fill="white"/>
<path d="M83.8437 96H82.1605V90.5455H83.9183C85.5057 90.5455 86.4432 91.5682 86.4432 93.2621C86.4432 94.9666 85.5057 96 83.8437 96ZM82.821 95.4141H83.8011C85.1541 95.4141 85.804 94.5938 85.804 93.2621C85.804 91.9411 85.1541 91.1314 83.8757 91.1314H82.821V95.4141ZM89.1811 96.0852C87.9986 96.0852 87.2741 95.2436 87.2741 93.9865C87.2741 92.7294 88.0092 91.8558 89.1172 91.8558C89.9695 91.8558 90.875 92.3778 90.875 93.9013V94.1676H87.9054C87.9347 95.0439 88.4434 95.5206 89.1811 95.5206C89.6738 95.5206 90.044 95.3075 90.2038 94.8814L90.8111 95.0518C90.6193 95.6697 90.0121 96.0852 89.1811 96.0852ZM87.9054 93.6243H90.2358C90.2358 92.9318 89.799 92.4205 89.1172 92.4205C88.3981 92.4205 87.948 92.9877 87.9054 93.6243ZM95.0518 91.9091L93.539 96H92.8998L91.387 91.9091H92.0688L93.1981 95.169H93.2407L94.37 91.9091H95.0518ZM97.4501 96.0852C96.2676 96.0852 95.5432 95.2436 95.5432 93.9865C95.5432 92.7294 96.2783 91.8558 97.3862 91.8558C98.2385 91.8558 99.144 92.3778 99.144 93.9013V94.1676H96.1744C96.2037 95.0439 96.7124 95.5206 97.4501 95.5206C97.9429 95.5206 98.3131 95.3075 98.4729 94.8814L99.0801 95.0518C98.8884 95.6697 98.2811 96.0852 97.4501 96.0852ZM96.1744 93.6243H98.5048C98.5048 92.9318 98.068 92.4205 97.3862 92.4205C96.6671 92.4205 96.217 92.9877 96.1744 93.6243ZM100.729 90.5455V96H100.1V90.5455H100.729ZM103.542 96.0852C102.434 96.0852 101.688 95.2436 101.688 93.9759C101.688 92.6974 102.434 91.8558 103.542 91.8558C104.65 91.8558 105.396 92.6974 105.396 93.9759C105.396 95.2436 104.65 96.0852 103.542 96.0852ZM103.542 95.5206C104.384 95.5206 104.767 94.7962 104.767 93.9759C104.767 93.1555 104.384 92.4205 103.542 92.4205C102.7 92.4205 102.317 93.1555 102.317 93.9759C102.317 94.7962 102.7 95.5206 103.542 95.5206ZM106.355 97.5341V91.9091H106.962V92.5589H107.037C107.175 92.3459 107.42 91.8558 108.219 91.8558C109.253 91.8558 109.967 92.6761 109.967 93.9652C109.967 95.2649 109.253 96.0852 108.23 96.0852C107.442 96.0852 107.175 95.5952 107.037 95.3714H106.984V97.5341H106.355ZM106.973 93.9545C106.973 94.8814 107.388 95.5206 108.145 95.5206C108.933 95.5206 109.338 94.8281 109.338 93.9545C109.338 93.0916 108.944 92.4205 108.145 92.4205C107.378 92.4205 106.973 93.0384 106.973 93.9545ZM110.925 96V91.9091H111.533V92.5483H111.586C111.756 92.1115 112.151 91.8558 112.683 91.8558C113.221 91.8558 113.578 92.1115 113.78 92.5483H113.823C114.034 92.1248 114.462 91.8558 115.048 91.8558C115.778 91.8558 116.295 92.3006 116.295 93.2621V96H115.666V93.2621C115.666 92.6575 115.283 92.4205 114.835 92.4205C114.26 92.4205 113.93 92.8093 113.93 93.3366V96H113.29V93.1982C113.29 92.7321 112.958 92.4205 112.481 92.4205C111.991 92.4205 111.554 92.8439 111.554 93.4432V96H110.925ZM119.159 96.0852C117.977 96.0852 117.252 95.2436 117.252 93.9865C117.252 92.7294 117.987 91.8558 119.095 91.8558C119.947 91.8558 120.853 92.3778 120.853 93.9013V94.1676H117.883C117.913 95.0439 118.421 95.5206 119.159 95.5206C119.652 95.5206 120.022 95.3075 120.182 94.8814L120.789 95.0518C120.597 95.6697 119.99 96.0852 119.159 96.0852ZM117.883 93.6243H120.214C120.214 92.9318 119.777 92.4205 119.095 92.4205C118.376 92.4205 117.926 92.9877 117.883 93.6243ZM122.438 93.5391V96H121.809V91.9091H122.416V92.5483H122.47C122.661 92.1328 123.045 91.8558 123.663 91.8558C124.491 91.8558 125.048 92.3565 125.048 93.4006V96H124.419V93.4432C124.419 92.8013 124.065 92.4205 123.482 92.4205C122.88 92.4205 122.438 92.8253 122.438 93.5391ZM127.975 91.9091V92.4418H127.102V94.8281C127.102 95.3608 127.368 95.446 127.645 95.446C127.784 95.446 127.869 95.4247 127.922 95.4141L128.05 95.9787C127.965 96.0107 127.816 96.0533 127.581 96.0533C127.049 96.0533 126.473 95.7124 126.473 94.9986V92.4418H125.855V91.9091H126.473V90.929H127.102V91.9091H127.975ZM132.746 96.0852C131.563 96.0852 130.839 95.2436 130.839 93.9865C130.839 92.7294 131.574 91.8558 132.682 91.8558C133.534 91.8558 134.439 92.3778 134.439 93.9013V94.1676H131.47C131.499 95.0439 132.008 95.5206 132.746 95.5206C133.238 95.5206 133.608 95.3075 133.768 94.8814L134.376 95.0518C134.184 95.6697 133.577 96.0852 132.746 96.0852ZM131.47 93.6243H133.8C133.8 92.9318 133.363 92.4205 132.682 92.4205C131.963 92.4205 131.512 92.9877 131.47 93.6243ZM136.024 93.5391V96H135.396V91.9091H136.003V92.5483H136.056C136.248 92.1328 136.631 91.8558 137.249 91.8558C138.078 91.8558 138.634 92.3565 138.634 93.4006V96H138.006V93.4432C138.006 92.8013 137.651 92.4205 137.068 92.4205C136.466 92.4205 136.024 92.8253 136.024 93.5391ZM142.981 91.9091L141.469 96H140.829L139.317 91.9091H139.999L141.128 95.169H141.17L142.3 91.9091H142.981ZM143.811 96V91.9091H144.44V96H143.811ZM144.131 91.2273C143.886 91.2273 143.683 91.0355 143.683 90.8011C143.683 90.5668 143.886 90.375 144.131 90.375C144.376 90.375 144.578 90.5668 144.578 90.8011C144.578 91.0355 144.376 91.2273 144.131 91.2273ZM145.591 96V91.9091H146.198V92.527H146.241C146.39 92.1222 146.816 91.8452 147.306 91.8452C147.399 91.8452 147.564 91.8505 147.636 91.8558V92.495C147.594 92.4844 147.421 92.4524 147.253 92.4524C146.656 92.4524 146.219 92.8572 146.219 93.4112V96H145.591ZM149.919 96.0852C148.811 96.0852 148.065 95.2436 148.065 93.9759C148.065 92.6974 148.811 91.8558 149.919 91.8558C151.027 91.8558 151.773 92.6974 151.773 93.9759C151.773 95.2436 151.027 96.0852 149.919 96.0852ZM149.919 95.5206C150.76 95.5206 151.144 94.7962 151.144 93.9759C151.144 93.1555 150.76 92.4205 149.919 92.4205C149.077 92.4205 148.694 93.1555 148.694 93.9759C148.694 94.7962 149.077 95.5206 149.919 95.5206ZM153.361 93.5391V96H152.732V91.9091H153.339V92.5483H153.393C153.584 92.1328 153.968 91.8558 154.586 91.8558C155.414 91.8558 155.971 92.3565 155.971 93.4006V96H155.342V93.4432C155.342 92.8013 154.988 92.4205 154.405 92.4205C153.803 92.4205 153.361 92.8253 153.361 93.5391ZM157.119 96V91.9091H157.726V92.5483H157.78C157.95 92.1115 158.344 91.8558 158.877 91.8558C159.415 91.8558 159.772 92.1115 159.974 92.5483H160.017C160.227 92.1248 160.656 91.8558 161.242 91.8558C161.972 91.8558 162.489 92.3006 162.489 93.2621V96H161.86V93.2621C161.86 92.6575 161.476 92.4205 161.029 92.4205C160.454 92.4205 160.123 92.8093 160.123 93.3366V96H159.484V93.1982C159.484 92.7321 159.151 92.4205 158.675 92.4205C158.185 92.4205 157.748 92.8439 157.748 93.4432V96H157.119ZM165.353 96.0852C164.17 96.0852 163.446 95.2436 163.446 93.9865C163.446 92.7294 164.181 91.8558 165.289 91.8558C166.141 91.8558 167.047 92.3778 167.047 93.9013V94.1676H164.077C164.107 95.0439 164.615 95.5206 165.353 95.5206C165.846 95.5206 166.216 95.3075 166.376 94.8814L166.983 95.0518C166.791 95.6697 166.184 96.0852 165.353 96.0852ZM164.077 93.6243H166.408C166.408 92.9318 165.971 92.4205 165.289 92.4205C164.57 92.4205 164.12 92.9877 164.077 93.6243ZM168.632 93.5391V96H168.003V91.9091H168.61V92.5483H168.664C168.855 92.1328 169.239 91.8558 169.857 91.8558C170.685 91.8558 171.242 92.3565 171.242 93.4006V96H170.613V93.4432C170.613 92.8013 170.259 92.4205 169.676 92.4205C169.074 92.4205 168.632 92.8253 168.632 93.5391ZM174.169 91.9091V92.4418H173.296V94.8281C173.296 95.3608 173.562 95.446 173.839 95.446C173.978 95.446 174.063 95.4247 174.116 95.4141L174.244 95.9787C174.159 96.0107 174.01 96.0533 173.775 96.0533C173.242 96.0533 172.667 95.7124 172.667 94.9986V92.4418H172.049V91.9091H172.667V90.929H173.296V91.9091H174.169Z" fill="#6B6B6B"/>
<rect width="125" height="17.5" transform="translate(59 102)" fill="white"/>
<path d="M82.1605 113.5V108.045H84.0036C85.2846 108.045 85.8572 108.807 85.8572 109.771C85.8572 110.735 85.2846 111.508 84.0142 111.508H82.821V113.5H82.1605ZM82.821 110.922H83.9929C84.8691 110.922 85.2074 110.426 85.2074 109.771C85.2074 109.116 84.8691 108.631 83.9822 108.631H82.821V110.922ZM86.836 113.5V109.409H87.4433V110.027H87.4859C87.635 109.622 88.0612 109.345 88.5512 109.345C88.6444 109.345 88.8096 109.35 88.8815 109.356V109.995C88.8389 109.984 88.6657 109.952 88.498 109.952C87.9014 109.952 87.4646 110.357 87.4646 110.911V113.5H86.836ZM91.164 113.585C90.056 113.585 89.3103 112.744 89.3103 111.476C89.3103 110.197 90.056 109.356 91.164 109.356C92.2719 109.356 93.0177 110.197 93.0177 111.476C93.0177 112.744 92.2719 113.585 91.164 113.585ZM91.164 113.021C92.0056 113.021 92.3891 112.296 92.3891 111.476C92.3891 110.656 92.0056 109.92 91.164 109.92C90.3224 109.92 89.9388 110.656 89.9388 111.476C89.9388 112.296 90.3224 113.021 91.164 113.021ZM95.5219 113.585C94.4992 113.585 93.7854 112.765 93.7854 111.465C93.7854 110.176 94.4992 109.356 95.5325 109.356C96.3315 109.356 96.5766 109.846 96.7151 110.059H96.7683V108.045H97.3969V113.5H96.7896V112.871H96.7151C96.5766 113.095 96.3102 113.585 95.5219 113.585ZM95.6071 113.021C96.3635 113.021 96.779 112.381 96.779 111.455C96.779 110.538 96.3742 109.92 95.6071 109.92C94.8081 109.92 94.4139 110.592 94.4139 111.455C94.4139 112.328 94.8188 113.021 95.6071 113.021ZM101.213 111.827V109.409H101.842V113.5H101.213V112.808H101.171C100.979 113.223 100.574 113.553 99.9564 113.553C99.1893 113.553 98.6353 113.053 98.6353 112.009V109.409H99.2639V111.966C99.2639 112.563 99.6368 112.946 100.159 112.946C100.628 112.946 101.213 112.594 101.213 111.827ZM104.655 113.585C103.505 113.585 102.801 112.701 102.801 111.476C102.801 110.229 103.537 109.356 104.645 109.356C105.507 109.356 106.157 109.867 106.264 110.634H105.635C105.539 110.261 105.209 109.92 104.655 109.92C103.92 109.92 103.43 110.528 103.43 111.455C103.43 112.403 103.909 113.021 104.655 113.021C105.145 113.021 105.518 112.754 105.635 112.307H106.264C106.157 113.031 105.561 113.585 104.655 113.585ZM108.962 109.409V109.942H108.088V112.328C108.088 112.861 108.355 112.946 108.632 112.946C108.77 112.946 108.855 112.925 108.909 112.914L109.036 113.479C108.951 113.511 108.802 113.553 108.568 113.553C108.035 113.553 107.46 113.212 107.46 112.499V109.942H106.842V109.409H107.46V108.429H108.088V109.409H108.962ZM109.907 113.5V109.409H110.536V113.5H109.907ZM110.227 108.727C109.982 108.727 109.779 108.536 109.779 108.301C109.779 108.067 109.982 107.875 110.227 107.875C110.472 107.875 110.674 108.067 110.674 108.301C110.674 108.536 110.472 108.727 110.227 108.727ZM113.349 113.585C112.241 113.585 111.495 112.744 111.495 111.476C111.495 110.197 112.241 109.356 113.349 109.356C114.457 109.356 115.203 110.197 115.203 111.476C115.203 112.744 114.457 113.585 113.349 113.585ZM113.349 113.021C114.191 113.021 114.574 112.296 114.574 111.476C114.574 110.656 114.191 109.92 113.349 109.92C112.507 109.92 112.124 110.656 112.124 111.476C112.124 112.296 112.507 113.021 113.349 113.021ZM116.791 111.039V113.5H116.162V109.409H116.769V110.048H116.823C117.014 109.633 117.398 109.356 118.016 109.356C118.844 109.356 119.401 109.857 119.401 110.901V113.5H118.772V110.943C118.772 110.301 118.418 109.92 117.835 109.92C117.233 109.92 116.791 110.325 116.791 111.039ZM124.374 113.585C123.191 113.585 122.467 112.744 122.467 111.487C122.467 110.229 123.202 109.356 124.31 109.356C125.162 109.356 126.068 109.878 126.068 111.401V111.668H123.098C123.128 112.544 123.636 113.021 124.374 113.021C124.867 113.021 125.237 112.808 125.397 112.381L126.004 112.552C125.812 113.17 125.205 113.585 124.374 113.585ZM123.098 111.124H125.429C125.429 110.432 124.992 109.92 124.31 109.92C123.591 109.92 123.141 110.488 123.098 111.124ZM127.653 111.039V113.5H127.024V109.409H127.631V110.048H127.685C127.876 109.633 128.26 109.356 128.878 109.356C129.706 109.356 130.263 109.857 130.263 110.901V113.5H129.634V110.943C129.634 110.301 129.28 109.92 128.697 109.92C128.095 109.92 127.653 110.325 127.653 111.039ZM134.61 109.409L133.097 113.5H132.458L130.945 109.409H131.627L132.756 112.669H132.799L133.928 109.409H134.61ZM135.44 113.5V109.409H136.068V113.5H135.44ZM135.759 108.727C135.514 108.727 135.312 108.536 135.312 108.301C135.312 108.067 135.514 107.875 135.759 107.875C136.004 107.875 136.207 108.067 136.207 108.301C136.207 108.536 136.004 108.727 135.759 108.727ZM137.219 113.5V109.409H137.827V110.027H137.869C138.018 109.622 138.444 109.345 138.935 109.345C139.028 109.345 139.193 109.35 139.265 109.356V109.995C139.222 109.984 139.049 109.952 138.881 109.952C138.285 109.952 137.848 110.357 137.848 110.911V113.5H137.219ZM141.547 113.585C140.439 113.585 139.694 112.744 139.694 111.476C139.694 110.197 140.439 109.356 141.547 109.356C142.655 109.356 143.401 110.197 143.401 111.476C143.401 112.744 142.655 113.585 141.547 113.585ZM141.547 113.021C142.389 113.021 142.772 112.296 142.772 111.476C142.772 110.656 142.389 109.92 141.547 109.92C140.706 109.92 140.322 110.656 140.322 111.476C140.322 112.296 140.706 113.021 141.547 113.021ZM144.989 111.039V113.5H144.36V109.409H144.968V110.048H145.021C145.213 109.633 145.596 109.356 146.214 109.356C147.042 109.356 147.599 109.857 147.599 110.901V113.5H146.971V110.943C146.971 110.301 146.616 109.92 146.033 109.92C145.431 109.92 144.989 110.325 144.989 111.039ZM148.748 113.5V109.409H149.355V110.048H149.408C149.579 109.612 149.973 109.356 150.505 109.356C151.043 109.356 151.4 109.612 151.603 110.048H151.645C151.856 109.625 152.285 109.356 152.871 109.356C153.6 109.356 154.117 109.801 154.117 110.762V113.5H153.488V110.762C153.488 110.157 153.105 109.92 152.657 109.92C152.082 109.92 151.752 110.309 151.752 110.837V113.5H151.113V110.698C151.113 110.232 150.78 109.92 150.303 109.92C149.813 109.92 149.376 110.344 149.376 110.943V113.5H148.748ZM156.981 113.585C155.799 113.585 155.074 112.744 155.074 111.487C155.074 110.229 155.81 109.356 156.917 109.356C157.77 109.356 158.675 109.878 158.675 111.401V111.668H155.706C155.735 112.544 156.244 113.021 156.981 113.021C157.474 113.021 157.844 112.808 158.004 112.381L158.611 112.552C158.42 113.17 157.812 113.585 156.981 113.585ZM155.706 111.124H158.036C158.036 110.432 157.599 109.92 156.917 109.92C156.198 109.92 155.748 110.488 155.706 111.124ZM160.26 111.039V113.5H159.631V109.409H160.239V110.048H160.292C160.484 109.633 160.867 109.356 161.485 109.356C162.313 109.356 162.87 109.857 162.87 110.901V113.5H162.242V110.943C162.242 110.301 161.887 109.92 161.304 109.92C160.702 109.92 160.26 110.325 160.26 111.039ZM165.798 109.409V109.942H164.924V112.328C164.924 112.861 165.191 112.946 165.467 112.946C165.606 112.946 165.691 112.925 165.744 112.914L165.872 113.479C165.787 113.511 165.638 113.553 165.404 113.553C164.871 113.553 164.296 113.212 164.296 112.499V109.942H163.678V109.409H164.296V108.429H164.924V109.409H165.798Z" fill="#6B6B6B"/>
<rect width="125" height="17.5" transform="translate(59 119.5)" fill="white"/>
<path d="M81.8622 126.131V125.545H85.9531V126.131H84.2379V131H83.5774V126.131H81.8622ZM88.0092 131.085C86.8267 131.085 86.1023 130.244 86.1023 128.987C86.1023 127.729 86.8374 126.856 87.9453 126.856C88.7976 126.856 89.7031 127.378 89.7031 128.901V129.168H86.7335C86.7628 130.044 87.2715 130.521 88.0092 130.521C88.502 130.521 88.8722 130.308 89.032 129.881L89.6392 130.052C89.4474 130.67 88.8402 131.085 88.0092 131.085ZM86.7335 128.624H89.0639C89.0639 127.932 88.6271 127.42 87.9453 127.42C87.2262 127.42 86.7761 127.988 86.7335 128.624ZM93.557 127.825L92.9924 127.985C92.8832 127.703 92.6568 127.399 92.1081 127.399C91.6074 127.399 91.2346 127.655 91.2346 128.006C91.2346 128.321 91.4529 128.483 91.9377 128.603L92.5449 128.752C93.2747 128.931 93.6316 129.29 93.6316 129.86C93.6316 130.566 92.9844 131.085 92.0336 131.085C91.1973 131.085 90.6246 130.715 90.4782 130.02L91.0748 129.871C91.1866 130.31 91.5089 130.531 92.0229 130.531C92.6088 130.531 92.9817 130.244 92.9817 129.892C92.9817 129.61 92.7873 129.413 92.3745 129.317L91.6926 129.157C90.9416 128.981 90.606 128.603 90.606 128.038C90.606 127.346 91.2452 126.856 92.1081 126.856C92.9178 126.856 93.3599 127.245 93.557 127.825ZM96.3568 126.909V127.442H95.4833V129.828C95.4833 130.361 95.7496 130.446 96.0266 130.446C96.1651 130.446 96.2503 130.425 96.3036 130.414L96.4314 130.979C96.3462 131.011 96.197 131.053 95.9627 131.053C95.43 131.053 94.8547 130.712 94.8547 129.999V127.442H94.2368V126.909H94.8547V125.929H95.4833V126.909H96.3568ZM97.3023 131V126.909H97.9309V131H97.3023ZM97.6219 126.227C97.3769 126.227 97.1745 126.036 97.1745 125.801C97.1745 125.567 97.3769 125.375 97.6219 125.375C97.867 125.375 98.0694 125.567 98.0694 125.801C98.0694 126.036 97.867 126.227 97.6219 126.227ZM99.7107 128.539V131H99.0821V126.909H99.6894V127.548H99.7426C99.9344 127.133 100.318 126.856 100.936 126.856C101.764 126.856 102.321 127.357 102.321 128.401V131H101.692V128.443C101.692 127.801 101.338 127.42 100.755 127.42C100.153 127.42 99.7107 127.825 99.7107 128.539ZM105.121 132.619C104.207 132.619 103.704 132.228 103.448 131.799L103.949 131.447C104.117 131.674 104.378 132.065 105.121 132.065C105.781 132.065 106.261 131.756 106.261 131.075V130.244H106.207C106.069 130.467 105.813 130.936 105.014 130.936C104.023 130.936 103.278 130.212 103.278 128.933C103.278 127.676 103.991 126.856 105.025 126.856C105.824 126.856 106.079 127.346 106.218 127.559H106.282V126.909H106.889V131.117C106.889 132.172 106.101 132.619 105.121 132.619ZM105.099 130.371C105.856 130.371 106.271 129.828 106.271 128.923C106.271 128.038 105.866 127.42 105.099 127.42C104.3 127.42 103.906 128.092 103.906 128.923C103.906 129.775 104.311 130.371 105.099 130.371ZM111.864 131.085C110.682 131.085 109.957 130.244 109.957 128.987C109.957 127.729 110.692 126.856 111.8 126.856C112.653 126.856 113.558 127.378 113.558 128.901V129.168H110.588C110.618 130.044 111.126 130.521 111.864 130.521C112.357 130.521 112.727 130.308 112.887 129.881L113.494 130.052C113.302 130.67 112.695 131.085 111.864 131.085ZM110.588 128.624H112.919C112.919 127.932 112.482 127.42 111.8 127.42C111.081 127.42 110.631 127.988 110.588 128.624ZM115.143 128.539V131H114.514V126.909H115.121V127.548H115.175C115.367 127.133 115.75 126.856 116.368 126.856C117.196 126.856 117.753 127.357 117.753 128.401V131H117.124V128.443C117.124 127.801 116.77 127.42 116.187 127.42C115.585 127.42 115.143 127.825 115.143 128.539ZM122.1 126.909L120.587 131H119.948L118.435 126.909H119.117L120.246 130.169H120.289L121.418 126.909H122.1ZM122.93 131V126.909H123.558V131H122.93ZM123.249 126.227C123.004 126.227 122.802 126.036 122.802 125.801C122.802 125.567 123.004 125.375 123.249 125.375C123.494 125.375 123.697 125.567 123.697 125.801C123.697 126.036 123.494 126.227 123.249 126.227ZM124.71 131V126.909H125.317V127.527H125.359C125.509 127.122 125.935 126.845 126.425 126.845C126.518 126.845 126.683 126.85 126.755 126.856V127.495C126.712 127.484 126.539 127.452 126.371 127.452C125.775 127.452 125.338 127.857 125.338 128.411V131H124.71ZM129.038 131.085C127.93 131.085 127.184 130.244 127.184 128.976C127.184 127.697 127.93 126.856 129.038 126.856C130.145 126.856 130.891 127.697 130.891 128.976C130.891 130.244 130.145 131.085 129.038 131.085ZM129.038 130.521C129.879 130.521 130.263 129.796 130.263 128.976C130.263 128.156 129.879 127.42 129.038 127.42C128.196 127.42 127.812 128.156 127.812 128.976C127.812 129.796 128.196 130.521 129.038 130.521ZM132.479 128.539V131H131.851V126.909H132.458V127.548H132.511C132.703 127.133 133.086 126.856 133.704 126.856C134.533 126.856 135.089 127.357 135.089 128.401V131H134.461V128.443C134.461 127.801 134.107 127.42 133.523 127.42C132.921 127.42 132.479 127.825 132.479 128.539ZM136.238 131V126.909H136.845V127.548H136.898C137.069 127.112 137.463 126.856 137.996 126.856C138.534 126.856 138.891 127.112 139.093 127.548H139.136C139.346 127.125 139.775 126.856 140.361 126.856C141.091 126.856 141.607 127.301 141.607 128.262V131H140.979V128.262C140.979 127.657 140.595 127.42 140.148 127.42C139.572 127.42 139.242 127.809 139.242 128.337V131H138.603V128.198C138.603 127.732 138.27 127.42 137.793 127.42C137.303 127.42 136.866 127.844 136.866 128.443V131H136.238ZM144.472 131.085C143.289 131.085 142.565 130.244 142.565 128.987C142.565 127.729 143.3 126.856 144.408 126.856C145.26 126.856 146.166 127.378 146.166 128.901V129.168H143.196C143.225 130.044 143.734 130.521 144.472 130.521C144.964 130.521 145.335 130.308 145.494 129.881L146.102 130.052C145.91 130.67 145.303 131.085 144.472 131.085ZM143.196 128.624H145.526C145.526 127.932 145.09 127.42 144.408 127.42C143.689 127.42 143.238 127.988 143.196 128.624ZM147.75 128.539V131H147.122V126.909H147.729V127.548H147.782C147.974 127.133 148.357 126.856 148.975 126.856C149.804 126.856 150.36 127.357 150.36 128.401V131H149.732V128.443C149.732 127.801 149.378 127.42 148.794 127.42C148.192 127.42 147.75 127.825 147.75 128.539ZM153.288 126.909V127.442H152.414V129.828C152.414 130.361 152.681 130.446 152.958 130.446C153.096 130.446 153.181 130.425 153.235 130.414L153.363 130.979C153.277 131.011 153.128 131.053 152.894 131.053C152.361 131.053 151.786 130.712 151.786 129.999V127.442H151.168V126.909H151.786V125.929H152.414V126.909H153.288Z" fill="#6B6B6B"/>
<g filter="url(#filter2_i_2259_75692)">
<rect width="50" height="113" transform="translate(9 32)" fill="#F9F9F9"/>
<rect x="11.5" y="34.5" width="45" height="32.5" rx="2.5" fill="#F9F9F9"/>
<g clip-path="url(#clip3_2259_75692)">
<path d="M30.25 40.75H37.75V40.125H30.25V40.75Z" fill="#A6A6A6"/>
<path fill-rule="evenodd" clip-rule="evenodd" d="M30.09 42C29.8139 42 29.6068 42.2526 29.661 42.5233L30.861 48.5233C30.9019 48.7278 31.0814 48.875 31.29 48.875H36.71C36.9186 48.875 37.0981 48.7278 37.139 48.5233L38.339 42.5233C38.3932 42.2526 38.1861 42 37.91 42H30.09ZM31.4437 48.25L30.3187 42.625H37.6813L36.5563 48.25H31.4437Z" fill="#A6A6A6"/>
</g>
<path d="M23.7341 55.875H23.1837C23.0505 55.2447 22.509 54.9073 21.9053 54.9073C21.0796 54.9073 20.4315 55.5465 20.4315 56.7273C20.4315 57.908 21.0796 58.5472 21.9053 58.5472C22.509 58.5472 23.0505 58.2099 23.1837 57.5795H23.7341C23.5654 58.5117 22.8197 59.0621 21.9053 59.0621C20.7423 59.0621 19.8989 58.1655 19.8989 56.7273C19.8989 55.2891 20.7423 54.3924 21.9053 54.3924C22.8197 54.3924 23.5654 54.9428 23.7341 55.875ZM25.875 59.071C24.9517 59.071 24.3302 58.3697 24.3302 57.3132C24.3302 56.2479 24.9517 55.5465 25.875 55.5465C26.7983 55.5465 27.4197 56.2479 27.4197 57.3132C27.4197 58.3697 26.7983 59.071 25.875 59.071ZM25.875 58.6005C26.5763 58.6005 26.8959 57.9968 26.8959 57.3132C26.8959 56.6296 26.5763 56.017 25.875 56.017C25.1736 56.017 24.854 56.6296 24.854 57.3132C24.854 57.9968 25.1736 58.6005 25.875 58.6005ZM28.6806 54.4545V59H28.1568V54.4545H28.6806ZM30.1012 54.4545V59H29.5774V54.4545H30.1012ZM32.4274 59.071C31.442 59.071 30.8383 58.3697 30.8383 57.3221C30.8383 56.2745 31.4508 55.5465 32.3741 55.5465C33.0844 55.5465 33.839 55.9815 33.839 57.2511V57.473H31.3643C31.3887 58.2032 31.8126 58.6005 32.4274 58.6005C32.838 58.6005 33.1465 58.4229 33.2797 58.0678L33.7857 58.2099C33.6259 58.7248 33.1199 59.071 32.4274 59.071ZM31.3643 57.0202H33.3063C33.3063 56.4432 32.9423 56.017 32.3741 56.017C31.7749 56.017 31.3998 56.4898 31.3643 57.0202ZM35.9582 59.071C34.9994 59.071 34.4135 58.3342 34.4135 57.3132C34.4135 56.2745 35.026 55.5465 35.9493 55.5465C36.6684 55.5465 37.21 55.9727 37.2988 56.6119H36.775C36.6951 56.3011 36.4199 56.017 35.9582 56.017C35.3456 56.017 34.9373 56.5231 34.9373 57.2955C34.9373 58.0856 35.3368 58.6005 35.9582 58.6005C36.3666 58.6005 36.6773 58.3786 36.775 58.0057H37.2988C37.21 58.6094 36.7128 59.071 35.9582 59.071ZM39.4846 55.5909V56.0348H38.7566V58.0234C38.7566 58.4673 38.9785 58.5384 39.2094 58.5384C39.3248 58.5384 39.3958 58.5206 39.4402 58.5117L39.5467 58.9822C39.4757 59.0089 39.3514 59.0444 39.1561 59.0444C38.7122 59.0444 38.2328 58.7603 38.2328 58.1655V56.0348H37.7179V55.5909H38.2328V54.7741H38.7566V55.5909H39.4846ZM40.21 59V55.5909H40.7338V59H40.21ZM40.4763 55.0227C40.2721 55.0227 40.1035 54.8629 40.1035 54.6676C40.1035 54.4723 40.2721 54.3125 40.4763 54.3125C40.6805 54.3125 40.8492 54.4723 40.8492 54.6676C40.8492 54.8629 40.6805 55.0227 40.4763 55.0227ZM43.0156 59.071C42.0923 59.071 41.4708 58.3697 41.4708 57.3132C41.4708 56.2479 42.0923 55.5465 43.0156 55.5465C43.9389 55.5465 44.5603 56.2479 44.5603 57.3132C44.5603 58.3697 43.9389 59.071 43.0156 59.071ZM43.0156 58.6005C43.7169 58.6005 44.0365 57.9968 44.0365 57.3132C44.0365 56.6296 43.7169 56.017 43.0156 56.017C42.3142 56.017 41.9946 56.6296 41.9946 57.3132C41.9946 57.9968 42.3142 58.6005 43.0156 58.6005ZM45.8212 56.9492V59H45.2974V55.5909H45.8034V56.1236H45.8478C46.0076 55.7773 46.3272 55.5465 46.8421 55.5465C47.5324 55.5465 47.9963 55.9638 47.9963 56.8338V59H47.4725V56.8693C47.4725 56.3344 47.1773 56.017 46.6912 56.017C46.1896 56.017 45.8212 56.3544 45.8212 56.9492Z" fill="#A6A6A6"/>
<rect x="11.5" y="67" width="45" height="32.5" rx="2.5" fill="#EDEDED"/>
<rect width="45" height="27.5" transform="translate(11.5 69.5)" fill="#EDEDED"/>
<path d="M29.625 73.5625C29.625 73.0447 30.0447 72.625 30.5625 72.625H37.4375C37.9553 72.625 38.375 73.0447 38.375 73.5625V78.25H37.75V73.5625C37.75 73.3899 37.6101 73.25 37.4375 73.25H30.5625C30.3899 73.25 30.25 73.3899 30.25 73.5625V80.4375C30.25 80.6101 30.3899 80.75 30.5625 80.75H35.25V81.375H30.5625C30.0447 81.375 29.625 80.9553 29.625 80.4375V73.5625Z" fill="#6B6B6B"/>
<path fill-rule="evenodd" clip-rule="evenodd" d="M32.125 76.0625C32.125 75.8899 32.2649 75.75 32.4375 75.75H35.5625C35.7351 75.75 35.875 75.8899 35.875 76.0625V77.9375C35.875 78.1101 35.7351 78.25 35.5625 78.25H32.4375C32.2649 78.25 32.125 78.1101 32.125 77.9375V76.0625ZM32.75 76.375V77.625H35.25V76.375H32.75Z" fill="#6B6B6B"/>
<path d="M38.375 79.5H36.5V81.375H38.375V79.5Z" fill="#6B6B6B"/>
<path d="M16.4456 91.5V86.9545H19.1888V87.4428H16.996V88.9787H19.0468V89.467H16.996V91.0117H19.2243V91.5H16.4456ZM20.5712 89.4492V91.5H20.0474V88.0909H20.5534V88.6236H20.5978C20.7576 88.2773 21.0772 88.0465 21.5921 88.0465C22.2824 88.0465 22.7463 88.4638 22.7463 89.3338V91.5H22.2225V89.3693C22.2225 88.8344 21.9273 88.517 21.4412 88.517C20.9396 88.517 20.5712 88.8544 20.5712 89.4492ZM26.3065 88.0909L25.0458 91.5H24.5132L23.2525 88.0909H23.8207L24.7617 90.8075H24.7972L25.7383 88.0909H26.3065ZM26.9353 91.5V88.0909H27.4591V91.5H26.9353ZM27.2017 87.5227C26.9975 87.5227 26.8288 87.3629 26.8288 87.1676C26.8288 86.9723 26.9975 86.8125 27.2017 86.8125C27.4059 86.8125 27.5745 86.9723 27.5745 87.1676C27.5745 87.3629 27.4059 87.5227 27.2017 87.5227ZM28.356 91.5V88.0909H28.862V88.6058H28.8975C29.0218 88.2685 29.3769 88.0376 29.7853 88.0376C29.863 88.0376 30.0006 88.0421 30.0605 88.0465V88.5792C30.025 88.5703 29.8808 88.5437 29.7409 88.5437C29.2438 88.5437 28.8798 88.881 28.8798 89.3427V91.5H28.356ZM31.9001 91.571C30.9768 91.571 30.3554 90.8697 30.3554 89.8132C30.3554 88.7479 30.9768 88.0465 31.9001 88.0465C32.8234 88.0465 33.4449 88.7479 33.4449 89.8132C33.4449 90.8697 32.8234 91.571 31.9001 91.571ZM31.9001 91.1005C32.6015 91.1005 32.9211 90.4968 32.9211 89.8132C32.9211 89.1296 32.6015 88.517 31.9001 88.517C31.1988 88.517 30.8792 89.1296 30.8792 89.8132C30.8792 90.4968 31.1988 91.1005 31.9001 91.1005ZM34.7057 89.4492V91.5H34.1819V88.0909H34.688V88.6236H34.7323C34.8921 88.2773 35.2117 88.0465 35.7267 88.0465C36.4169 88.0465 36.8808 88.4638 36.8808 89.3338V91.5H36.357V89.3693C36.357 88.8344 36.0618 88.517 35.5757 88.517C35.0741 88.517 34.7057 88.8544 34.7057 89.4492ZM37.7754 91.5V88.0909H38.2815V88.6236H38.3258C38.4679 88.2596 38.7964 88.0465 39.2403 88.0465C39.6886 88.0465 39.986 88.2596 40.1547 88.6236H40.1902C40.3655 88.2707 40.7229 88.0465 41.2111 88.0465C41.8193 88.0465 42.2499 88.4172 42.2499 89.2184V91.5H41.7261V89.2184C41.7261 88.7146 41.4065 88.517 41.0336 88.517C40.5542 88.517 40.279 88.8411 40.279 89.2805V91.5H39.7463V89.1651C39.7463 88.7767 39.4689 88.517 39.0716 88.517C38.6632 88.517 38.2992 88.8699 38.2992 89.3693V91.5H37.7754ZM44.5744 91.571C43.5889 91.571 42.9852 90.8697 42.9852 89.8221C42.9852 88.7745 43.5978 88.0465 44.5211 88.0465C45.2313 88.0465 45.986 88.4815 45.986 89.7511V89.973H43.5113C43.5357 90.7032 43.9596 91.1005 44.5744 91.1005C44.985 91.1005 45.2935 90.9229 45.4267 90.5678L45.9327 90.7099C45.7729 91.2248 45.2669 91.571 44.5744 91.571ZM43.5113 89.5202H45.4533C45.4533 88.9432 45.0893 88.517 44.5211 88.517C43.9219 88.517 43.5468 88.9898 43.5113 89.5202ZM47.244 89.4492V91.5H46.7202V88.0909H47.2263V88.6236H47.2707C47.4305 88.2773 47.7501 88.0465 48.265 88.0465C48.9552 88.0465 49.4191 88.4638 49.4191 89.3338V91.5H48.8953V89.3693C48.8953 88.8344 48.6001 88.517 48.1141 88.517C47.6125 88.517 47.244 88.8544 47.244 89.4492ZM51.7963 88.0909V88.5348H51.0684V90.5234C51.0684 90.9673 51.2903 91.0384 51.5211 91.0384C51.6365 91.0384 51.7076 91.0206 51.752 91.0117L51.8585 91.4822C51.7875 91.5089 51.6632 91.5444 51.4679 91.5444C51.024 91.5444 50.5446 91.2603 50.5446 90.6655V88.5348H50.0297V88.0909H50.5446V87.2741H51.0684V88.0909H51.7963Z" fill="#6B6B6B"/>
<rect x="11.5" y="99.5" width="45" height="32.5" rx="2.5" fill="#F9F9F9"/>
<g clip-path="url(#clip4_2259_75692)">
<path fill-rule="evenodd" clip-rule="evenodd" d="M33.9999 105.125L35.8943 106.219V108.406L33.9999 109.5L32.1055 108.406V106.219L33.9999 105.125ZM32.7305 106.58L33.9999 105.847L35.2693 106.58V108.045L33.9999 108.778L32.7305 108.045V106.58Z" fill="#A6A6A6"/>
<path fill-rule="evenodd" clip-rule="evenodd" d="M33.3943 110.594L31.4999 109.5L29.6055 110.594V112.781L31.4999 113.875L33.3943 112.781V110.594ZM31.4999 110.222L30.2305 110.955V112.42L31.4999 113.153L32.7693 112.42V110.955L31.4999 110.222Z" fill="#A6A6A6"/>
<path fill-rule="evenodd" clip-rule="evenodd" d="M38.3943 110.594L36.4999 109.5L34.6055 110.594V112.781L36.4999 113.875L38.3943 112.781V110.594ZM36.4999 110.222L35.2305 110.955V112.42L36.4999 113.153L37.7693 112.42V110.955L36.4999 110.222Z" fill="#A6A6A6"/>
</g>
<path d="M28.2754 124H27.6984L29.3674 119.455H29.9356L31.6046 124H31.0276L30.5704 122.713H28.7326L28.2754 124ZM28.9058 122.224H30.3972L29.6693 120.174H29.6337L28.9058 122.224ZM32.2501 124V119.455H33.786C34.8536 119.455 35.3307 120.089 35.3307 120.893C35.3307 121.696 34.8536 122.34 33.7949 122.34H32.8006V124H32.2501ZM32.8006 121.852H33.7771C34.5073 121.852 34.7892 121.439 34.7892 120.893C34.7892 120.347 34.5073 119.943 33.7682 119.943H32.8006V121.852ZM36.7053 119.455V124H36.1549V119.455H36.7053ZM40.0902 121.354L39.6197 121.488C39.5287 121.252 39.34 120.999 38.8828 120.999C38.4656 120.999 38.1548 121.212 38.1548 121.505C38.1548 121.767 38.3368 121.903 38.7408 122.002L39.2468 122.127C39.855 122.275 40.1524 122.575 40.1524 123.05C40.1524 123.638 39.613 124.071 38.8207 124.071C38.1238 124.071 37.6466 123.763 37.5245 123.183L38.0217 123.059C38.1149 123.425 38.3835 123.609 38.8118 123.609C39.3001 123.609 39.6108 123.37 39.6108 123.077C39.6108 122.841 39.4488 122.677 39.1048 122.597L38.5366 122.464C37.9107 122.318 37.6311 122.002 37.6311 121.532C37.6311 120.955 38.1637 120.547 38.8828 120.547C39.5575 120.547 39.926 120.871 40.0902 121.354Z" fill="#A6A6A6"/>
<rect x="11.5" y="132" width="45" height="32.5" rx="2.5" fill="#F9F9F9"/>
</g>
</g>
<g filter="url(#filter3_d_2259_75692)">
<path d="M65.5 59.8801C65.5 59.1772 66.0698 58.6074 66.7727 58.6074H163.227C163.93 58.6074 164.5 59.1772 164.5 59.8801V79.3347C164.5 80.0376 163.93 80.6074 163.227 80.6074H66.7727C66.0698 80.6074 65.5 80.0376 65.5 79.3347V59.8801Z" fill="#FFF1EB"/>
<path d="M66.7725 58.8574H163.228C163.792 58.8576 164.25 59.3153 164.25 59.8799V79.335C164.25 79.8996 163.792 80.3573 163.228 80.3574H66.7725C66.2078 80.3573 65.7501 79.8996 65.75 79.335V59.8799C65.7501 59.3153 66.2078 58.8576 66.7725 58.8574Z" stroke="#FFB091" stroke-width="0.5"/>
<path d="M78.1803 68.6317H77.5681C77.42 67.9307 76.8177 67.5554 76.1463 67.5554C75.228 67.5554 74.5072 68.2664 74.5072 69.5796C74.5072 70.8929 75.228 71.6038 76.1463 71.6038C76.8177 71.6038 77.42 71.2286 77.5681 70.5276H78.1803C77.9927 71.5643 77.1633 72.1765 76.1463 72.1765C74.8528 72.1765 73.9147 71.1793 73.9147 69.5796C73.9147 67.98 74.8528 66.9827 76.1463 66.9827C77.1633 66.9827 77.9927 67.5949 78.1803 68.6317ZM79.0906 72.1074V68.3158H79.6534V68.8885H79.6929C79.8312 68.5132 80.2261 68.2565 80.6803 68.2565C80.7667 68.2565 80.9198 68.2614 80.9864 68.2664V68.8588C80.9469 68.849 80.7865 68.8193 80.631 68.8193C80.078 68.8193 79.6732 69.1946 79.6732 69.708V72.1074H79.0906ZM83.1513 72.1864C82.0553 72.1864 81.3839 71.4064 81.3839 70.2412C81.3839 69.0761 82.0652 68.2664 83.0921 68.2664C83.882 68.2664 84.7213 68.7502 84.7213 70.1622V70.4091H81.9689C81.9961 71.2212 82.4676 71.6631 83.1513 71.6631C83.608 71.6631 83.9512 71.4656 84.0993 71.0706L84.6621 71.2286C84.4844 71.8013 83.9215 72.1864 83.1513 72.1864ZM81.9689 69.9055H84.1289C84.1289 69.2637 83.724 68.7897 83.0921 68.7897C82.4256 68.7897 82.0084 69.3155 81.9689 69.9055ZM86.7233 72.1963C86.0025 72.1963 85.4298 71.7717 85.4298 71.0311C85.4298 70.1622 86.1975 70.0067 86.901 69.9154C87.5922 69.8265 87.8786 69.8512 87.8786 69.5698V69.55C87.8786 69.0637 87.6145 68.7798 87.0788 68.7798C86.5234 68.7798 86.2197 69.0761 86.0914 69.3525L85.5384 69.1551C85.8346 68.4639 86.4863 68.2664 87.059 68.2664C87.5429 68.2664 88.4612 68.4046 88.4612 69.6093V72.1074H87.8786V71.594H87.849C87.7305 71.8408 87.3849 72.1963 86.7233 72.1963ZM86.8122 71.673C87.5034 71.673 87.8786 71.2089 87.8786 70.7349V70.2017C87.7798 70.3202 87.1183 70.3893 86.8714 70.4189C86.4172 70.4782 86.0124 70.6164 86.0124 71.0608C86.0124 71.4656 86.3481 71.673 86.8122 71.673ZM91.1735 68.3158V68.8095H90.3638V71.0213C90.3638 71.515 90.6106 71.594 90.8674 71.594C90.9957 71.594 91.0747 71.5742 91.1241 71.5643L91.2426 72.0877C91.1636 72.1173 91.0253 72.1568 90.8081 72.1568C90.3144 72.1568 89.7812 71.8408 89.7812 71.1793V68.8095H89.2085V68.3158H89.7812V67.4073H90.3638V68.3158H91.1735ZM93.5988 72.1864C92.5028 72.1864 91.8313 71.4064 91.8313 70.2412C91.8313 69.0761 92.5126 68.2664 93.5396 68.2664C94.3295 68.2664 95.1688 68.7502 95.1688 70.1622V70.4091H92.4164C92.4435 71.2212 92.915 71.6631 93.5988 71.6631C94.0555 71.6631 94.3986 71.4656 94.5467 71.0706L95.1095 71.2286C94.9318 71.8013 94.369 72.1864 93.5988 72.1864ZM92.4164 69.9055H94.5763C94.5763 69.2637 94.1715 68.7897 93.5396 68.7897C92.873 68.7897 92.4559 69.3155 92.4164 69.9055ZM98.5926 69.8265V72.1074H98.0101V68.3158H98.5729V68.9082H98.6223C98.8 68.5231 99.1555 68.2664 99.7282 68.2664C100.496 68.2664 101.012 68.7305 101.012 69.6981V72.1074H100.429V69.7376C100.429 69.1427 100.101 68.7897 99.5603 68.7897C99.0024 68.7897 98.5926 69.1649 98.5926 69.8265ZM103.666 72.1864C102.57 72.1864 101.899 71.4064 101.899 70.2412C101.899 69.0761 102.58 68.2664 103.607 68.2664C104.397 68.2664 105.236 68.7502 105.236 70.1622V70.4091H102.484C102.511 71.2212 102.982 71.6631 103.666 71.6631C104.123 71.6631 104.466 71.4656 104.614 71.0706L105.177 71.2286C104.999 71.8013 104.436 72.1864 103.666 72.1864ZM102.484 69.9055H104.644C104.644 69.2637 104.239 68.7897 103.607 68.7897C102.94 68.7897 102.523 69.3155 102.484 69.9055ZM106.981 72.1074L105.826 68.3158H106.438L107.258 71.2188H107.297L108.107 68.3158H108.729L109.529 71.2089H109.568L110.388 68.3158H111L109.845 72.1074H109.272L108.443 69.1946H108.383L107.554 72.1074H106.981ZM115.315 72.1864C114.219 72.1864 113.548 71.4064 113.548 70.2412C113.548 69.0761 114.229 68.2664 115.256 68.2664C116.046 68.2664 116.885 68.7502 116.885 70.1622V70.4091H114.133C114.16 71.2212 114.631 71.6631 115.315 71.6631C115.772 71.6631 116.115 71.4656 116.263 71.0706L116.826 71.2286C116.648 71.8013 116.085 72.1864 115.315 72.1864ZM114.133 69.9055H116.293C116.293 69.2637 115.888 68.7897 115.256 68.7897C114.589 68.7897 114.172 69.3155 114.133 69.9055ZM118.354 69.8265V72.1074H117.771V68.3158H118.334V68.9082H118.383C118.561 68.5231 118.917 68.2664 119.489 68.2664C120.257 68.2664 120.773 68.7305 120.773 69.6981V72.1074H120.19V69.7376C120.19 69.1427 119.862 68.7897 119.322 68.7897C118.764 68.7897 118.354 69.1649 118.354 69.8265ZM124.802 68.3158L123.4 72.1074H122.808L121.406 68.3158H122.038L123.084 71.3372H123.124L124.17 68.3158H124.802ZM125.571 72.1074V68.3158H126.154V72.1074H125.571ZM125.867 67.6838C125.64 67.6838 125.453 67.5061 125.453 67.2888C125.453 67.0716 125.64 66.8939 125.867 66.8939C126.095 66.8939 126.282 67.0716 126.282 67.2888C126.282 67.5061 126.095 67.6838 125.867 67.6838ZM127.221 72.1074V68.3158H127.784V68.8885H127.823C127.961 68.5132 128.356 68.2565 128.811 68.2565C128.897 68.2565 129.05 68.2614 129.117 68.2664V68.8588C129.077 68.849 128.917 68.8193 128.761 68.8193C128.208 68.8193 127.803 69.1946 127.803 69.708V72.1074H127.221ZM131.232 72.1864C130.205 72.1864 129.514 71.4064 129.514 70.2313C129.514 69.0464 130.205 68.2664 131.232 68.2664C132.259 68.2664 132.95 69.0464 132.95 70.2313C132.95 71.4064 132.259 72.1864 131.232 72.1864ZM131.232 71.6631C132.012 71.6631 132.368 70.9916 132.368 70.2313C132.368 69.471 132.012 68.7897 131.232 68.7897C130.452 68.7897 130.097 69.471 130.097 70.2313C130.097 70.9916 130.452 71.6631 131.232 71.6631ZM134.422 69.8265V72.1074H133.84V68.3158H134.402V68.9082H134.452C134.63 68.5231 134.985 68.2664 135.558 68.2664C136.325 68.2664 136.841 68.7305 136.841 69.6981V72.1074H136.259V69.7376C136.259 69.1427 135.93 68.7897 135.39 68.7897C134.832 68.7897 134.422 69.1649 134.422 69.8265ZM137.906 72.1074V68.3158H138.469V68.9082H138.518C138.676 68.5034 139.041 68.2664 139.535 68.2664C140.034 68.2664 140.365 68.5034 140.552 68.9082H140.592C140.787 68.5157 141.184 68.2664 141.727 68.2664C142.404 68.2664 142.882 68.6786 142.882 69.5698V72.1074H142.3V69.5698C142.3 69.0094 141.944 68.7897 141.53 68.7897C140.996 68.7897 140.69 69.1501 140.69 69.6389V72.1074H140.098V69.5105C140.098 69.0785 139.789 68.7897 139.347 68.7897C138.893 68.7897 138.488 69.1822 138.488 69.7376V72.1074H137.906ZM145.537 72.1864C144.441 72.1864 143.77 71.4064 143.77 70.2412C143.77 69.0761 144.451 68.2664 145.478 68.2664C146.268 68.2664 147.107 68.7502 147.107 70.1622V70.4091H144.355C144.382 71.2212 144.854 71.6631 145.537 71.6631C145.994 71.6631 146.337 71.4656 146.485 71.0706L147.048 71.2286C146.87 71.8013 146.308 72.1864 145.537 72.1864ZM144.355 69.9055H146.515C146.515 69.2637 146.11 68.7897 145.478 68.7897C144.812 68.7897 144.394 69.3155 144.355 69.9055ZM148.576 69.8265V72.1074H147.994V68.3158H148.556V68.9082H148.606C148.783 68.5231 149.139 68.2664 149.712 68.2664C150.479 68.2664 150.995 68.7305 150.995 69.6981V72.1074H150.413V69.7376C150.413 69.1427 150.084 68.7897 149.544 68.7897C148.986 68.7897 148.576 69.1649 148.576 69.8265ZM153.709 68.3158V68.8095H152.899V71.0213C152.899 71.515 153.146 71.594 153.403 71.594C153.531 71.594 153.61 71.5742 153.659 71.5643L153.778 72.0877C153.699 72.1173 153.561 72.1568 153.343 72.1568C152.85 72.1568 152.317 71.8408 152.317 71.1793V68.8095H151.744V68.3158H152.317V67.4073H152.899V68.3158H153.709Z" fill="#212121"/>
</g>
<g filter="url(#filter4_d_2259_75692)">
<g filter="url(#filter5_d_2259_75692)">
<path fill-rule="evenodd" clip-rule="evenodd" d="M73.9994 59.321C74.137 59.4389 74.2321 59.5236 74.5258 59.7889C74.8134 60.0487 74.9526 60.1715 75.0798 60.2742C75.1328 60.3167 75.178 60.4303 75.196 60.5992C75.2107 60.7381 75.2056 60.8931 75.1877 61.0425C75.1815 61.0941 75.1756 61.1314 75.1721 61.1491C75.1338 61.3484 75.2935 61.5324 75.5065 61.5345C75.6982 61.5363 75.8459 61.5386 76.2369 61.5452C76.3347 61.5469 76.3347 61.5469 76.4329 61.5485C77.4956 61.5659 78.0384 61.5611 78.428 61.5145C78.8444 61.4647 79.2732 60.9866 79.644 60.3866C79.9581 60.9175 80.3938 61.4359 80.8338 61.5033C80.9735 61.5246 81.1426 61.5312 81.3386 61.5269C81.4847 61.5237 81.6394 61.5145 81.7954 61.5013C81.9131 61.4913 82.0068 61.4812 82.0628 61.4743C82.2698 61.4488 82.4052 61.2552 82.3499 61.0639C82.3379 61.0226 82.3187 60.9468 82.2994 60.8513C82.277 60.7406 82.2607 60.6326 82.2534 60.5341C82.2487 60.4717 82.2478 60.4152 82.2508 60.3663C82.2559 60.2812 82.2575 60.2335 82.26 60.1233C82.261 60.0823 82.261 60.0823 82.2623 60.0464C82.2671 59.9289 82.2837 59.8174 82.3374 59.5742C82.3605 59.4686 82.4723 59.2666 82.6485 59.0166C82.7009 58.9421 82.7583 58.8644 82.8197 58.7841C82.9362 58.6319 83.0616 58.4781 83.1871 58.3309C83.2622 58.2427 83.3203 58.1768 83.3527 58.141C83.624 57.7714 83.9133 57.1663 84.0196 56.8125C84.1217 56.4725 84.2033 55.8464 84.2535 55.231C84.2809 54.8818 84.2911 54.6004 84.2911 54.1589C84.2912 54.0815 84.2912 54.0815 84.2913 54.0175C84.2916 53.9128 84.2916 53.8732 84.2912 53.8242C84.2902 53.6905 84.2861 53.5579 84.2726 53.2198C84.2433 52.5112 83.8349 52.0531 83.2331 51.9647C82.7211 51.8896 82.0979 52.2939 82.0979 52.2939C82.0979 52.2939 81.9592 51.8386 81.8655 51.698C81.7133 51.4722 81.3213 51.1843 81.0216 51.1283C80.7134 51.0714 80.348 51.0777 80.0125 51.1341C79.7187 51.1841 79.426 51.4335 79.2567 51.7026C79.1355 51.8945 79.2495 51.6924 79.1283 51.4938C78.9606 51.2204 78.5702 50.9755 78.1984 50.9032C77.8834 50.8412 77.5224 50.8648 77.1927 50.958C76.7686 51.0785 76.7011 51.3854 76.6842 51.2975C76.6278 51.0029 76.6226 51.0223 76.5875 50.8122C76.4569 50.0325 76.3107 49.493 76.0891 49.0222C76.1019 49.0493 76.008 48.8462 75.9738 48.7762C75.9146 48.6549 75.8556 48.5451 75.7906 48.4395C75.5905 48.1141 75.3611 47.8705 75.0734 47.7321C74.5736 47.4915 73.8245 47.6086 73.4695 48.0026C73.1169 48.3942 73.0581 49.049 73.1469 49.8592C73.1808 50.1738 73.2997 50.7481 73.4074 51.1726C73.4455 51.32 73.4789 51.4544 73.5402 51.7026C73.5507 51.7448 73.5507 51.7448 73.5613 51.787C73.6087 51.9749 73.6502 52.1295 73.6998 52.2991C73.6946 52.2814 73.7887 52.5987 73.8087 52.669C73.8154 52.6924 73.8154 52.6924 73.822 52.716C73.8594 52.8499 73.896 52.9943 73.9531 53.2353C73.9843 53.3678 74.0148 53.5093 74.0447 53.6594C74.126 54.0687 74.1264 53.9834 74.0481 53.8962C73.994 53.8359 73.9431 53.7811 73.8939 53.7307C73.8026 53.6369 73.7186 53.5593 73.6388 53.4974C73.0577 53.0454 72.7017 52.8457 72.2129 52.8018C71.411 52.7285 70.6501 53.2671 70.5357 53.9939C70.4653 54.4395 70.488 54.6446 70.7048 55.0384C70.8241 55.2512 71.0259 55.5082 71.4025 55.9506C71.4255 55.9776 71.4255 55.9776 71.4485 56.0046C71.9108 56.5462 71.9611 56.6064 72.071 56.7577C72.3681 57.1676 73.0913 58.3446 73.2228 58.5026L73.9994 59.321Z" fill="#212121"/>
<path fill-rule="evenodd" clip-rule="evenodd" d="M71.9829 55.5922C71.9601 55.5655 71.9601 55.5655 71.9374 55.5388C71.5918 55.1329 71.4023 54.8916 71.3131 54.7325C71.1731 54.4782 71.1655 54.4093 71.2159 54.0899C71.2752 53.7132 71.7031 53.4105 72.1486 53.4512C72.457 53.4788 72.7263 53.6299 73.2051 54.0024C73.2569 54.0426 73.3194 54.1003 73.3909 54.1737C73.4332 54.2171 73.4781 54.2654 73.5265 54.3193C73.5992 54.4004 73.8443 54.6856 73.8082 54.6441C73.8615 54.7049 73.8996 54.7521 73.9431 54.8099C74.0293 54.9269 74.0778 54.9919 74.1434 55.0751C74.1126 55.0361 74.3401 55.335 74.3883 55.3788C74.6435 55.6104 75.013 55.4153 74.9898 55.1067C74.986 55.0551 74.9732 54.9995 74.9466 54.9023C74.8414 54.1888 74.8046 53.9598 74.7206 53.5372C74.6894 53.3803 74.6573 53.2316 74.6242 53.0912C74.5653 52.8425 74.5268 52.6905 74.4869 52.5475C74.4798 52.5222 74.4798 52.5222 74.4727 52.4972C74.4516 52.4233 74.3561 52.1012 74.3625 52.1228C74.3154 51.9619 74.2759 51.8147 74.2303 51.6339C74.2199 51.5927 74.2199 51.5927 74.2096 51.5513C74.1487 51.3044 74.1144 51.1665 74.0758 51.0172C73.9751 50.6203 73.8612 50.0703 73.8311 49.7912C73.762 49.1605 73.8097 48.6293 73.9922 48.4266C74.1347 48.2685 74.5385 48.2054 74.7641 48.314C74.9116 48.385 75.059 48.5416 75.1985 48.7684C75.2513 48.8543 75.3009 48.9463 75.3516 49.0502C75.3823 49.1132 75.4733 49.3101 75.4631 49.2883C75.6557 49.6975 75.7881 50.1861 75.91 50.914C75.9461 51.1297 75.9907 51.374 76.048 51.673C76.065 51.7616 76.065 51.7616 76.0821 51.8499C76.3581 53.2741 76.3379 53.1662 76.3419 53.2798C76.3564 53.6941 76.9996 53.7038 77.0279 53.2901C77.0369 53.1589 77.0337 53.0418 77.0178 52.7053C77.0155 52.6577 77.0155 52.6577 77.0134 52.6103C76.9994 52.3004 77.0002 52.122 77.0195 52.0207C77.0546 51.8358 77.2291 51.6288 77.3899 51.5831C77.6156 51.5193 77.8629 51.5032 78.061 51.5421C78.2506 51.579 78.4719 51.7178 78.5354 51.8214C78.6119 51.9468 78.6775 52.1378 78.7278 52.3746C78.7684 52.5658 78.7963 52.7708 78.816 52.9897C78.8221 53.0578 78.8261 53.1104 78.8322 53.1975C78.8348 53.2339 78.8348 53.2339 78.8374 53.2639C78.8389 53.279 78.8389 53.279 78.8424 53.3029C78.8452 53.3196 78.8452 53.3196 78.8583 53.3618C78.865 53.4819 78.865 53.4819 79.372 53.5264C79.5234 53.3524 79.5234 53.3524 79.5193 53.3218C79.5441 53.2188 79.5592 53.1039 79.5809 52.888C79.5947 52.7477 79.6017 52.6787 79.6098 52.6072C79.6435 52.3109 79.6863 52.1228 79.7385 52.04C79.8033 51.9371 80.0314 51.7937 80.1337 51.7763C80.3907 51.7331 80.6729 51.7282 80.8907 51.7685C80.9894 51.7869 81.2301 51.9637 81.2871 52.0482C81.4041 52.2237 81.5179 52.7897 81.582 53.3512C81.5719 53.388 81.5719 53.388 81.7292 53.6016C82.2699 53.543 82.2699 53.543 82.2547 53.4502C82.269 53.4171 82.2803 53.3789 82.2964 53.3194C82.335 53.1804 82.3606 53.0996 82.3988 53.0091C82.4252 52.9465 82.453 52.893 82.4815 52.8503C82.5921 52.6849 82.8782 52.5726 83.1292 52.6094C83.3987 52.649 83.5704 52.8416 83.587 53.2443C83.6004 53.5756 83.6043 53.7029 83.6052 53.828C83.6056 53.8741 83.6055 53.9111 83.6053 54.0153C83.6051 54.0797 83.6051 54.0797 83.6051 54.1581C83.6051 54.5839 83.5955 54.8492 83.5694 55.1805C83.523 55.7494 83.4447 56.35 83.36 56.6324C83.2735 56.9203 83.0152 57.4605 82.8107 57.7414C82.7961 57.7548 82.7339 57.8254 82.6543 57.9188C82.5219 58.0742 82.3894 58.2367 82.2652 58.3989C82.1987 58.4858 82.1363 58.5704 82.0786 58.6523C81.8555 58.969 81.7123 59.2277 81.6659 59.4398C81.6051 59.7153 81.5833 59.8615 81.5768 60.02C81.5752 60.0648 81.5752 60.0648 81.5742 60.1083C81.5718 60.2111 81.5704 60.2527 81.5659 60.3278C81.5611 60.4068 81.5624 60.4909 81.5691 60.5796C81.5786 60.7068 81.5691 60.8805 81.5691 60.8805C81.5691 60.8805 81.4531 60.8702 81.3237 60.873C81.1657 60.8765 81.0343 60.8714 80.9435 60.8576C80.8125 60.8375 80.4587 60.4165 80.2775 60.0885C80.0006 59.5865 79.3285 59.6109 79.053 60.0542C78.8045 60.4564 78.4488 60.853 78.3432 60.8656C78.0001 60.9067 77.4688 60.9113 76.4456 60.8946C76.3478 60.893 76.3478 60.893 76.2501 60.8913C75.8572 60.8847 75.8723 60.9477 75.8804 60.8805C75.9033 60.6887 75.9007 60.7246 75.8804 60.5328C75.8462 60.2111 75.7418 59.9488 75.5243 59.7746C75.4117 59.6837 75.2771 59.565 75.0068 59.3208C74.6979 59.0418 74.6012 58.9556 74.4819 58.856L73.748 58.0803C73.6674 57.9823 72.9603 56.8315 72.6374 56.386C72.5118 56.2131 72.4649 56.1569 71.9829 55.5922ZM80.6924 55.5953V58.6077C80.6924 59.0431 81.3794 59.0431 81.3794 58.6077V55.5953C81.3794 55.1598 80.6924 55.1598 80.6924 55.5953ZM78.8316 55.5956L78.8463 58.6202C78.8484 59.0556 79.5353 59.0526 79.5332 58.6171L79.5186 55.5925C79.5164 55.1571 78.8295 55.1601 78.8316 55.5956ZM77.7229 58.6023L77.7037 55.6187C77.7009 55.1832 77.014 55.1872 77.0168 55.6227L77.036 58.6063C77.0388 59.0418 77.7258 59.0378 77.7229 58.6023Z" fill="white"/>
</g>
</g>
</g>
<rect x="8.375" y="6.48242" width="175.25" height="130.25" rx="4.125" stroke="#6B6B6B" stroke-width="0.25"/>
</g>
<defs>
<filter id="filter0_d_2259_75692" x="0.25" y="0.357422" width="191.5" height="146.5" filterUnits="userSpaceOnUse" color-interpolation-filters="sRGB">
<feFlood flood-opacity="0" result="BackgroundImageFix"/>
<feColorMatrix in="SourceAlpha" type="matrix" values="0 0 0 0 0 0 0 0 0 0 0 0 0 0 0 0 0 0 127 0" result="hardAlpha"/>
<feOffset dy="2"/>
<feGaussianBlur stdDeviation="4"/>
<feColorMatrix type="matrix" values="0 0 0 0 0 0 0 0 0 0 0 0 0 0 0 0 0 0 0.2 0"/>
<feBlend mode="normal" in2="BackgroundImageFix" result="effect1_dropShadow_2259_75692"/>
<feBlend mode="normal" in="SourceGraphic" in2="effect1_dropShadow_2259_75692" result="shape"/>
</filter>
<filter id="filter1_i_2259_75692" x="9" y="7" width="175" height="25" filterUnits="userSpaceOnUse" color-interpolation-filters="sRGB">
<feFlood flood-opacity="0" result="BackgroundImageFix"/>
<feBlend mode="normal" in="SourceGraphic" in2="BackgroundImageFix" result="shape"/>
<feColorMatrix in="SourceAlpha" type="matrix" values="0 0 0 0 0 0 0 0 0 0 0 0 0 0 0 0 0 0 127 0" result="hardAlpha"/>
<feOffset dy="-0.625"/>
<feComposite in2="hardAlpha" operator="arithmetic" k2="-1" k3="1"/>
<feColorMatrix type="matrix" values="0 0 0 0 0.929412 0 0 0 0 0.929412 0 0 0 0 0.929412 0 0 0 1 0"/>
<feBlend mode="normal" in2="shape" result="effect1_innerShadow_2259_75692"/>
</filter>
<filter id="filter2_i_2259_75692" x="9" y="32" width="50" height="202.5" filterUnits="userSpaceOnUse" color-interpolation-filters="sRGB">
<feFlood flood-opacity="0" result="BackgroundImageFix"/>
<feBlend mode="normal" in="SourceGraphic" in2="BackgroundImageFix" result="shape"/>
<feColorMatrix in="SourceAlpha" type="matrix" values="0 0 0 0 0 0 0 0 0 0 0 0 0 0 0 0 0 0 127 0" result="hardAlpha"/>
<feOffset dx="-0.625"/>
<feComposite in2="hardAlpha" operator="arithmetic" k2="-1" k3="1"/>
<feColorMatrix type="matrix" values="0 0 0 0 0.901961 0 0 0 0 0.901961 0 0 0 0 0.901961 0 0 0 1 0"/>
<feBlend mode="normal" in2="shape" result="effect1_innerShadow_2259_75692"/>
</filter>
<filter id="filter3_d_2259_75692" x="60.4444" y="54.8158" width="109.111" height="32.1111" filterUnits="userSpaceOnUse" color-interpolation-filters="sRGB">
<feFlood flood-opacity="0" result="BackgroundImageFix"/>
<feColorMatrix in="SourceAlpha" type="matrix" values="0 0 0 0 0 0 0 0 0 0 0 0 0 0 0 0 0 0 127 0" result="hardAlpha"/>
<feOffset dy="1.26389"/>
<feGaussianBlur stdDeviation="2.52778"/>
<feColorMatrix type="matrix" values="0 0 0 0 0 0 0 0 0 0 0 0 0 0 0 0 0 0 0.08 0"/>
<feBlend mode="normal" in2="BackgroundImageFix" result="effect1_dropShadow_2259_75692"/>
<feBlend mode="normal" in="SourceGraphic" in2="effect1_dropShadow_2259_75692" result="shape"/>
</filter>
<filter id="filter4_d_2259_75692" x="65.5443" y="43.8906" width="23.7044" height="23.8626" filterUnits="userSpaceOnUse" color-interpolation-filters="sRGB">
<feFlood flood-opacity="0" result="BackgroundImageFix"/>
<feColorMatrix in="SourceAlpha" type="matrix" values="0 0 0 0 0 0 0 0 0 0 0 0 0 0 0 0 0 0 127 0" result="hardAlpha"/>
<feOffset dy="1.23893"/>
<feGaussianBlur stdDeviation="2.47786"/>
<feColorMatrix type="matrix" values="0 0 0 0 1 0 0 0 0 0.423529 0 0 0 0 0.215686 0 0 0 1 0"/>
<feBlend mode="normal" in2="BackgroundImageFix" result="effect1_dropShadow_2259_75692"/>
<feBlend mode="normal" in="SourceGraphic" in2="effect1_dropShadow_2259_75692" result="shape"/>
</filter>
<filter id="filter5_d_2259_75692" x="69.2611" y="46.988" width="16.2708" height="16.429" filterUnits="userSpaceOnUse" color-interpolation-filters="sRGB">
<feFlood flood-opacity="0" result="BackgroundImageFix"/>
<feColorMatrix in="SourceAlpha" type="matrix" values="0 0 0 0 0 0 0 0 0 0 0 0 0 0 0 0 0 0 127 0" result="hardAlpha"/>
<feOffset dy="0.619465"/>
<feGaussianBlur stdDeviation="0.619465"/>
<feColorMatrix type="matrix" values="0 0 0 0 0 0 0 0 0 0 0 0 0 0 0 0 0 0 0.298656 0"/>
<feBlend mode="normal" in2="BackgroundImageFix" result="effect1_dropShadow_2259_75692"/>
<feBlend mode="normal" in="SourceGraphic" in2="effect1_dropShadow_2259_75692" result="shape"/>
</filter>
<clipPath id="clip0_2259_75692">
<rect x="8.5" y="6.60742" width="175" height="130" rx="4" fill="white"/>
</clipPath>
<clipPath id="clip1_2259_75692">
<rect width="175" height="138" fill="white" transform="translate(9 7)"/>
</clipPath>
<clipPath id="clip2_2259_75692">
<rect width="10" height="10" fill="white" transform="translate(19 14.5)"/>
</clipPath>
<clipPath id="clip3_2259_75692">
<rect width="10" height="10" fill="white" transform="translate(29 39.5)"/>
</clipPath>
<clipPath id="clip4_2259_75692">
<rect width="10" height="10" fill="white" transform="translate(29 104.5)"/>
</clipPath>
</defs>
</svg>
