<svg width="192" height="147" viewBox="0 0 192 147" fill="none" xmlns="http://www.w3.org/2000/svg">
<g filter="url(#filter0_d_2259_75648)">
<rect x="8.5" y="6.60742" width="175" height="130" rx="4" fill="white"/>
<rect x="8.375" y="6.48242" width="175.25" height="130.25" rx="4.125" stroke="#6B6B6B" stroke-width="0.25"/>
<path d="M16.5 19.0031C16.5 16.5765 18.4671 14.6094 20.8937 14.6094H170.28C172.707 14.6094 174.674 16.5765 174.674 19.0031V123.454C174.674 125.88 172.707 127.847 170.28 127.847H20.8937C18.4671 127.847 16.5 125.88 16.5 123.454V19.0031Z" fill="white"/>
<rect x="16.5" y="11.9141" width="158.174" height="39.5435" rx="4.39372" fill="white"/>
<rect x="32.5" y="20.293" width="123" height="30.7874" rx="4.39372" fill="#FFF1EB"/>
<path fill-rule="evenodd" clip-rule="evenodd" d="M57.0625 31.1214L47.3379 41.4181L43.0938 37.174L43.8705 36.3973L47.3154 39.8422L56.264 30.3672L57.0625 31.1214Z" fill="#D23F0E"/>
<path d="M69.2025 40.6875H67.9855L71.5054 31.1012H72.7037L76.2237 40.6875H75.0067L74.0424 37.9726H70.1667L69.2025 40.6875ZM70.5318 36.9429H73.6773L72.142 32.6178H72.0671L70.5318 36.9429ZM80.2819 40.8373C78.4845 40.8373 77.23 39.3956 77.23 37.1114C77.23 34.8459 78.4845 33.4042 80.3007 33.4042C81.7049 33.4042 82.1355 34.2654 82.3789 34.6399H82.4726V31.1012H83.5772V40.6875H82.51V39.5828H82.3789C82.1355 39.976 81.6675 40.8373 80.2819 40.8373ZM80.4317 39.845C81.7611 39.845 82.4913 38.7216 82.4913 37.0926C82.4913 35.4824 81.7798 34.3965 80.4317 34.3965C79.0275 34.3965 78.3347 35.5761 78.3347 37.0926C78.3347 38.6279 79.0462 39.845 80.4317 39.845ZM85.7538 40.6875V33.4978H86.821V34.6212H86.9146C87.2142 33.8535 87.907 33.4042 88.8431 33.4042C89.7887 33.4042 90.4159 33.8535 90.7716 34.6212H90.8465C91.2163 33.8769 91.9699 33.4042 92.9997 33.4042C94.2822 33.4042 95.1903 34.1859 95.1903 35.8756V40.6875H94.0856V35.8756C94.0856 34.8131 93.4116 34.3965 92.6252 34.3965C91.6142 34.3965 91.0337 35.0799 91.0337 36.0067V40.6875H89.9104V35.7633C89.9104 34.9441 89.3253 34.3965 88.4874 34.3965C87.6261 34.3965 86.8585 35.1407 86.8585 36.1939V40.6875H85.7538ZM97.2101 40.6875V33.4978H98.3147V40.6875H97.2101ZM97.7718 32.2995C97.3411 32.2995 96.9854 31.9625 96.9854 31.5506C96.9854 31.1387 97.3411 30.8016 97.7718 30.8016C98.2024 30.8016 98.5581 31.1387 98.5581 31.5506C98.5581 31.9625 98.2024 32.2995 97.7718 32.2995ZM101.443 36.3624V40.6875H100.338V33.4978H101.405V34.6212H101.499C101.836 33.891 102.51 33.4042 103.596 33.4042C105.052 33.4042 106.03 34.2842 106.03 36.119V40.6875H104.925V36.1939C104.925 35.0659 104.303 34.3965 103.278 34.3965C102.22 34.3965 101.443 35.108 101.443 36.3624Z" fill="#212121"/>
<rect width="158.174" height="35.1497" transform="translate(16.5 51.457)" fill="white"/>
<path d="M70.3835 78.4258V68.8395H76.169V69.8693H71.5443V73.1084H75.8694V74.1382H71.5443V77.396H76.2439V78.4258H70.3835ZM80.8264 78.5756C79.0289 78.5756 77.7745 77.1339 77.7745 74.8496C77.7745 72.5841 79.0289 71.1424 80.8451 71.1424C82.2493 71.1424 82.68 72.0037 82.9234 72.3782H83.017V68.8395H84.1217V78.4258H83.0544V77.3211H82.9234C82.68 77.7143 82.2119 78.5756 80.8264 78.5756ZM80.9762 77.5832C82.3055 77.5832 83.0357 76.4598 83.0357 74.8309C83.0357 73.2207 82.3242 72.1348 80.9762 72.1348C79.5719 72.1348 78.8792 73.3143 78.8792 74.8309C78.8792 76.3662 79.5906 77.5832 80.9762 77.5832ZM86.2982 78.4258V71.2361H87.4029V78.4258H86.2982ZM86.8599 70.0378C86.4293 70.0378 86.0736 69.7008 86.0736 69.2888C86.0736 68.8769 86.4293 68.5399 86.8599 68.5399C87.2906 68.5399 87.6463 68.8769 87.6463 69.2888C87.6463 69.7008 87.2906 70.0378 86.8599 70.0378ZM92.553 71.2361V72.1722H91.0177V76.3662C91.0177 77.3024 91.4857 77.4522 91.9725 77.4522C92.2159 77.4522 92.3657 77.4147 92.4594 77.396L92.684 78.3883C92.5342 78.4445 92.2721 78.5194 91.8602 78.5194C90.924 78.5194 89.913 77.9203 89.913 76.6658V72.1722H88.827V71.2361H89.913V69.5135H91.0177V71.2361H92.553ZM97.0582 78.5756C95.111 78.5756 93.8004 77.0964 93.8004 74.8684C93.8004 72.6216 95.111 71.1424 97.0582 71.1424C99.0055 71.1424 100.316 72.6216 100.316 74.8684C100.316 77.0964 99.0055 78.5756 97.0582 78.5756ZM97.0582 77.5832C98.5374 77.5832 99.2114 76.3101 99.2114 74.8684C99.2114 73.4267 98.5374 72.1348 97.0582 72.1348C95.5791 72.1348 94.9051 73.4267 94.9051 74.8684C94.9051 76.3101 95.5791 77.5832 97.0582 77.5832ZM102.002 78.4258V71.2361H103.07V72.322H103.144C103.407 71.6105 104.156 71.1237 105.017 71.1237C105.181 71.1237 105.471 71.1331 105.597 71.1424V72.2658C105.522 72.2471 105.218 72.1909 104.923 72.1909C103.875 72.1909 103.107 72.9024 103.107 73.876V78.4258H102.002Z" fill="#212121"/>
<rect width="158.174" height="35.1497" transform="translate(16.5 86.6055)" fill="white"/>
<path d="M70.7767 103.988L73.6226 112.058H73.735L76.5809 103.988H77.7979L74.2779 113.574H73.0796L69.5597 103.988H70.7767ZM79.1413 113.574V106.384H80.246V113.574H79.1413ZM79.703 105.186C79.2723 105.186 78.9166 104.849 78.9166 104.437C78.9166 104.025 79.2723 103.688 79.703 103.688C80.1336 103.688 80.4894 104.025 80.4894 104.437C80.4894 104.849 80.1336 105.186 79.703 105.186ZM85.2837 113.724C83.2054 113.724 81.9322 112.245 81.9322 110.036C81.9322 107.826 83.2241 106.291 85.1713 106.291C86.6692 106.291 88.2607 107.208 88.2607 109.886V110.354H83.0416C83.0931 111.894 83.9871 112.732 85.2837 112.732C86.1496 112.732 86.8003 112.357 87.0811 111.608L88.1483 111.908C87.8113 112.994 86.7441 113.724 85.2837 113.724ZM83.0416 109.399H87.1373C87.1373 108.182 86.3696 107.283 85.1713 107.283C83.9075 107.283 83.1165 108.28 83.0416 109.399ZM91.57 113.574L89.3794 106.384H90.5402L92.0942 111.889H92.1691L93.7044 106.384H94.884L96.4006 111.87H96.4755L98.0295 106.384H99.1904L96.9997 113.574H95.9138L94.341 108.051H94.2287L92.6559 113.574H91.57ZM103.421 113.724C101.342 113.724 100.069 112.245 100.069 110.036C100.069 107.826 101.361 106.291 103.308 106.291C104.806 106.291 106.398 107.208 106.398 109.886V110.354H101.179C101.23 111.894 102.124 112.732 103.421 112.732C104.287 112.732 104.937 112.357 105.218 111.608L106.285 111.908C105.948 112.994 104.881 113.724 103.421 113.724ZM101.179 109.399H105.274C105.274 108.182 104.507 107.283 103.308 107.283C102.044 107.283 101.253 108.28 101.179 109.399ZM108.078 113.574V106.384H109.145V107.47H109.22C109.482 106.759 110.231 106.272 111.092 106.272C111.256 106.272 111.547 106.282 111.673 106.291V107.414C111.598 107.396 111.294 107.339 110.999 107.339C109.95 107.339 109.183 108.051 109.183 109.024V113.574H108.078Z" fill="#212121"/>
<g filter="url(#filter1_d_2259_75648)">
<g filter="url(#filter2_d_2259_75648)">
<path fill-rule="evenodd" clip-rule="evenodd" d="M116.999 55.321C117.137 55.4389 117.232 55.5236 117.526 55.7889C117.813 56.0487 117.953 56.1715 118.08 56.2742C118.133 56.3167 118.178 56.4303 118.196 56.5992C118.211 56.7381 118.206 56.8931 118.188 57.0425C118.182 57.0941 118.176 57.1314 118.172 57.1491C118.134 57.3484 118.293 57.5324 118.507 57.5345C118.698 57.5363 118.846 57.5386 119.237 57.5452C119.335 57.5469 119.335 57.5469 119.433 57.5485C120.496 57.5659 121.038 57.5611 121.428 57.5145C121.844 57.4647 122.273 56.9866 122.644 56.3866C122.958 56.9175 123.394 57.4359 123.834 57.5033C123.974 57.5246 124.143 57.5312 124.339 57.5269C124.485 57.5237 124.639 57.5145 124.795 57.5013C124.913 57.4913 125.007 57.4812 125.063 57.4743C125.27 57.4488 125.405 57.2552 125.35 57.0639C125.338 57.0226 125.319 56.9468 125.299 56.8513C125.277 56.7406 125.261 56.6326 125.253 56.5341C125.249 56.4717 125.248 56.4152 125.251 56.3663C125.256 56.2812 125.258 56.2335 125.26 56.1233C125.261 56.0823 125.261 56.0823 125.262 56.0464C125.267 55.9289 125.284 55.8174 125.337 55.5742C125.36 55.4686 125.472 55.2666 125.648 55.0166C125.701 54.9421 125.758 54.8644 125.82 54.7841C125.936 54.6319 126.062 54.4781 126.187 54.3309C126.262 54.2427 126.32 54.1768 126.353 54.141C126.624 53.7714 126.913 53.1663 127.02 52.8125C127.122 52.4725 127.203 51.8464 127.253 51.231C127.281 50.8818 127.291 50.6004 127.291 50.1589C127.291 50.0815 127.291 50.0815 127.291 50.0175C127.292 49.9128 127.292 49.8732 127.291 49.8242C127.29 49.6905 127.286 49.5579 127.273 49.2198C127.243 48.5112 126.835 48.0531 126.233 47.9647C125.721 47.8896 125.098 48.2939 125.098 48.2939C125.098 48.2939 124.959 47.8386 124.865 47.698C124.713 47.4722 124.321 47.1843 124.022 47.1283C123.713 47.0714 123.348 47.0777 123.012 47.1341C122.719 47.1841 122.426 47.4335 122.257 47.7026C122.136 47.8945 122.249 47.6924 122.128 47.4938C121.961 47.2204 121.57 46.9755 121.198 46.9032C120.883 46.8412 120.522 46.8648 120.193 46.958C119.769 47.0785 119.701 47.3854 119.684 47.2975C119.628 47.0029 119.623 47.0223 119.587 46.8122C119.457 46.0325 119.311 45.493 119.089 45.0222C119.102 45.0493 119.008 44.8462 118.974 44.7762C118.915 44.6549 118.856 44.5451 118.791 44.4395C118.59 44.1141 118.361 43.8705 118.073 43.7321C117.574 43.4915 116.825 43.6086 116.469 44.0026C116.117 44.3942 116.058 45.049 116.147 45.8592C116.181 46.1738 116.3 46.7481 116.407 47.1726C116.446 47.32 116.479 47.4544 116.54 47.7026C116.551 47.7448 116.551 47.7448 116.561 47.787C116.609 47.9749 116.65 48.1295 116.7 48.2991C116.695 48.2814 116.789 48.5987 116.809 48.669C116.815 48.6924 116.815 48.6924 116.822 48.716C116.859 48.8499 116.896 48.9943 116.953 49.2353C116.984 49.3678 117.015 49.5093 117.045 49.6594C117.126 50.0687 117.126 49.9834 117.048 49.8962C116.994 49.8359 116.943 49.7811 116.894 49.7307C116.803 49.6369 116.719 49.5593 116.639 49.4974C116.058 49.0454 115.702 48.8457 115.213 48.8018C114.411 48.7285 113.65 49.2671 113.536 49.9939C113.465 50.4395 113.488 50.6446 113.705 51.0384C113.824 51.2512 114.026 51.5082 114.402 51.9506C114.426 51.9776 114.426 51.9776 114.449 52.0046C114.911 52.5462 114.961 52.6064 115.071 52.7577C115.368 53.1676 116.091 54.3446 116.223 54.5026L116.999 55.321Z" fill="#212121"/>
<path fill-rule="evenodd" clip-rule="evenodd" d="M114.983 51.5922C114.96 51.5655 114.96 51.5655 114.937 51.5388C114.592 51.1329 114.402 50.8916 114.313 50.7325C114.173 50.4782 114.166 50.4093 114.216 50.0899C114.275 49.7132 114.703 49.4105 115.149 49.4512C115.457 49.4788 115.726 49.6299 116.205 50.0024C116.257 50.0426 116.319 50.1003 116.391 50.1737C116.433 50.2171 116.478 50.2654 116.526 50.3193C116.599 50.4004 116.844 50.6856 116.808 50.6441C116.861 50.7049 116.9 50.7521 116.943 50.8099C117.029 50.9269 117.078 50.9919 117.143 51.0751C117.113 51.0361 117.34 51.335 117.388 51.3788C117.643 51.6104 118.013 51.4153 117.99 51.1067C117.986 51.0551 117.973 50.9995 117.947 50.9023C117.841 50.1888 117.805 49.9598 117.721 49.5372C117.689 49.3803 117.657 49.2316 117.624 49.0912C117.565 48.8425 117.527 48.6905 117.487 48.5475C117.48 48.5222 117.48 48.5222 117.473 48.4972C117.452 48.4233 117.356 48.1012 117.362 48.1228C117.315 47.9619 117.276 47.8147 117.23 47.6339C117.22 47.5927 117.22 47.5927 117.21 47.5513C117.149 47.3044 117.114 47.1665 117.076 47.0172C116.975 46.6203 116.861 46.0703 116.831 45.7912C116.762 45.1605 116.81 44.6293 116.992 44.4266C117.135 44.2685 117.538 44.2054 117.764 44.314C117.912 44.385 118.059 44.5416 118.199 44.7684C118.251 44.8543 118.301 44.9463 118.352 45.0502C118.382 45.1132 118.473 45.3101 118.463 45.2883C118.656 45.6975 118.788 46.1861 118.91 46.914C118.946 47.1297 118.991 47.374 119.048 47.673C119.065 47.7616 119.065 47.7616 119.082 47.8499C119.358 49.2741 119.338 49.1662 119.342 49.2798C119.356 49.6941 120 49.7038 120.028 49.2901C120.037 49.1589 120.034 49.0418 120.018 48.7053C120.016 48.6577 120.016 48.6577 120.013 48.6103C119.999 48.3004 120 48.122 120.02 48.0207C120.055 47.8358 120.229 47.6288 120.39 47.5831C120.616 47.5193 120.863 47.5032 121.061 47.5421C121.251 47.579 121.472 47.7178 121.535 47.8214C121.612 47.9468 121.678 48.1378 121.728 48.3746C121.768 48.5658 121.796 48.7708 121.816 48.9897C121.822 49.0578 121.826 49.1104 121.832 49.1975C121.835 49.2339 121.835 49.2339 121.837 49.2639C121.839 49.279 121.839 49.279 121.842 49.3029C121.845 49.3196 121.845 49.3196 121.858 49.3618C121.865 49.4819 121.865 49.4819 122.372 49.5264C122.523 49.3524 122.523 49.3524 122.519 49.3218C122.544 49.2188 122.559 49.1039 122.581 48.888C122.595 48.7477 122.602 48.6787 122.61 48.6072C122.644 48.3109 122.686 48.1228 122.739 48.04C122.803 47.9371 123.031 47.7937 123.134 47.7763C123.391 47.7331 123.673 47.7282 123.891 47.7685C123.989 47.7869 124.23 47.9637 124.287 48.0482C124.404 48.2237 124.518 48.7897 124.582 49.3512C124.572 49.388 124.572 49.388 124.729 49.6016C125.27 49.543 125.27 49.543 125.255 49.4502C125.269 49.4171 125.28 49.3789 125.296 49.3194C125.335 49.1804 125.361 49.0996 125.399 49.0091C125.425 48.9465 125.453 48.893 125.482 48.8503C125.592 48.6849 125.878 48.5726 126.129 48.6094C126.399 48.649 126.57 48.8416 126.587 49.2443C126.6 49.5756 126.604 49.7029 126.605 49.828C126.606 49.8741 126.606 49.9111 126.605 50.0153C126.605 50.0797 126.605 50.0797 126.605 50.1581C126.605 50.5839 126.596 50.8492 126.569 51.1805C126.523 51.7494 126.445 52.35 126.36 52.6324C126.273 52.9203 126.015 53.4605 125.811 53.7414C125.796 53.7548 125.734 53.8254 125.654 53.9188C125.522 54.0742 125.389 54.2367 125.265 54.3989C125.199 54.4858 125.136 54.5704 125.079 54.6523C124.855 54.969 124.712 55.2277 124.666 55.4398C124.605 55.7153 124.583 55.8615 124.577 56.02C124.575 56.0648 124.575 56.0648 124.574 56.1083C124.572 56.2111 124.57 56.2527 124.566 56.3278C124.561 56.4068 124.562 56.4909 124.569 56.5796C124.579 56.7068 124.569 56.8805 124.569 56.8805C124.569 56.8805 124.453 56.8702 124.324 56.873C124.166 56.8765 124.034 56.8714 123.944 56.8576C123.812 56.8375 123.459 56.4165 123.277 56.0885C123.001 55.5865 122.329 55.6109 122.053 56.0542C121.805 56.4564 121.449 56.853 121.343 56.8656C121 56.9067 120.469 56.9113 119.446 56.8946C119.348 56.893 119.348 56.893 119.25 56.8913C118.857 56.8847 118.872 56.9477 118.88 56.8805C118.903 56.6887 118.901 56.7246 118.88 56.5328C118.846 56.2111 118.742 55.9488 118.524 55.7746C118.412 55.6837 118.277 55.565 118.007 55.3208C117.698 55.0418 117.601 54.9556 117.482 54.856L116.748 54.0803C116.667 53.9823 115.96 52.8315 115.637 52.386C115.512 52.2131 115.465 52.1569 114.983 51.5922ZM123.692 51.5953V54.6077C123.692 55.0431 124.379 55.0431 124.379 54.6077V51.5953C124.379 51.1598 123.692 51.1598 123.692 51.5953ZM121.832 51.5956L121.846 54.6202C121.848 55.0556 122.535 55.0526 122.533 54.6171L122.519 51.5925C122.516 51.1571 121.829 51.1601 121.832 51.5956ZM120.723 54.6023L120.704 51.6187C120.701 51.1832 120.014 51.1872 120.017 51.6227L120.036 54.6063C120.039 55.0418 120.726 55.0378 120.723 54.6023Z" fill="white"/>
</g>
</g>
</g>
<defs>
<filter id="filter0_d_2259_75648" x="0.25" y="0.357422" width="191.5" height="146.5" filterUnits="userSpaceOnUse" color-interpolation-filters="sRGB">
<feFlood flood-opacity="0" result="BackgroundImageFix"/>
<feColorMatrix in="SourceAlpha" type="matrix" values="0 0 0 0 0 0 0 0 0 0 0 0 0 0 0 0 0 0 127 0" result="hardAlpha"/>
<feOffset dy="2"/>
<feGaussianBlur stdDeviation="4"/>
<feColorMatrix type="matrix" values="0 0 0 0 0 0 0 0 0 0 0 0 0 0 0 0 0 0 0.2 0"/>
<feBlend mode="normal" in2="BackgroundImageFix" result="effect1_dropShadow_2259_75648"/>
<feBlend mode="normal" in="SourceGraphic" in2="effect1_dropShadow_2259_75648" result="shape"/>
</filter>
<filter id="filter1_d_2259_75648" x="108.544" y="39.8906" width="23.7044" height="23.8626" filterUnits="userSpaceOnUse" color-interpolation-filters="sRGB">
<feFlood flood-opacity="0" result="BackgroundImageFix"/>
<feColorMatrix in="SourceAlpha" type="matrix" values="0 0 0 0 0 0 0 0 0 0 0 0 0 0 0 0 0 0 127 0" result="hardAlpha"/>
<feOffset dy="1.23893"/>
<feGaussianBlur stdDeviation="2.47786"/>
<feColorMatrix type="matrix" values="0 0 0 0 1 0 0 0 0 0.423529 0 0 0 0 0.215686 0 0 0 1 0"/>
<feBlend mode="normal" in2="BackgroundImageFix" result="effect1_dropShadow_2259_75648"/>
<feBlend mode="normal" in="SourceGraphic" in2="effect1_dropShadow_2259_75648" result="shape"/>
</filter>
<filter id="filter2_d_2259_75648" x="112.261" y="42.988" width="16.2708" height="16.429" filterUnits="userSpaceOnUse" color-interpolation-filters="sRGB">
<feFlood flood-opacity="0" result="BackgroundImageFix"/>
<feColorMatrix in="SourceAlpha" type="matrix" values="0 0 0 0 0 0 0 0 0 0 0 0 0 0 0 0 0 0 127 0" result="hardAlpha"/>
<feOffset dy="0.619465"/>
<feGaussianBlur stdDeviation="0.619465"/>
<feColorMatrix type="matrix" values="0 0 0 0 0 0 0 0 0 0 0 0 0 0 0 0 0 0 0.298656 0"/>
<feBlend mode="normal" in2="BackgroundImageFix" result="effect1_dropShadow_2259_75648"/>
<feBlend mode="normal" in="SourceGraphic" in2="effect1_dropShadow_2259_75648" result="shape"/>
</filter>
</defs>
</svg>
