<svg width="880" height="120" viewBox="0 0 880 120" fill="none" xmlns="http://www.w3.org/2000/svg">
<g clip-path="url(#clip0_3226_148263)">
<mask id="mask0_3226_148263" style="mask-type:luminance" maskUnits="userSpaceOnUse" x="0" y="0" width="880" height="120">
<path d="M880 0H0V120H880V0Z" fill="white"/>
</mask>
<g mask="url(#mask0_3226_148263)">
<path d="M872.15 122.67C868.22 112.38 863.86 102.17 859.19 92.33L862.76 90.6C863.14 90.42 863.42 90.1 863.56 89.7C863.7 89.3 863.67 88.88 863.49 88.5L859.61 80.49C859.43 80.11 859.11 79.83 858.71 79.69C858.31 79.55 857.89 79.58 857.51 79.76L853.87 81.52C847.77 69.57 841.11 58.02 834.07 47.18C835.36 45.96 835.73 44 834.95 42.38L836.29 41.4599C836.51 41.3099 836.57 41.0099 836.43 40.7799C835.6 39.4699 834.77 38.17 833.93 36.88C832.25 34.31 832.1 32.82 831.8 29.84L831.74 29.29C831.59 27.87 831.44 26.4599 831.28 25.0499L830.78 25.11L831.27 24.94C831.08 22.89 830.35 20.92 829.16 19.25C827.26 16.56 824.36 14.81 821.01 14.34C817.75 13.88 814.43 14.74 811.8 16.68C806.08 9.71995 800.09 3.02995 793.98 -3.21005C793.79 -3.41005 793.47 -3.41005 793.27 -3.21005C793.07 -3.02005 793.07 -2.70005 793.27 -2.50005C799.36 3.70995 805.33 10.38 811.02 17.3099C806.66 21.1399 805.76 27.5699 809 32.5099C810.23 34.3899 811.95 35.8899 813.96 36.8699L814.18 36.4199L814.07 36.9199C815.33 37.5599 816.59 38.21 817.85 38.86L818.25 39.07C820.91 40.45 822.25 41.15 823.95 43.7299C824.79 45.0199 825.63 46.31 826.46 47.61C826.53 47.72 826.65 47.8 826.78 47.83C826.81 47.83 826.85 47.83 826.88 47.83C826.98 47.83 827.08 47.8 827.16 47.74L828.47 46.84C829.04 47.53 829.8 48.01 830.67 48.18C830.92 48.23 831.18 48.2599 831.43 48.2599C832.07 48.2599 832.69 48.0899 833.26 47.7799C840.26 58.5699 846.89 70.06 852.96 81.96L849.49 83.64C849.11 83.82 848.83 84.14 848.69 84.54C848.55 84.94 848.58 85.36 848.76 85.74L852.64 93.75C852.91 94.31 853.47 94.64 854.06 94.64C854.29 94.64 854.52 94.59 854.74 94.48L858.29 92.76C862.94 102.57 867.29 112.75 871.21 123.02C871.29 123.22 871.48 123.34 871.68 123.34C871.74 123.34 871.8 123.33 871.86 123.31C872.12 123.21 872.25 122.92 872.15 122.66V122.67ZM825.87 30.69L825.07 29.53C824.86 29.22 824.78 28.8499 824.84 28.4799C824.9 28.1099 825.11 27.79 825.42 27.58C825.73 27.37 826.11 27.29 826.48 27.35C826.85 27.42 827.17 27.62 827.39 27.93C827.61 28.24 827.68 28.6099 827.61 28.9799C827.54 29.3499 827.33 29.6699 827.02 29.8899L825.86 30.69H825.87ZM825.61 32.08C827.13 34.31 828.65 36.5999 830.14 38.8699L827.19 40.9C825.71 38.64 824.19 36.3599 822.65 34.1199L825.61 32.08ZM818.71 38.18L818.31 37.97C817.05 37.32 815.79 36.6699 814.53 36.0299L814.41 35.97C812.56 35.07 810.99 33.6899 809.85 31.9599C806.8 27.2999 807.75 21.1899 812.06 17.7299C814.52 15.7599 817.74 14.88 820.88 15.33C823.96 15.76 826.61 17.36 828.36 19.83C829.45 21.36 830.11 23.16 830.29 25.04L830.3 25.17C830.46 26.58 830.61 27.99 830.76 29.4L830.82 29.94C831.11 32.82 831.28 34.4699 832.85 37.0099L830.98 38.2999C829.49 36.0199 827.97 33.75 826.45 31.51L827.61 30.7099C828.14 30.3499 828.5 29.8 828.61 29.16C828.73 28.53 828.59 27.89 828.23 27.36C827.87 26.83 827.31 26.47 826.68 26.36C826.05 26.24 825.41 26.38 824.88 26.75C824.35 27.11 823.99 27.6599 823.88 28.2999C823.76 28.9299 823.9 29.57 824.27 30.1L825.07 31.26L822.11 33.2999L821.31 32.1399C820.55 31.0499 819.05 30.78 817.95 31.53C817.42 31.89 817.07 32.44 816.95 33.07C816.83 33.7 816.97 34.3399 817.34 34.8699C817.81 35.5499 818.56 35.91 819.33 35.91C819.8 35.91 820.28 35.77 820.69 35.49L821.85 34.6899C823.39 36.9399 824.91 39.21 826.39 41.47L824.52 42.7599C822.8 40.2999 821.32 39.53 818.73 38.18H818.71ZM821.26 33.86L820.1 34.66C819.46 35.1 818.58 34.9399 818.14 34.2999C817.93 33.9899 817.84 33.62 817.91 33.25C817.98 32.88 818.18 32.5599 818.49 32.3499C818.74 32.1799 819.02 32.0999 819.29 32.0999C819.74 32.0999 820.18 32.3099 820.45 32.7099L821.25 33.8699L821.26 33.86ZM827.02 46.6399C826.37 45.6199 825.71 44.6099 825.05 43.5999L833.38 37.8699C834.04 38.8799 834.69 39.8999 835.34 40.9199L827.02 46.6399ZM830.87 47.2099C830.25 47.0799 829.7 46.76 829.28 46.29L834.13 42.95C834.69 44.3 834.26 45.9199 833.03 46.7599C832.39 47.1999 831.62 47.3599 830.86 47.2099H830.87ZM854.31 93.59C854.03 93.73 853.68 93.61 853.54 93.32L849.66 85.31C849.59 85.17 849.58 85.02 849.63 84.87C849.68 84.72 849.78 84.61 849.92 84.54L857.93 80.66C858.07 80.59 858.22 80.58 858.37 80.63C858.51 80.68 858.63 80.78 858.7 80.92L862.58 88.93C862.65 89.07 862.66 89.22 862.61 89.37C862.56 89.52 862.46 89.63 862.32 89.7L854.31 93.58V93.59ZM802.55 95.21C803.21 94.83 803.89 94.38 804.6 93.83C804.83 93.66 805.06 93.48 805.29 93.28C805.31 93.26 805.33 93.25 805.35 93.23C805.69 92.94 806.02 92.64 806.34 92.32C806.46 92.2 806.57 92.08 806.69 91.96C806.9 91.74 807.11 91.51 807.31 91.28C807.43 91.14 807.55 90.99 807.66 90.85C807.85 90.62 808.02 90.38 808.2 90.15C808.3 90.01 808.41 89.86 808.51 89.71C808.7 89.44 808.87 89.16 809.04 88.88C809.11 88.76 809.19 88.65 809.25 88.53C809.73 87.69 810.14 86.81 810.49 85.91C810.5 85.87 810.52 85.84 810.53 85.8C810.69 85.38 810.83 84.95 810.95 84.51C810.97 84.46 810.98 84.41 810.99 84.35C811.11 83.91 811.22 83.47 811.31 83.03C811.31 83 811.32 82.97 811.33 82.94C811.72 80.99 811.8 78.99 811.54 77C811.54 76.98 811.54 76.96 811.54 76.93C811.48 76.49 811.4 76.05 811.31 75.61C811.29 75.53 811.27 75.44 811.25 75.36C811.21 75.18 811.18 75 811.13 74.83L812.12 73.85L812.93 73.05C813.47 72.51 813.58 71.65 813.2 70.94L812.06 68.78C811.72 68.14 811.06 67.76 810.38 67.8L807.51 67.96C806.43 66.7 805.2 65.63 803.87 64.74C803.77 64.67 803.67 64.61 803.57 64.55C803.22 64.32 802.86 64.11 802.49 63.9C802.33 63.81 802.17 63.73 802.01 63.65C801.7 63.49 801.38 63.34 801.06 63.2C800.86 63.11 800.65 63.0299 800.45 62.9399C800.17 62.8299 799.89 62.73 799.6 62.63C799.36 62.55 799.11 62.46 798.86 62.39C798.62 62.32 798.38 62.26 798.14 62.2C797.85 62.13 797.56 62.05 797.26 61.99C797.13 61.96 797 61.95 796.86 61.93C796.01 61.78 795.16 61.69 794.29 61.67C794.27 61.67 794.26 61.67 794.24 61.67C793.87 61.67 793.5 61.6699 793.13 61.6899C792.96 61.6899 792.79 61.69 792.62 61.71C792.29 61.73 791.96 61.77 791.63 61.81C791.41 61.84 791.19 61.86 790.97 61.9C790.67 61.95 790.38 62 790.08 62.07C789.82 62.13 789.55 62.1899 789.29 62.2599C789.03 62.3299 788.78 62.39 788.52 62.47C788.19 62.57 787.86 62.69 787.53 62.81C787.34 62.88 787.15 62.94 786.96 63.02C786.65 63.15 786.35 63.2899 786.05 63.4399C785.74 62.8999 785.42 62.36 785.11 61.82C785.77 61.38 786.27 60.74 786.51 59.97C786.78 59.09 786.69 58.16 786.26 57.34C785.83 56.53 785.11 55.93 784.23 55.65C783.35 55.38 782.42 55.4599 781.61 55.8899C781.61 55.8899 781.59 55.9 781.58 55.91C776.07 46.88 770.21 38.14 764.14 29.92C764.14 29.87 764.16 29.83 764.14 29.78L762.46 23.69L765.53 18.17C765.63 17.99 765.61 17.78 765.49 17.62C765.37 17.46 765.16 17.39 764.96 17.45L758.9 19.1399L753.41 16.0599C753.41 16.0599 753.33 16.04 753.29 16.03C747.74 9.29995 741.92 2.82995 736 -3.21005C735.81 -3.41005 735.49 -3.41005 735.29 -3.21005C735.09 -3.02005 735.09 -2.70005 735.29 -2.50005C741.28 3.60995 747.17 10.17 752.78 16.99L754.36 22.7299L751.29 28.25C751.19 28.43 751.21 28.6399 751.33 28.7999C751.45 28.9599 751.66 29.03 751.86 28.97L757.92 27.28L763.09 30.18C763.09 30.18 763.1 30.21 763.11 30.22C769.26 38.53 775.2 47.39 780.78 56.54C780.39 56.93 780.09 57.3999 779.93 57.9399C779.66 58.8199 779.75 59.75 780.18 60.57C780.61 61.39 781.33 61.9899 782.21 62.2599C782.55 62.3599 782.89 62.42 783.24 62.42C783.59 62.42 783.89 62.3599 784.21 62.2599C784.53 62.8099 784.85 63.36 785.17 63.9C784.76 64.13 784.36 64.36 783.97 64.62C783.81 64.72 783.66 64.84 783.51 64.94C783.21 65.15 782.92 65.36 782.64 65.59C782.46 65.73 782.29 65.88 782.12 66.02C781.87 66.23 781.64 66.45 781.4 66.67C781.23 66.83 781.07 66.99 780.91 67.15C780.67 67.4 780.44 67.66 780.22 67.92C780.09 68.07 779.96 68.21 779.84 68.36C779.51 68.76 779.2 69.18 778.92 69.61C778.83 69.74 778.76 69.87 778.67 70C778.46 70.33 778.26 70.66 778.07 71.01C777.99 71.16 777.91 71.31 777.84 71.46C777.66 71.81 777.49 72.16 777.34 72.52C777.28 72.65 777.22 72.79 777.17 72.92C777 73.34 776.85 73.76 776.71 74.19C776.68 74.27 776.66 74.35 776.63 74.43C776.14 76.02 775.88 77.68 775.85 79.37C775.85 79.47 775.85 79.57 775.85 79.66C775.85 80.1 775.86 80.55 775.9 80.99C775.91 81.13 775.92 81.27 775.94 81.42C775.98 81.83 776.04 82.23 776.1 82.64C776.13 82.8 776.15 82.95 776.18 83.11C776.2 83.2 776.21 83.29 776.22 83.38L775.24 84.46L773.94 85.89C773.84 86.02 773.76 86.17 773.7 86.32C773.7 86.32 773.7 86.32 773.7 86.33C773.67 86.4 773.67 86.47 773.65 86.55C773.55 86.97 773.59 87.43 773.81 87.84L774.22 88.61L774.95 90C775.04 90.17 775.15 90.32 775.28 90.45C775.31 90.48 775.35 90.5 775.38 90.53C775.48 90.62 775.59 90.7 775.71 90.77C775.76 90.8 775.81 90.81 775.86 90.84C775.97 90.89 776.09 90.93 776.21 90.95C776.27 90.96 776.33 90.97 776.39 90.98C776.44 90.98 776.49 91 776.54 91C776.64 91 776.73 90.99 776.83 90.97H776.85L779.45 90.46C779.57 90.62 779.7 90.77 779.83 90.92C779.89 90.99 779.94 91.06 780 91.13C781.04 92.34 782.25 93.39 783.57 94.27C783.57 94.27 783.58 94.27 783.59 94.28C785.27 95.4 787.15 96.24 789.12 96.77C789.16 96.77 789.19 96.79 789.23 96.8C789.57 96.89 789.91 96.97 790.26 97.04C790.34 97.06 790.42 97.07 790.5 97.09C790.81 97.15 791.12 97.2 791.43 97.24C791.52 97.25 791.62 97.27 791.71 97.28C792.03 97.32 792.35 97.35 792.67 97.37C792.75 97.37 792.83 97.38 792.91 97.39C793.31 97.42 793.71 97.43 794.11 97.43C795.15 97.43 796.2 97.35 797.24 97.17C797.35 97.17 799.18 96.98 801.68 95.7C805.81 104.59 809.7 113.78 813.23 123.04C813.31 123.24 813.5 123.36 813.7 123.36C813.76 123.36 813.82 123.35 813.88 123.33C814.14 123.23 814.27 122.94 814.17 122.68C810.62 113.39 806.71 104.15 802.56 95.22L802.55 95.21ZM758.23 26.3099C758.15 26.2699 758.07 26.25 757.99 26.25C757.95 26.25 757.9 26.25 757.86 26.27L752.75 27.69L755.34 23.04C755.4 22.93 755.42 22.79 755.38 22.66L753.97 17.53L758.59 20.12C758.71 20.18 758.84 20.2 758.97 20.17L764.08 18.75L761.49 23.4C761.43 23.51 761.41 23.65 761.45 23.78L762.86 28.91L758.24 26.32L758.23 26.3099ZM782.38 92.09C782.15 91.89 781.93 91.69 781.72 91.48C781.6 91.36 781.48 91.24 781.36 91.12C781.21 90.97 781.06 90.81 780.92 90.65C780.76 90.47 780.6 90.28 780.44 90.08C780.34 89.95 780.23 89.83 780.13 89.7C779.62 89.03 779.16 88.32 778.76 87.57C777.98 86.1 777.45 84.55 777.14 83C777.11 82.83 777.08 82.66 777.05 82.49C776.99 82.12 776.94 81.74 776.9 81.37C776.89 81.23 776.87 81.1 776.86 80.96C776.83 80.5 776.81 80.04 776.81 79.59C776.81 79.54 776.81 79.49 776.81 79.44C776.83 78.36 776.94 77.29 777.16 76.24C777.16 76.22 777.16 76.21 777.17 76.19C777.27 75.71 777.4 75.23 777.54 74.76C777.57 74.66 777.6 74.56 777.64 74.46C777.76 74.08 777.9 73.7 778.05 73.32C778.1 73.19 778.15 73.06 778.21 72.93C778.36 72.59 778.52 72.25 778.69 71.91C778.76 71.78 778.82 71.64 778.89 71.51C779.09 71.15 779.3 70.8 779.52 70.46C779.58 70.37 779.63 70.28 779.69 70.19C779.96 69.78 780.26 69.39 780.57 69C780.7 68.84 780.83 68.7 780.97 68.54C781.17 68.31 781.37 68.08 781.59 67.85C781.75 67.69 781.91 67.53 782.07 67.38C782.29 67.17 782.51 66.97 782.74 66.77C782.9 66.63 783.07 66.49 783.24 66.35C783.51 66.14 783.78 65.94 784.06 65.74C784.21 65.64 784.35 65.53 784.5 65.43C784.94 65.14 785.4 64.86 785.87 64.61C785.89 64.6 785.91 64.59 785.94 64.58C786.31 64.39 786.69 64.21 787.07 64.05C787.19 64 787.31 63.95 787.44 63.9C787.78 63.76 788.11 63.64 788.45 63.52C788.52 63.5 788.59 63.47 788.67 63.45C789.1 63.31 789.54 63.19 789.98 63.09C790.02 63.09 790.06 63.07 790.09 63.07C790.52 62.97 790.95 62.89 791.38 62.83C791.41 62.83 791.44 62.83 791.47 62.82C792.39 62.69 793.32 62.64 794.25 62.67C794.29 62.67 794.33 62.67 794.37 62.67C794.8 62.68 795.24 62.7099 795.67 62.7599C795.7 62.7599 795.73 62.7599 795.77 62.7599C796.69 62.8599 797.59 63.04 798.48 63.29C798.55 63.31 798.62 63.33 798.69 63.35C799.03 63.45 799.37 63.56 799.7 63.68C799.84 63.73 799.97 63.78 800.11 63.84C800.38 63.94 800.64 64.06 800.9 64.18C801.05 64.25 801.21 64.32 801.36 64.39C801.62 64.52 801.87 64.66 802.12 64.8C802.38 64.94 802.64 65.1 802.89 65.25C803.1 65.38 803.31 65.51 803.51 65.65C803.7 65.78 803.89 65.92 804.08 66.06C804.24 66.18 804.39 66.3 804.54 66.42C804.73 66.57 804.91 66.73 805.1 66.89C805.24 67.02 805.38 67.15 805.52 67.28C805.7 67.45 805.88 67.61 806.05 67.79C806.2 67.95 806.35 68.11 806.49 68.28C807.39 69.29 808.19 70.41 808.85 71.65C809.5 72.89 809.97 74.19 810.28 75.53C810.3 75.6 810.32 75.67 810.33 75.74C810.63 77.11 810.75 78.52 810.7 79.92C810.7 79.92 810.7 79.92 810.7 79.93C810.68 80.38 810.65 80.83 810.6 81.28C810.6 81.33 810.59 81.37 810.58 81.42C810.53 81.83 810.46 82.24 810.39 82.64C810.38 82.7 810.37 82.76 810.35 82.82C810.27 83.22 810.17 83.62 810.06 84.01C810.04 84.06 810.03 84.12 810.02 84.17C809.76 85.06 809.44 85.92 809.04 86.76C809.01 86.83 808.97 86.89 808.94 86.96C808.78 87.29 808.61 87.61 808.43 87.93C808.35 88.07 808.27 88.2 808.18 88.34C808.03 88.58 807.88 88.82 807.72 89.06C807.62 89.21 807.51 89.36 807.41 89.5C807.25 89.72 807.09 89.93 806.92 90.15C806.81 90.29 806.69 90.43 806.58 90.57C806.39 90.79 806.19 91.01 805.99 91.22C805.88 91.33 805.78 91.45 805.67 91.56C805.36 91.87 805.03 92.17 804.69 92.46C804.69 92.46 804.68 92.47 804.67 92.48C800.74 95.76 797.2 96.13 797.13 96.13C796.7 96.2 796.27 96.25 795.84 96.29C795.56 96.32 795.29 96.33 795.01 96.34C794.88 96.34 794.76 96.36 794.63 96.36C790.2 96.46 785.81 94.92 782.54 92.16C782.5 92.12 782.45 92.09 782.41 92.05L782.38 92.09ZM775.81 89.51L774.94 87.87L774.67 87.36C774.59 87.21 774.56 87.05 774.56 86.9C774.56 86.75 774.61 86.61 774.68 86.51L775.93 85.12L776.47 84.52C776.81 85.71 777.27 86.89 777.87 88.03C778.14 88.55 778.46 89.05 778.78 89.53L776.62 89.95C776.62 89.95 776.58 89.95 776.56 89.95C776.26 89.97 775.95 89.8 775.79 89.5L775.81 89.51ZM811.18 69.25L812.27 71.32L812.31 71.4C812.43 71.63 812.44 71.88 812.36 72.09C812.36 72.11 812.36 72.12 812.35 72.14C812.35 72.14 812.34 72.15 812.33 72.16C812.3 72.22 812.26 72.28 812.21 72.33L811.92 72.62L810.78 73.75C810.49 72.88 810.14 72.03 809.71 71.22C809.27 70.4 808.77 69.64 808.23 68.91L810.43 68.78C810.71 68.76 811.02 68.95 811.17 69.24L811.18 69.25ZM782.5 61.2999C781.88 61.1099 781.36 60.6799 781.06 60.0999C780.75 59.5199 780.69 58.8599 780.88 58.2299C781.07 57.6099 781.49 57.09 782.07 56.79C782.42 56.6 782.81 56.5099 783.2 56.5099C783.44 56.5099 783.69 56.5499 783.93 56.6199C784.55 56.8099 785.07 57.24 785.37 57.82C785.68 58.4 785.74 59.0599 785.55 59.6899C785.36 60.3099 784.94 60.83 784.36 61.13C783.78 61.43 783.12 61.4999 782.5 61.2999ZM144.5 -3.20005C136.92 4.52995 129.54 12.94 122.58 21.78C121.95 21.92 121.34 22.08 120.73 22.25C120.64 22.28 120.55 22.3 120.46 22.33C119.97 22.47 119.48 22.62 119 22.78C118.87 22.83 118.73 22.87 118.6 22.92C118.19 23.07 117.78 23.2199 117.37 23.3799C117.21 23.4399 117.04 23.51 116.88 23.58C116.54 23.72 116.2 23.87 115.86 24.03C115.66 24.12 115.46 24.2099 115.26 24.2999C115.02 24.4099 114.79 24.54 114.56 24.66C111.97 25.99 109.74 27.57 107.84 29.27C106.24 29.01 104.72 29.03 103.28 29.31C99.18 29.98 95.91 32.9 93.36 38.16C93.25 38.38 93.32 38.65 93.53 38.79C95.29 39.98 97.05 41.17 98.81 42.36C97.72 45.08 97.33 46.96 97.32 47.02C97.3 47.21 97.38 47.4299 97.54 47.5299C99.1 48.5499 100.67 49.56 102.24 50.58C101.55 51.66 100.87 52.75 100.2 53.83C98.97 53.26 97.61 53.1299 96.3 53.4599C94.72 53.8699 93.27 54.94 92.43 56.33C91.12 58.63 91.39 65.88 91.77 68.13C87.99 74.88 84.33 81.9 80.89 89C80.81 89.02 80.73 89.05 80.67 89.11L76.06 93.43L69.75 93.28C69.56 93.28 69.36 93.39 69.28 93.58C69.2 93.76 69.23 93.98 69.37 94.13L73.68 98.71L73.51 105C73.51 105 73.52 105.04 73.53 105.06C71.02 110.84 68.6 116.77 66.35 122.67C66.25 122.93 66.38 123.22 66.64 123.32C66.7 123.34 66.76 123.35 66.82 123.35C67.02 123.35 67.21 123.23 67.29 123.03C69.57 117.07 72.01 111.08 74.55 105.24C74.55 105.23 74.55 105.21 74.55 105.2L78.97 101.06L85.28 101.21C85.49 101.21 85.67 101.1 85.75 100.91C85.83 100.73 85.8 100.51 85.66 100.36L81.35 95.78L81.51 89.88C81.58 89.83 81.64 89.78 81.67 89.7C85.09 82.63 88.73 75.65 92.49 68.92C92.49 68.92 92.49 68.92 92.5 68.92C92.51 68.92 92.53 68.91 92.54 68.9L92.7 68.83C95.87 67.49 101.39 64.9 102.79 62.61C103.66 61.17 103.9 59.59 103.52 57.91C103.2 56.5 102.27 55.16 101.08 54.33C101.74 53.26 102.41 52.1899 103.09 51.1199C104.87 52.2799 106.66 53.44 108.44 54.59C108.52 54.64 108.62 54.6699 108.71 54.6699C108.76 54.6699 108.81 54.67 108.85 54.65C108.93 54.63 109 54.58 109.06 54.52L109.2 54.41C110 53.78 111.17 52.78 112.52 51.41L117.91 54.8899C117.99 54.9399 118.09 54.97 118.18 54.97C118.32 54.97 118.46 54.9099 118.56 54.7999C118.86 54.4599 119.14 54.12 119.4 53.77C122.97 49.22 123.81 44.79 121.96 40.31C121.7 39.63 121.39 38.9599 121.01 38.2799C121.46 37.0999 121.86 35.87 122.2 34.57C122.2 34.56 122.22 34.5499 122.22 34.5299C122.55 33.2599 122.79 31.95 122.98 30.63C123 30.48 123.02 30.34 123.04 30.2C123.07 29.95 123.1 29.7 123.12 29.45C123.15 29.17 123.18 28.89 123.2 28.6C123.21 28.45 123.22 28.31 123.23 28.16C123.26 27.78 123.28 27.39 123.3 27C123.3 26.92 123.3 26.84 123.3 26.76C123.31 26.32 123.32 25.87 123.32 25.42C123.32 25.31 123.32 25.2 123.32 25.09C123.32 24.68 123.31 24.27 123.29 23.86C123.27 23.44 123.24 23.01 123.21 22.59C123.21 22.59 123.21 22.59 123.22 22.58C130.21 13.7 137.6 5.25995 145.21 -2.50005C145.4 -2.70005 145.4 -3.01005 145.21 -3.21005C145.01 -3.40005 144.7 -3.40005 144.5 -3.21005V-3.20005ZM84.1 100.18L78.78 100.05C78.65 100.05 78.52 100.09 78.43 100.18L74.54 103.82L74.69 98.52C74.69 98.39 74.64 98.26 74.55 98.16L70.92 94.3L76.24 94.43C76.37 94.42 76.5 94.39 76.59 94.3L80.48 90.66L80.33 95.96C80.33 96.09 80.38 96.22 80.47 96.32L84.1 100.18ZM102.55 58.13C102.87 59.55 102.67 60.88 101.94 62.09C101.05 63.55 97.71 65.6 92.74 67.73C92.52 65.57 92.08 58.98 93.31 56.84C94.01 55.67 95.23 54.77 96.56 54.43C96.96 54.33 97.36 54.2799 97.76 54.2799C98.65 54.2799 99.53 54.53 100.33 55.02C101.42 55.7 102.27 56.89 102.55 58.13ZM122.23 28.17C122.23 28.29 122.21 28.4 122.2 28.52C122.14 29.28 122.05 30.02 121.94 30.77C121.91 30.96 121.88 31.15 121.85 31.34C121.74 32 121.62 32.66 121.47 33.31C121.45 33.4 121.43 33.48 121.41 33.57C118.37 31.4299 115.34 29.2799 112.31 27.1299C112.54 26.9799 112.78 26.83 113.02 26.68C113.25 26.54 113.48 26.4 113.71 26.27C114.24 25.96 114.78 25.6699 115.34 25.3899C115.69 25.2199 116.04 25.0499 116.4 24.8799C116.71 24.7399 117.02 24.5999 117.34 24.4599C117.95 24.2099 118.57 23.98 119.2 23.76C119.47 23.67 119.74 23.58 120.01 23.5C120.69 23.29 121.39 23.08 122.09 22.91C122.14 22.9 122.18 22.89 122.22 22.87C122.22 22.91 122.22 22.95 122.22 22.99C122.28 23.82 122.3 24.6499 122.3 25.4699C122.3 25.5499 122.3 25.6299 122.3 25.7099C122.3 26.5299 122.26 27.35 122.21 28.16L122.23 28.17ZM99.21 41.41C97.63 40.34 96.04 39.27 94.46 38.2C96.77 33.63 99.79 30.98 103.48 30.27C104.52 30.11 105.62 30.11 106.79 30.26C102.99 34 100.62 38.17 99.21 41.41ZM108.68 53.5499C106.86 52.3699 105.03 51.19 103.2 50C101.6 48.96 100 47.9199 98.38 46.8699C98.81 45.0799 101.77 34.55 111.43 27.7299C114.67 30.0299 117.91 32.32 121.15 34.61C118.37 44.98 111.41 51.3699 108.68 53.5499ZM118.83 52.88C118.6 53.19 118.35 53.5 118.09 53.81C116.47 52.77 114.85 51.7199 113.23 50.6699C115.66 48.0699 118.47 44.3499 120.51 39.5499C120.72 39.9499 120.91 40.34 121.07 40.74C122.59 44.79 121.85 48.86 118.84 52.88H118.83ZM792.91 92.94C793.48 92.94 794.04 92.91 794.6 92.84C796.28 92.65 797.93 92.17 799.47 91.42C804.56 88.93 808.62 82.56 807.67 76.96C807.53 76.1 807.27 75.27 806.88 74.46C806.84 74.38 806.8 74.3 806.76 74.21C806.35 73.38 805.92 72.52 805.4 71.72C805.36 71.65 805.31 71.59 805.26 71.52C805.14 71.34 805.02 71.16 804.88 70.99C804.76 70.83 804.63 70.68 804.5 70.53C804.43 70.45 804.37 70.38 804.3 70.3C804.1 70.09 803.9 69.9 803.68 69.72C803.66 69.7 803.64 69.68 803.62 69.66C803.37 69.46 803.1 69.27 802.82 69.11C802.53 68.94 802.22 68.8 801.89 68.68C799.43 67.79 796 68.38 791.23 70.53C790.71 70.76 790.18 71 789.62 71.28C789.62 71.28 789.59 71.3 789.57 71.31C777.9 77.04 779.03 81.75 781.53 86.87C782.56 88.97 784.54 90.69 787.09 91.76C787.65 92 788.24 92.21 788.85 92.38C789.47 92.55 790.11 92.68 790.74 92.77C790.78 92.77 790.83 92.79 790.87 92.79C791.55 92.88 792.23 92.93 792.91 92.93V92.94ZM782.42 86.43C779.99 81.47 779.12 77.54 790.05 72.18C790.3 72.06 790.52 71.96 790.76 71.85C795.74 69.5 799.19 68.78 801.54 69.63C803.65 70.39 804.71 72.29 805.98 74.9C806.32 75.6 806.54 76.39 806.66 77.22C807.31 81.77 804.63 87.78 799.02 90.52C798.5 90.78 797.96 90.99 797.41 91.17C794.76 92.08 791.87 92.18 789.11 91.41C788.34 91.2 787.61 90.92 786.92 90.59C784.86 89.6 783.25 88.13 782.42 86.42V86.43ZM63.62 31.2999L60.4 28.88C68.82 17.62 77.84 7.05995 87.22 -2.51005C87.41 -2.71005 87.41 -3.02005 87.22 -3.22005C87.02 -3.41005 86.71 -3.41005 86.51 -3.22005C77.1 6.37995 68.05 16.97 59.6 28.27L56.49 25.94C56.15 25.69 55.74 25.5799 55.32 25.6399C54.9 25.6999 54.54 25.92 54.28 26.25L48.94 33.36C48.69 33.7 48.58 34.1099 48.64 34.5299C48.7 34.9499 48.92 35.31 49.25 35.57L52.55 38.0499C45.27 48.5399 38.34 59.77 31.96 71.43C31.55 71.24 31.15 71.06 30.73 70.9C30.66 70.87 30.58 70.85 30.51 70.83C30.05 70.67 29.6 70.52 29.13 70.4C29.12 70.4 29.11 70.4 29.1 70.4C25.99 69.59 22.7 69.7 19.58 70.76C16.47 71.82 13.8 73.73 11.83 76.27C11.83 76.28 11.81 76.29 11.8 76.31C11.52 76.68 11.25 77.07 11 77.46C10.95 77.54 10.89 77.61 10.84 77.69C10.58 78.11 10.34 78.54 10.12 78.98C10.09 79.04 10.05 79.1 10.02 79.16C9.76996 79.67 9.54996 80.19 9.34996 80.71C9.31996 80.79 9.29996 80.87 9.26996 80.95C9.10996 81.4 8.95996 81.85 8.83996 82.31C8.83996 82.33 8.83996 82.34 8.82996 82.36C8.29996 84.42 8.15996 86.55 8.43996 88.66C8.57996 89.74 8.82996 90.81 9.18996 91.86C9.34996 92.34 9.53996 92.81 9.74996 93.27C9.81996 93.44 9.90996 93.59 9.97996 93.76C10.12 94.04 10.26 94.32 10.41 94.59C10.52 94.79 10.63 94.98 10.75 95.17C10.88 95.39 11.02 95.6 11.17 95.82C11.31 96.03 11.45 96.24 11.6 96.44C11.72 96.61 11.86 96.76 11.99 96.93C12.4 97.45 12.84 97.94 13.32 98.4C13.35 98.43 13.37 98.45 13.4 98.48C13.63 98.7 13.86 98.9 14.1 99.11C14.23 99.22 14.35 99.33 14.48 99.43C14.55 99.49 14.61 99.55 14.68 99.6C14.7 99.62 14.72 99.64 14.75 99.66C14.89 99.77 15.04 99.87 15.19 99.97C15.34 100.08 15.5 100.19 15.66 100.3C15.72 100.34 15.78 100.39 15.84 100.43C15.94 100.49 16.03 100.57 16.13 100.63C16.21 100.68 16.29 100.72 16.37 100.77C16.58 100.9 16.8 101.01 17.02 101.13C17.09 101.17 17.16 101.21 17.22 101.24C14.09 108.26 11.1 115.48 8.33996 122.71C8.23996 122.97 8.36996 123.26 8.62996 123.36C8.68996 123.38 8.74996 123.39 8.80996 123.39C9.00996 123.39 9.19996 123.27 9.27996 123.07C12.03 115.87 15.01 108.68 18.12 101.69C18.52 101.87 18.92 102.04 19.33 102.19C19.35 102.19 19.37 102.2 19.38 102.21C19.93 102.41 20.49 102.57 21.05 102.7C21.14 102.72 21.22 102.74 21.31 102.76C21.66 102.84 22.01 102.9 22.37 102.96C22.39 102.96 22.4 102.96 22.42 102.96C22.55 102.98 22.68 103 22.8 103.01C22.97 103.03 23.14 103.05 23.3 103.07C23.37 103.07 23.44 103.08 23.51 103.09C23.59 103.09 23.67 103.1 23.76 103.11C24.04 103.13 24.32 103.14 24.6 103.15C24.71 103.15 24.81 103.17 24.92 103.17C25.64 103.17 26.36 103.11 27.07 103.01C27.13 103.01 27.18 103 27.24 102.99C27.55 102.95 27.85 102.89 28.16 102.83C28.26 102.81 28.36 102.79 28.46 102.77C28.75 102.71 29.03 102.64 29.31 102.56C29.42 102.53 29.53 102.49 29.64 102.46C29.85 102.4 30.07 102.34 30.28 102.27C30.34 102.25 30.4 102.22 30.47 102.2C30.85 102.06 31.23 101.92 31.6 101.75C31.71 101.7 31.82 101.66 31.93 101.6C31.93 101.6 31.94 101.6 31.95 101.59C32.06 101.54 32.16 101.48 32.27 101.42C32.46 101.33 32.64 101.23 32.82 101.14C33.06 101.01 33.29 100.88 33.52 100.75C33.67 100.66 33.82 100.56 33.97 100.46C34.37 100.2 34.75 99.93 35.12 99.64C35.27 99.52 35.43 99.4 35.58 99.27C35.78 99.11 35.97 98.94 36.16 98.76C36.34 98.6 36.51 98.43 36.68 98.26C36.83 98.11 36.99 97.96 37.14 97.8C37.43 97.48 37.71 97.15 37.99 96.8C38.1 96.66 38.2 96.52 38.3 96.38C38.5 96.11 38.69 95.83 38.87 95.55C38.95 95.42 39.04 95.29 39.12 95.15C39.37 94.73 39.61 94.31 39.83 93.86C39.86 93.79 39.88 93.73 39.92 93.66C40.13 93.22 40.33 92.77 40.5 92.31C40.54 92.22 40.56 92.12 40.59 92.02C40.74 91.59 40.89 91.15 41 90.71C41 90.69 41 90.66 41.02 90.64C41.82 87.54 41.71 84.27 40.65 81.16C39.59 78.05 37.68 75.38 35.14 73.41C35.13 73.41 35.12 73.39 35.11 73.38C34.73 73.09 34.34 72.82 33.94 72.56C33.87 72.52 33.81 72.46 33.74 72.42C33.45 72.24 33.14 72.08 32.84 71.92C39.2 60.31 46.09 49.1299 53.34 38.6899L56.36 40.9599C56.64 41.1699 56.96 41.2799 57.3 41.2799C57.37 41.2799 57.45 41.2799 57.52 41.2599C57.94 41.1999 58.3 40.98 58.56 40.65L63.9 33.54C64.15 33.2 64.26 32.7899 64.2 32.3699C64.14 31.9499 63.92 31.59 63.59 31.33L63.62 31.2999ZM35.65 75.12C35.84 75.3 36.03 75.5 36.21 75.69C36.37 75.85 36.53 76.01 36.68 76.18C36.82 76.33 36.94 76.5 37.07 76.66C37.25 76.89 37.44 77.11 37.61 77.35C37.66 77.41 37.7 77.48 37.74 77.54C37.78 77.59 37.81 77.65 37.84 77.7C38.05 78 38.25 78.31 38.43 78.63C38.46 78.69 38.5 78.74 38.53 78.8C39.18 79.95 39.67 81.17 40.01 82.44C38.64 82.29 37.12 81.97 35.49 81.49C35.61 80.57 35.67 79.68 35.66 78.81C35.64 77.09 35.35 75.62 34.83 74.42C34.98 74.55 35.14 74.67 35.29 74.8C35.31 74.82 35.33 74.84 35.35 74.85C35.45 74.94 35.55 75.02 35.65 75.12ZM40.07 90.43C39.96 90.87 39.81 91.3 39.66 91.73C39.64 91.8 39.62 91.87 39.59 91.94C39.47 92.28 39.31 92.61 39.16 92.94L32.92 89.87C34.06 87.46 34.9 84.93 35.33 82.49C37.11 83.01 38.77 83.35 40.25 83.47C40.7 85.73 40.67 88.1 40.07 90.42C40.07 90.42 40.07 90.43 40.07 90.44V90.43ZM37.29 96.07C37.29 96.07 37.25 96.11 37.23 96.14C35.77 98 33.93 99.46 31.88 100.47C30.88 99.38 29.59 98.26 28.1 97.17C29.77 95.34 31.27 93.13 32.48 90.76L38.72 93.83C38.55 94.15 38.38 94.47 38.19 94.78C38.14 94.86 38.08 94.93 38.03 95.01C37.79 95.38 37.55 95.74 37.29 96.08V96.07ZM10.23 81.26C10.25 81.19 10.27 81.12 10.3 81.05C10.42 80.71 10.58 80.38 10.73 80.05L16.97 83.12C15.83 85.53 14.99 88.06 14.56 90.5C12.78 89.98 11.12 89.64 9.63996 89.52C9.18996 87.26 9.21996 84.89 9.81996 82.58C9.81996 82.58 9.81996 82.56 9.81996 82.55C9.92996 82.12 10.08 81.69 10.23 81.26ZM12.65 76.85C12.94 76.49 13.24 76.14 13.55 75.8C13.61 75.73 13.68 75.67 13.74 75.6C14.01 75.33 14.28 75.07 14.56 74.82C14.65 74.74 14.73 74.67 14.82 74.6C15.52 74.01 16.27 73.48 17.06 73.02C17.15 72.97 17.24 72.92 17.33 72.87C17.55 72.75 17.78 72.64 18 72.53C19 73.62 20.29 74.74 21.78 75.83C20.11 77.66 18.61 79.87 17.4 82.24L11.16 79.17C11.31 78.89 11.45 78.62 11.61 78.36C11.68 78.25 11.75 78.14 11.82 78.03C12.03 77.71 12.24 77.4 12.47 77.1C12.53 77.02 12.58 76.94 12.64 76.87L12.65 76.85ZM20.06 71.67C20.43 71.55 20.81 71.44 21.2 71.34C21.29 71.32 21.39 71.29 21.48 71.27C21.91 71.17 22.34 71.09 22.78 71.03C22.83 71.03 22.89 71.02 22.94 71.01C23.3 70.96 23.67 70.93 24.04 70.91C24.11 70.91 24.17 70.9 24.24 70.89C24.29 70.89 24.33 70.89 24.38 70.89C24.42 70.89 24.47 70.89 24.51 70.89C24.78 70.89 25.05 70.89 25.32 70.89C25.35 70.89 25.37 70.89 25.4 70.89C25.7 70.89 26.01 70.91 26.31 70.94C26.41 70.94 26.51 70.96 26.61 70.97C26.79 70.99 26.97 71.01 27.14 71.04C27.41 71.08 27.68 71.13 27.95 71.18C28.12 71.21 28.3 71.25 28.47 71.29C27.21 71.61 25.86 72.28 24.49 73.31C23.8 73.83 23.12 74.43 22.47 75.08C21.1 74.09 19.91 73.07 18.96 72.08C19.25 71.96 19.55 71.83 19.85 71.73C19.92 71.71 19.98 71.69 20.05 71.67H20.06ZM34.52 81.18C32.65 80.57 30.69 79.78 28.73 78.81C26.77 77.84 24.94 76.77 23.32 75.67C23.9 75.1 24.49 74.57 25.1 74.11C26.89 72.76 28.59 72.07 30.07 72.07C30.67 72.07 31.23 72.2 31.75 72.43C31.79 72.45 31.83 72.46 31.87 72.48C31.91 72.5 31.94 72.52 31.98 72.54C33.68 73.46 34.63 75.67 34.67 78.81C34.67 79.57 34.62 80.37 34.53 81.17L34.52 81.18ZM18.05 100.51C16.27 99.63 15.27 97.38 15.23 94.17C15.23 93.41 15.28 92.61 15.37 91.81C17.24 92.42 19.2 93.21 21.16 94.18C23.12 95.15 24.95 96.22 26.57 97.32C25.99 97.89 25.4 98.42 24.78 98.88C22.21 100.81 19.81 101.39 18.03 100.52L18.05 100.51ZM15.06 98.58C12.49 96.48 10.71 93.65 9.87996 90.55C11.25 90.7 12.78 91.02 14.4 91.5C14.28 92.42 14.22 93.31 14.23 94.18C14.25 95.91 14.54 97.38 15.06 98.58ZM21.61 93.28C19.55 92.27 17.49 91.44 15.52 90.8C15.92 88.41 16.74 85.92 17.85 83.56L31.59 90.32C30.4 92.65 28.92 94.81 27.28 96.59C25.58 95.42 23.66 94.29 21.61 93.28ZM18.3 82.66C19.49 80.33 20.97 78.17 22.61 76.39C24.31 77.56 26.23 78.69 28.28 79.7C30.34 80.71 32.4 81.54 34.37 82.18C33.97 84.57 33.15 87.06 32.04 89.42L18.3 82.66ZM21.4 101.7C22.67 101.38 24.01 100.71 25.39 99.67C26.08 99.15 26.76 98.55 27.41 97.9C28.78 98.89 29.97 99.91 30.92 100.9C27.95 102.13 24.63 102.44 21.4 101.69V101.7ZM63.13 32.9L57.79 40.0099C57.7 40.1299 57.56 40.2099 57.41 40.2299C57.26 40.2499 57.11 40.2099 56.99 40.1199L49.87 34.77C49.75 34.68 49.67 34.5399 49.65 34.3899C49.63 34.2399 49.67 34.09 49.76 33.97L55.1 26.86C55.19 26.74 55.33 26.6599 55.48 26.6399C55.51 26.6399 55.53 26.6399 55.56 26.6399C55.68 26.6399 55.8 26.68 55.9 26.76L63.02 32.11C63.14 32.2 63.22 32.34 63.24 32.49C63.26 32.64 63.22 32.79 63.13 32.91V32.9ZM115.22 37.9599C115.02 36.8399 114.4 35.87 113.48 35.24C112.56 34.61 111.45 34.39 110.35 34.61C108.1 35.06 106.55 37.3599 106.95 39.6199C107.14 40.6999 107.79 41.6699 108.72 42.2999C109.42 42.7699 110.22 43.02 111.03 43.02C111.3 43.02 111.58 42.9899 111.86 42.9399C114.15 42.4599 115.63 40.28 115.23 37.97L115.22 37.9599ZM111.65 41.95C110.83 42.12 109.99 41.95 109.28 41.47C108.57 40.99 108.08 40.2499 107.94 39.4399C107.63 37.7299 108.85 35.92 110.55 35.59C110.76 35.55 110.97 35.5299 111.18 35.5299C111.8 35.5299 112.4 35.71 112.92 36.07C113.62 36.55 114.09 37.2899 114.24 38.1399C114.55 39.8899 113.39 41.5999 111.65 41.9599V41.95Z" fill="url(#paint0_linear_3226_148263)"/>
</g>
</g>
<defs>
<linearGradient id="paint0_linear_3226_148263" x1="440.25" y1="123.35" x2="440.25" y2="-3.35004" gradientUnits="userSpaceOnUse">
<stop stop-color="#284673"/>
<stop offset="1" stop-color="#7B345C"/>
</linearGradient>
<clipPath id="clip0_3226_148263">
<rect width="880" height="120" fill="white"/>
</clipPath>
</defs>
</svg>
